<svg width="405" height="751" viewBox="0 0 405 751" fill="none" xmlns="http://www.w3.org/2000/svg">
<rect width="405" height="751" fill="black" fill-opacity="0"/>
<rect width="405" height="751" fill="black" fill-opacity="0"/>
<rect width="405" height="751" fill="black" fill-opacity="0"/>
<rect width="405" height="751" fill="black" fill-opacity="0"/>
<rect width="405" height="751" fill="black" fill-opacity="0"/>
<rect width="405" height="751" fill="black" fill-opacity="0"/>
<rect width="357" height="598" fill="black" fill-opacity="0" transform="translate(24 59)"/>
<rect x="24" y="59" width="357" height="584" fill="#5E9561"/>
<path d="M129.686 326.416C129.686 326.035 129.527 325.745 129.211 325.546C128.9 325.347 128.382 325.171 127.655 325.019C126.929 324.866 126.322 324.673 125.836 324.438C124.77 323.923 124.236 323.176 124.236 322.197C124.236 321.377 124.582 320.691 125.273 320.141C125.965 319.59 126.844 319.314 127.91 319.314C129.047 319.314 129.964 319.596 130.661 320.158C131.364 320.721 131.716 321.45 131.716 322.347H129.58C129.58 321.937 129.428 321.597 129.123 321.327C128.818 321.052 128.414 320.914 127.91 320.914C127.441 320.914 127.058 321.022 126.759 321.239C126.466 321.456 126.319 321.746 126.319 322.109C126.319 322.438 126.457 322.692 126.732 322.874C127.008 323.056 127.564 323.24 128.402 323.428C129.24 323.609 129.896 323.829 130.371 324.087C130.852 324.339 131.206 324.644 131.435 325.001C131.669 325.358 131.786 325.792 131.786 326.302C131.786 327.157 131.432 327.852 130.723 328.385C130.014 328.912 129.085 329.176 127.937 329.176C127.157 329.176 126.463 329.035 125.854 328.754C125.244 328.473 124.77 328.086 124.43 327.594C124.09 327.102 123.92 326.571 123.92 326.003H125.994C126.023 326.507 126.214 326.896 126.565 327.172C126.917 327.441 127.383 327.576 127.963 327.576C128.525 327.576 128.953 327.471 129.246 327.26C129.539 327.043 129.686 326.762 129.686 326.416ZM137.561 327.471C138.094 327.471 138.536 327.315 138.888 327.005C139.239 326.694 139.427 326.311 139.45 325.854H141.463C141.439 326.445 141.255 326.999 140.909 327.515C140.563 328.024 140.095 328.429 139.503 328.728C138.911 329.026 138.272 329.176 137.587 329.176C136.257 329.176 135.202 328.745 134.423 327.884C133.644 327.022 133.254 325.833 133.254 324.315V324.096C133.254 322.648 133.641 321.491 134.414 320.624C135.188 319.751 136.242 319.314 137.578 319.314C138.709 319.314 139.629 319.646 140.338 320.308C141.053 320.964 141.428 321.828 141.463 322.9H139.45C139.427 322.355 139.239 321.907 138.888 321.556C138.542 321.204 138.1 321.028 137.561 321.028C136.869 321.028 136.336 321.28 135.961 321.784C135.586 322.282 135.396 323.041 135.39 324.061V324.403C135.39 325.435 135.574 326.205 135.943 326.715C136.318 327.219 136.857 327.471 137.561 327.471ZM148.758 329C148.664 328.818 148.582 328.522 148.512 328.112C147.832 328.821 147 329.176 146.016 329.176C145.061 329.176 144.281 328.903 143.678 328.358C143.074 327.813 142.772 327.14 142.772 326.337C142.772 325.323 143.147 324.547 143.897 324.008C144.653 323.463 145.731 323.19 147.132 323.19H148.441V322.566C148.441 322.074 148.304 321.682 148.028 321.389C147.753 321.09 147.334 320.94 146.771 320.94C146.285 320.94 145.887 321.063 145.576 321.31C145.266 321.55 145.11 321.857 145.11 322.232H142.975C142.975 321.711 143.147 321.225 143.493 320.773C143.839 320.316 144.308 319.959 144.899 319.701C145.497 319.443 146.162 319.314 146.895 319.314C148.008 319.314 148.896 319.596 149.558 320.158C150.22 320.715 150.56 321.5 150.577 322.514V326.803C150.577 327.658 150.697 328.341 150.938 328.851V329H148.758ZM146.411 327.462C146.833 327.462 147.229 327.359 147.598 327.154C147.973 326.949 148.254 326.674 148.441 326.328V324.535H147.29C146.499 324.535 145.904 324.673 145.506 324.948C145.107 325.224 144.908 325.613 144.908 326.117C144.908 326.527 145.043 326.855 145.312 327.102C145.588 327.342 145.954 327.462 146.411 327.462ZM154.796 319.49L154.857 320.589C155.561 319.739 156.483 319.314 157.626 319.314C159.606 319.314 160.614 320.448 160.649 322.716V329H158.514V322.839C158.514 322.235 158.382 321.79 158.118 321.503C157.86 321.21 157.436 321.063 156.844 321.063C155.982 321.063 155.341 321.453 154.919 322.232V329H152.783V319.49H154.796Z" fill="#9AFE81"/>
<path d="M242.994 323.342C242.994 324.812 242.66 325.987 241.992 326.866C241.324 327.739 240.428 328.176 239.303 328.176C238.26 328.176 237.425 327.833 236.798 327.147V331.656H234.662V318.49H236.631L236.719 319.457C237.346 318.695 238.198 318.314 239.276 318.314C240.437 318.314 241.345 318.748 242.001 319.615C242.663 320.477 242.994 321.675 242.994 323.21V323.342ZM240.867 323.157C240.867 322.208 240.677 321.455 240.296 320.898C239.921 320.342 239.382 320.063 238.679 320.063C237.806 320.063 237.179 320.424 236.798 321.145V325.363C237.185 326.102 237.817 326.471 238.696 326.471C239.376 326.471 239.906 326.198 240.287 325.653C240.674 325.103 240.867 324.271 240.867 323.157ZM250.491 328C250.397 327.818 250.315 327.522 250.245 327.112C249.565 327.821 248.733 328.176 247.749 328.176C246.794 328.176 246.015 327.903 245.411 327.358C244.808 326.813 244.506 326.14 244.506 325.337C244.506 324.323 244.881 323.547 245.631 323.008C246.387 322.463 247.465 322.19 248.865 322.19H250.175V321.566C250.175 321.074 250.037 320.682 249.762 320.389C249.486 320.09 249.067 319.94 248.505 319.94C248.019 319.94 247.62 320.063 247.31 320.31C246.999 320.55 246.844 320.857 246.844 321.232H244.708C244.708 320.711 244.881 320.225 245.227 319.773C245.572 319.316 246.041 318.959 246.633 318.701C247.23 318.443 247.896 318.314 248.628 318.314C249.741 318.314 250.629 318.596 251.291 319.158C251.953 319.715 252.293 320.5 252.311 321.514V325.803C252.311 326.658 252.431 327.341 252.671 327.851V328H250.491ZM248.145 326.462C248.566 326.462 248.962 326.359 249.331 326.154C249.706 325.949 249.987 325.674 250.175 325.328V323.535H249.023C248.232 323.535 247.638 323.673 247.239 323.948C246.841 324.224 246.642 324.613 246.642 325.117C246.642 325.527 246.776 325.855 247.046 326.102C247.321 326.342 247.688 326.462 248.145 326.462ZM257.733 324.941L259.667 318.49H261.943L258.164 329.441C257.584 331.041 256.6 331.841 255.211 331.841C254.9 331.841 254.558 331.788 254.183 331.683V330.03L254.587 330.057C255.126 330.057 255.53 329.957 255.8 329.758C256.075 329.564 256.292 329.236 256.45 328.773L256.758 327.956L253.418 318.49H255.721L257.733 324.941ZM265.187 318.49L265.248 319.483C265.916 318.704 266.83 318.314 267.99 318.314C269.262 318.314 270.132 318.801 270.601 319.773C271.292 318.801 272.265 318.314 273.519 318.314C274.567 318.314 275.347 318.604 275.856 319.185C276.372 319.765 276.636 320.62 276.647 321.751V328H274.512V321.812C274.512 321.209 274.38 320.767 274.116 320.485C273.853 320.204 273.416 320.063 272.807 320.063C272.32 320.063 271.922 320.195 271.611 320.459C271.307 320.717 271.093 321.057 270.97 321.479L270.979 328H268.843V321.742C268.813 320.623 268.242 320.063 267.129 320.063C266.273 320.063 265.667 320.412 265.31 321.109V328H263.174V318.49H265.187ZM283.028 328.176C281.675 328.176 280.576 327.751 279.732 326.901C278.895 326.046 278.476 324.909 278.476 323.491V323.228C278.476 322.278 278.657 321.432 279.021 320.688C279.39 319.938 279.905 319.354 280.567 318.938C281.229 318.522 281.968 318.314 282.782 318.314C284.077 318.314 285.076 318.728 285.779 319.554C286.488 320.38 286.843 321.549 286.843 323.061V323.922H280.629C280.693 324.707 280.954 325.328 281.411 325.785C281.874 326.242 282.454 326.471 283.151 326.471C284.13 326.471 284.927 326.075 285.542 325.284L286.693 326.383C286.312 326.951 285.803 327.394 285.164 327.71C284.531 328.021 283.819 328.176 283.028 328.176ZM282.773 320.028C282.188 320.028 281.713 320.233 281.35 320.644C280.992 321.054 280.764 321.625 280.664 322.357H284.733V322.199C284.687 321.484 284.496 320.945 284.162 320.582C283.828 320.213 283.365 320.028 282.773 320.028ZM290.49 318.49L290.552 319.589C291.255 318.739 292.178 318.314 293.32 318.314C295.301 318.314 296.309 319.448 296.344 321.716V328H294.208V321.839C294.208 321.235 294.076 320.79 293.812 320.503C293.555 320.21 293.13 320.063 292.538 320.063C291.677 320.063 291.035 320.453 290.613 321.232V328H288.478V318.49H290.49ZM301.204 316.179V318.49H302.883V320.072H301.204V325.381C301.204 325.744 301.274 326.008 301.415 326.172C301.562 326.33 301.819 326.409 302.188 326.409C302.435 326.409 302.684 326.38 302.936 326.321V327.974C302.449 328.108 301.98 328.176 301.529 328.176C299.889 328.176 299.068 327.271 299.068 325.46V320.072H297.504V318.49H299.068V316.179H301.204Z" fill="#232221"/>
<g filter="url(#filter0_d)">
<rect width="93" height="93" fill="black" fill-opacity="0" transform="translate(94 204)"/>
<rect width="93" height="93" fill="black" fill-opacity="0" transform="translate(94 204)"/>
<circle cx="140.5" cy="250.5" r="46.5" fill="#EEE9E9"/>
<rect width="50" height="37" fill="black" fill-opacity="0" transform="translate(116 232)"/>
<path fill-rule="evenodd" clip-rule="evenodd" d="M161.652 269H120.348C117.947 269 116 267.051 116 264.647V240.706C116 238.302 117.947 236.353 120.348 236.353H121.435C121.435 235.152 122.409 234.176 123.609 234.176H125.783C126.983 234.176 127.957 235.152 127.957 236.353H130.13C130.13 236.353 131.353 236.217 132.304 235.265L134.478 233.088C134.478 233.088 135.327 232 136.652 232H145.348C146.774 232 147.522 233.088 147.522 233.088L149.696 235.265C150.647 236.217 151.87 236.353 151.87 236.353H161.652C164.053 236.353 166 238.302 166 240.706V264.647C166 267.051 164.053 269 161.652 269ZM163.826 240.706C163.826 239.504 162.852 238.529 161.652 238.529L151.629 238.515C151.298 238.479 149.576 238.223 148.159 236.803L145.843 234.486L145.73 234.321C145.729 234.32 145.561 234.176 145.348 234.176H136.652C136.486 234.176 136.245 234.37 136.191 234.428L136.11 234.532L133.841 236.802C132.423 238.223 130.701 238.478 130.371 238.514L125.859 238.521C125.833 238.523 125.808 238.529 125.783 238.529H123.609C123.593 238.529 123.58 238.525 123.565 238.525L120.348 238.529C119.148 238.529 118.174 239.504 118.174 240.706V264.647C118.174 265.848 119.148 266.824 120.348 266.824H161.652C162.852 266.824 163.826 265.848 163.826 264.647V240.706ZM141 264.647C134.397 264.647 129.043 259.287 129.043 252.676C129.043 246.065 134.397 240.706 141 240.706C147.603 240.706 152.957 246.065 152.957 252.676C152.957 259.287 147.603 264.647 141 264.647ZM141 242.882C135.597 242.882 131.217 247.267 131.217 252.676C131.217 258.086 135.597 262.471 141 262.471C146.403 262.471 150.783 258.086 150.783 252.676C150.783 247.267 146.403 242.882 141 242.882ZM141 258.118C137.998 258.118 135.565 255.682 135.565 252.676C135.565 249.671 137.998 247.235 141 247.235C144.002 247.235 146.435 249.671 146.435 252.676C146.435 255.682 144.002 258.118 141 258.118ZM141 249.412C139.2 249.412 137.739 250.874 137.739 252.676C137.739 254.48 139.2 255.941 141 255.941C142.801 255.941 144.261 254.48 144.261 252.676C144.261 250.874 142.801 249.412 141 249.412ZM125.783 245.059H121.435C120.834 245.059 120.348 244.572 120.348 243.971V241.794C120.348 241.193 120.834 240.706 121.435 240.706H125.783C126.384 240.706 126.87 241.193 126.87 241.794V243.971C126.87 244.572 126.384 245.059 125.783 245.059Z" fill="black"/>
</g>
<g filter="url(#filter1_d)">
<rect x="55" y="469" width="296" height="52" fill="#99BA89"/>
</g>
<g filter="url(#filter2_d)">
<rect x="55" y="617" width="296" height="40" fill="#99BA89"/>
</g>
<g filter="url(#filter3_d)">
<rect x="55" y="543" width="296" height="52" fill="#99BA89"/>
</g>
<path d="M194.645 442.547C194.645 441.883 194.434 441.336 194.012 440.906C193.59 440.469 192.887 440.078 191.902 439.734C190.918 439.383 190.152 439.059 189.605 438.762C187.785 437.785 186.875 436.34 186.875 434.426C186.875 433.129 187.27 432.062 188.059 431.227C188.848 430.391 189.918 429.895 191.27 429.738V427.184H193.145V429.762C194.504 429.957 195.555 430.535 196.297 431.496C197.039 432.449 197.41 433.691 197.41 435.223H194.574C194.574 434.238 194.352 433.465 193.906 432.902C193.469 432.332 192.871 432.047 192.113 432.047C191.363 432.047 190.777 432.25 190.355 432.656C189.934 433.062 189.723 433.645 189.723 434.402C189.723 435.082 189.93 435.629 190.344 436.043C190.766 436.449 191.477 436.836 192.477 437.203C193.477 437.57 194.262 437.91 194.832 438.223C195.402 438.535 195.883 438.895 196.273 439.301C196.664 439.699 196.965 440.16 197.176 440.684C197.387 441.207 197.492 441.82 197.492 442.523C197.492 443.844 197.086 444.914 196.273 445.734C195.469 446.555 194.344 447.039 192.898 447.188V449.473H191.035V447.199C189.488 447.027 188.297 446.473 187.461 445.535C186.633 444.598 186.219 443.355 186.219 441.809H189.066C189.066 442.793 189.312 443.555 189.805 444.094C190.305 444.633 191.008 444.902 191.914 444.902C192.805 444.902 193.48 444.688 193.941 444.258C194.41 443.828 194.645 443.258 194.645 442.547ZM211.438 447H199.965V445.043L205.648 438.844C206.469 437.93 207.051 437.168 207.395 436.559C207.746 435.941 207.922 435.324 207.922 434.707C207.922 433.895 207.691 433.238 207.23 432.738C206.777 432.238 206.164 431.988 205.391 431.988C204.469 431.988 203.754 432.27 203.246 432.832C202.738 433.395 202.484 434.164 202.484 435.141H199.637C199.637 434.102 199.871 433.168 200.34 432.34C200.816 431.504 201.492 430.855 202.367 430.395C203.25 429.934 204.266 429.703 205.414 429.703C207.07 429.703 208.375 430.121 209.328 430.957C210.289 431.785 210.77 432.934 210.77 434.402C210.77 435.254 210.527 436.148 210.043 437.086C209.566 438.016 208.781 439.074 207.688 440.262L203.516 444.727H211.438V447ZM216.898 437.168H218.633C219.508 437.16 220.199 436.934 220.707 436.488C221.223 436.043 221.48 435.398 221.48 434.555C221.48 433.742 221.266 433.113 220.836 432.668C220.414 432.215 219.766 431.988 218.891 431.988C218.125 431.988 217.496 432.211 217.004 432.656C216.512 433.094 216.266 433.668 216.266 434.379H213.418C213.418 433.504 213.648 432.707 214.109 431.988C214.578 431.27 215.227 430.711 216.055 430.312C216.891 429.906 217.824 429.703 218.855 429.703C220.559 429.703 221.895 430.133 222.863 430.992C223.84 431.844 224.328 433.031 224.328 434.555C224.328 435.32 224.082 436.043 223.59 436.723C223.105 437.395 222.477 437.902 221.703 438.246C222.641 438.566 223.352 439.07 223.836 439.758C224.328 440.445 224.574 441.266 224.574 442.219C224.574 443.75 224.047 444.969 222.992 445.875C221.945 446.781 220.566 447.234 218.855 447.234C217.215 447.234 215.871 446.797 214.824 445.922C213.777 445.047 213.254 443.883 213.254 442.43H216.102C216.102 443.18 216.352 443.789 216.852 444.258C217.359 444.727 218.039 444.961 218.891 444.961C219.773 444.961 220.469 444.727 220.977 444.258C221.484 443.789 221.738 443.109 221.738 442.219C221.738 441.32 221.473 440.629 220.941 440.145C220.41 439.66 219.621 439.418 218.574 439.418H216.898V437.168ZM229.203 444C229.734 444 230.145 444.152 230.434 444.457C230.723 444.754 230.867 445.129 230.867 445.582C230.867 446.027 230.723 446.398 230.434 446.695C230.145 446.984 229.734 447.129 229.203 447.129C228.695 447.129 228.293 446.984 227.996 446.695C227.699 446.406 227.551 446.035 227.551 445.582C227.551 445.129 227.695 444.754 227.984 444.457C228.273 444.152 228.68 444 229.203 444ZM242.809 429.855V432.211H242.457C240.863 432.234 239.59 432.672 238.637 433.523C237.684 434.375 237.117 435.582 236.938 437.145C237.852 436.184 239.02 435.703 240.441 435.703C241.949 435.703 243.137 436.234 244.004 437.297C244.879 438.359 245.316 439.73 245.316 441.41C245.316 443.145 244.805 444.551 243.781 445.629C242.766 446.699 241.43 447.234 239.773 447.234C238.07 447.234 236.688 446.605 235.625 445.348C234.57 444.09 234.043 442.441 234.043 440.402V439.43C234.043 436.438 234.77 434.094 236.223 432.398C237.684 430.703 239.781 429.855 242.516 429.855H242.809ZM239.75 438C239.125 438 238.551 438.176 238.027 438.527C237.512 438.879 237.133 439.348 236.891 439.934V440.801C236.891 442.066 237.156 443.074 237.688 443.824C238.219 444.566 238.906 444.938 239.75 444.938C240.594 444.938 241.262 444.621 241.754 443.988C242.246 443.355 242.492 442.523 242.492 441.492C242.492 440.461 242.242 439.621 241.742 438.973C241.242 438.324 240.578 438 239.75 438ZM257.223 440.918H259.344V443.203H257.223V447H254.375V443.203H247.004L246.922 441.469L254.281 429.938H257.223V440.918ZM249.91 440.918H254.375V433.793L254.164 434.168L249.91 440.918Z" fill="#9AFE81"/>
<path d="M78.8174 502V489.203H83.2031C84.6504 489.203 85.752 489.493 86.5078 490.073C87.2637 490.653 87.6416 491.518 87.6416 492.666C87.6416 493.252 87.4834 493.779 87.167 494.248C86.8506 494.717 86.3877 495.08 85.7783 495.338C86.4697 495.525 87.0029 495.88 87.3779 496.401C87.7588 496.917 87.9492 497.538 87.9492 498.265C87.9492 499.466 87.5625 500.389 86.7891 501.033C86.0215 501.678 84.9199 502 83.4844 502H78.8174ZM81.041 496.226V500.225H83.5107C84.208 500.225 84.7529 500.052 85.1455 499.706C85.5381 499.36 85.7344 498.88 85.7344 498.265C85.7344 496.935 85.0547 496.255 83.6953 496.226H81.041ZM81.041 494.591H83.2207C83.9121 494.591 84.4512 494.436 84.8379 494.125C85.2305 493.809 85.4268 493.363 85.4268 492.789C85.4268 492.156 85.2451 491.699 84.8818 491.418C84.5244 491.137 83.9648 490.996 83.2031 490.996H81.041V494.591ZM90.5684 503.099H88.8896L93.9258 489.203H95.6045L90.5684 503.099ZM97.292 502V489.203H101.071C102.202 489.203 103.204 489.455 104.077 489.959C104.956 490.463 105.636 491.178 106.116 492.104C106.597 493.029 106.837 494.09 106.837 495.285V495.927C106.837 497.14 106.594 498.206 106.107 499.126C105.627 500.046 104.938 500.755 104.042 501.253C103.151 501.751 102.129 502 100.975 502H97.292ZM99.5156 490.996V500.225H100.966C102.132 500.225 103.025 499.861 103.646 499.135C104.273 498.402 104.593 497.354 104.604 495.988V495.276C104.604 493.888 104.303 492.827 103.699 492.095C103.096 491.362 102.22 490.996 101.071 490.996H99.5156ZM111.935 489.203L115.626 499.012L119.309 489.203H122.183V502H119.968V497.781L120.188 492.139L116.408 502H114.817L111.047 492.147L111.267 497.781V502H109.052V489.203H111.935ZM134.971 502H132.747L127.043 492.921V502H124.819V489.203H127.043L132.765 498.317V489.203H134.971V502ZM137.599 502V489.203H141.378C142.509 489.203 143.511 489.455 144.384 489.959C145.263 490.463 145.942 491.178 146.423 492.104C146.903 493.029 147.144 494.09 147.144 495.285V495.927C147.144 497.14 146.9 498.206 146.414 499.126C145.934 500.046 145.245 500.755 144.349 501.253C143.458 501.751 142.436 502 141.281 502H137.599ZM139.822 490.996V500.225H141.272C142.438 500.225 143.332 499.861 143.953 499.135C144.58 498.402 144.899 497.354 144.911 495.988V495.276C144.911 493.888 144.609 492.827 144.006 492.095C143.402 491.362 142.526 490.996 141.378 490.996H139.822ZM161.004 499.021H156.047L155.01 502H152.698L157.532 489.203H159.527L164.37 502H162.05L161.004 499.021ZM156.671 497.228H160.38L158.525 491.919L156.671 497.228ZM168.053 500.225H173.862V502H165.829V489.203H168.053V500.225ZM178.45 489.203L182.142 499.012L185.824 489.203H188.698V502H186.483V497.781L186.703 492.139L182.924 502H181.333L177.562 492.147L177.782 497.781V502H175.567V489.203H178.45ZM191.335 502V489.203H195.114C196.245 489.203 197.247 489.455 198.12 489.959C198.999 490.463 199.679 491.178 200.159 492.104C200.64 493.029 200.88 494.09 200.88 495.285V495.927C200.88 497.14 200.637 498.206 200.15 499.126C199.67 500.046 198.981 500.755 198.085 501.253C197.194 501.751 196.172 502 195.018 502H191.335ZM193.559 490.996V500.225H195.009C196.175 500.225 197.068 499.861 197.689 499.135C198.316 498.402 198.636 497.354 198.647 495.988V495.276C198.647 493.888 198.346 492.827 197.742 492.095C197.139 491.362 196.263 490.996 195.114 490.996H193.559ZM207.577 502V489.203H211.963C213.41 489.203 214.512 489.493 215.268 490.073C216.023 490.653 216.401 491.518 216.401 492.666C216.401 493.252 216.243 493.779 215.927 494.248C215.61 494.717 215.147 495.08 214.538 495.338C215.229 495.525 215.763 495.88 216.138 496.401C216.519 496.917 216.709 497.538 216.709 498.265C216.709 499.466 216.322 500.389 215.549 501.033C214.781 501.678 213.68 502 212.244 502H207.577ZM209.801 496.226V500.225H212.271C212.968 500.225 213.513 500.052 213.905 499.706C214.298 499.36 214.494 498.88 214.494 498.265C214.494 496.935 213.814 496.255 212.455 496.226H209.801ZM209.801 494.591H211.98C212.672 494.591 213.211 494.436 213.598 494.125C213.99 493.809 214.187 493.363 214.187 492.789C214.187 492.156 214.005 491.699 213.642 491.418C213.284 491.137 212.725 490.996 211.963 490.996H209.801V494.591ZM223.635 497.069H221.156V502H218.933V489.203H223.433C224.909 489.203 226.049 489.534 226.852 490.196C227.654 490.858 228.056 491.816 228.056 493.07C228.056 493.926 227.848 494.644 227.432 495.224C227.021 495.798 226.447 496.24 225.709 496.551L228.583 501.886V502H226.201L223.635 497.069ZM221.156 495.285H223.441C224.191 495.285 224.777 495.098 225.199 494.723C225.621 494.342 225.832 493.823 225.832 493.167C225.832 492.481 225.636 491.951 225.243 491.576C224.856 491.201 224.276 491.008 223.503 490.996H221.156V495.285ZM232.257 500.225H239.095V502H229.567V500.559L236.186 490.996H229.611V489.203H238.884V490.609L232.257 500.225ZM291.732 498.66C291.732 498.162 291.574 497.752 291.258 497.43C290.941 497.102 290.414 496.809 289.676 496.551C288.938 496.287 288.363 496.044 287.953 495.821C286.588 495.089 285.905 494.005 285.905 492.569C285.905 491.597 286.201 490.797 286.793 490.17C287.385 489.543 288.188 489.171 289.201 489.054V487.138H290.607V489.071C291.627 489.218 292.415 489.651 292.972 490.372C293.528 491.087 293.807 492.019 293.807 493.167H291.68C291.68 492.429 291.513 491.849 291.179 491.427C290.851 490.999 290.402 490.785 289.834 490.785C289.271 490.785 288.832 490.938 288.516 491.242C288.199 491.547 288.041 491.983 288.041 492.552C288.041 493.062 288.196 493.472 288.507 493.782C288.823 494.087 289.356 494.377 290.106 494.652C290.856 494.928 291.445 495.183 291.873 495.417C292.301 495.651 292.661 495.921 292.954 496.226C293.247 496.524 293.473 496.87 293.631 497.263C293.789 497.655 293.868 498.115 293.868 498.643C293.868 499.633 293.563 500.436 292.954 501.051C292.351 501.666 291.507 502.029 290.423 502.141V503.854H289.025V502.149C287.865 502.021 286.972 501.604 286.345 500.901C285.724 500.198 285.413 499.267 285.413 498.106H287.549C287.549 498.845 287.733 499.416 288.103 499.82C288.478 500.225 289.005 500.427 289.685 500.427C290.353 500.427 290.859 500.266 291.205 499.943C291.557 499.621 291.732 499.193 291.732 498.66ZM304.327 502H295.723V500.532L299.985 495.883C300.601 495.197 301.037 494.626 301.295 494.169C301.559 493.706 301.69 493.243 301.69 492.78C301.69 492.171 301.518 491.679 301.172 491.304C300.832 490.929 300.372 490.741 299.792 490.741C299.101 490.741 298.564 490.952 298.184 491.374C297.803 491.796 297.612 492.373 297.612 493.105H295.477C295.477 492.326 295.652 491.626 296.004 491.005C296.361 490.378 296.868 489.892 297.524 489.546C298.187 489.2 298.948 489.027 299.81 489.027C301.052 489.027 302.03 489.341 302.745 489.968C303.466 490.589 303.826 491.45 303.826 492.552C303.826 493.19 303.645 493.861 303.281 494.564C302.924 495.262 302.335 496.056 301.515 496.946L298.386 500.295H304.327V502ZM307.421 499.75C307.819 499.75 308.127 499.864 308.344 500.093C308.561 500.315 308.669 500.597 308.669 500.937C308.669 501.271 308.561 501.549 308.344 501.771C308.127 501.988 307.819 502.097 307.421 502.097C307.04 502.097 306.738 501.988 306.516 501.771C306.293 501.555 306.182 501.276 306.182 500.937C306.182 500.597 306.29 500.315 306.507 500.093C306.724 499.864 307.028 499.75 307.421 499.75ZM317.036 496.647C316.321 497.403 315.486 497.781 314.531 497.781C313.406 497.781 312.51 497.389 311.842 496.604C311.174 495.812 310.84 494.775 310.84 493.492C310.84 492.648 311.01 491.884 311.35 491.198C311.689 490.513 312.173 489.979 312.8 489.599C313.427 489.218 314.153 489.027 314.979 489.027C316.269 489.027 317.291 489.508 318.047 490.469C318.803 491.43 319.181 492.716 319.181 494.327V494.925C319.181 497.233 318.659 498.994 317.616 500.207C316.573 501.42 315.018 502.035 312.949 502.053H312.694V500.286H313.002C314.262 500.269 315.229 499.967 315.902 499.381C316.576 498.789 316.954 497.878 317.036 496.647ZM314.979 496.111C315.407 496.111 315.809 495.988 316.184 495.742C316.559 495.496 316.849 495.156 317.054 494.723V493.888C317.054 492.944 316.86 492.186 316.474 491.611C316.087 491.037 315.586 490.75 314.971 490.75C314.355 490.75 313.863 491.005 313.494 491.515C313.131 492.019 312.949 492.657 312.949 493.431C312.949 494.233 313.134 494.881 313.503 495.373C313.872 495.865 314.364 496.111 314.979 496.111ZM329.728 490.39L324.612 502H322.371L327.478 490.917H320.859V489.203H329.728V490.39Z" fill="white"/>
<path d="M85.7695 571.438H87.3604V573.152H85.7695V576H83.6338V573.152H78.1055L78.0439 571.852L83.5635 563.203H85.7695V571.438ZM80.2852 571.438H83.6338V566.095L83.4756 566.376L80.2852 571.438ZM98.8828 571.834C98.7539 573.199 98.25 574.266 97.3711 575.033C96.4922 575.795 95.3232 576.176 93.8643 576.176C92.8447 576.176 91.9453 575.936 91.166 575.455C90.3926 574.969 89.7949 574.28 89.373 573.39C88.9512 572.499 88.7314 571.465 88.7139 570.287V569.092C88.7139 567.885 88.9277 566.821 89.3555 565.901C89.7832 564.981 90.3955 564.272 91.1924 563.774C91.9951 563.276 92.9209 563.027 93.9697 563.027C95.3818 563.027 96.5186 563.411 97.3799 564.179C98.2412 564.946 98.7422 566.03 98.8828 567.431H96.668C96.5625 566.511 96.293 565.849 95.8594 565.444C95.4316 565.034 94.8018 564.829 93.9697 564.829C93.0029 564.829 92.2588 565.184 91.7373 565.893C91.2217 566.596 90.958 567.63 90.9463 568.995V570.129C90.9463 571.512 91.1924 572.566 91.6846 573.293C92.1826 574.02 92.9092 574.383 93.8643 574.383C94.7373 574.383 95.3936 574.187 95.833 573.794C96.2725 573.401 96.5508 572.748 96.668 571.834H98.8828ZM109.86 564.996H105.87V576H103.664V564.996H99.709V563.203H109.86V564.996ZM122.666 573.021H117.709L116.672 576H114.36L119.194 563.203H121.189L126.032 576H123.712L122.666 573.021ZM118.333 571.228H122.042L120.188 565.919L118.333 571.228ZM131.314 573.214L134.566 563.203H137.01L132.404 576H130.251L125.663 563.203H128.098L131.314 573.214ZM148.55 569.936C148.55 571.189 148.333 572.291 147.899 573.24C147.466 574.184 146.845 574.91 146.036 575.42C145.233 575.924 144.308 576.176 143.259 576.176C142.222 576.176 141.296 575.924 140.481 575.42C139.673 574.91 139.046 574.187 138.601 573.249C138.161 572.312 137.938 571.23 137.933 570.006V569.285C137.933 568.037 138.152 566.936 138.592 565.98C139.037 565.025 139.661 564.296 140.464 563.792C141.272 563.282 142.198 563.027 143.241 563.027C144.284 563.027 145.207 563.279 146.01 563.783C146.818 564.281 147.442 565.002 147.882 565.945C148.321 566.883 148.544 567.976 148.55 569.224V569.936ZM146.326 569.268C146.326 567.85 146.057 566.763 145.518 566.007C144.984 565.251 144.226 564.873 143.241 564.873C142.28 564.873 141.527 565.251 140.982 566.007C140.443 566.757 140.168 567.82 140.156 569.197V569.936C140.156 571.342 140.429 572.429 140.974 573.196C141.524 573.964 142.286 574.348 143.259 574.348C144.243 574.348 144.999 573.973 145.526 573.223C146.06 572.473 146.326 571.377 146.326 569.936V569.268ZM160.529 571.834C160.4 573.199 159.896 574.266 159.018 575.033C158.139 575.795 156.97 576.176 155.511 576.176C154.491 576.176 153.592 575.936 152.812 575.455C152.039 574.969 151.441 574.28 151.02 573.39C150.598 572.499 150.378 571.465 150.36 570.287V569.092C150.36 567.885 150.574 566.821 151.002 565.901C151.43 564.981 152.042 564.272 152.839 563.774C153.642 563.276 154.567 563.027 155.616 563.027C157.028 563.027 158.165 563.411 159.026 564.179C159.888 564.946 160.389 566.03 160.529 567.431H158.314C158.209 566.511 157.939 565.849 157.506 565.444C157.078 565.034 156.448 564.829 155.616 564.829C154.649 564.829 153.905 565.184 153.384 565.893C152.868 566.596 152.604 567.63 152.593 568.995V570.129C152.593 571.512 152.839 572.566 153.331 573.293C153.829 574.02 154.556 574.383 155.511 574.383C156.384 574.383 157.04 574.187 157.479 573.794C157.919 573.401 158.197 572.748 158.314 571.834H160.529ZM169.688 573.021H164.73L163.693 576H161.382L166.216 563.203H168.211L173.054 576H170.733L169.688 573.021ZM165.354 571.228H169.063L167.209 565.919L165.354 571.228ZM174.513 576V563.203H178.292C179.423 563.203 180.425 563.455 181.298 563.959C182.177 564.463 182.856 565.178 183.337 566.104C183.817 567.029 184.058 568.09 184.058 569.285V569.927C184.058 571.14 183.814 572.206 183.328 573.126C182.848 574.046 182.159 574.755 181.263 575.253C180.372 575.751 179.35 576 178.195 576H174.513ZM176.736 564.996V574.225H178.187C179.353 574.225 180.246 573.861 180.867 573.135C181.494 572.402 181.813 571.354 181.825 569.988V569.276C181.825 567.888 181.523 566.827 180.92 566.095C180.316 565.362 179.44 564.996 178.292 564.996H176.736ZM196.485 569.936C196.485 571.189 196.269 572.291 195.835 573.24C195.401 574.184 194.78 574.91 193.972 575.42C193.169 575.924 192.243 576.176 191.194 576.176C190.157 576.176 189.231 575.924 188.417 575.42C187.608 574.91 186.981 574.187 186.536 573.249C186.097 572.312 185.874 571.23 185.868 570.006V569.285C185.868 568.037 186.088 566.936 186.527 565.98C186.973 565.025 187.597 564.296 188.399 563.792C189.208 563.282 190.134 563.027 191.177 563.027C192.22 563.027 193.143 563.279 193.945 563.783C194.754 564.281 195.378 565.002 195.817 565.945C196.257 566.883 196.479 567.976 196.485 569.224V569.936ZM194.262 569.268C194.262 567.85 193.992 566.763 193.453 566.007C192.92 565.251 192.161 564.873 191.177 564.873C190.216 564.873 189.463 565.251 188.918 566.007C188.379 566.757 188.104 567.82 188.092 569.197V569.936C188.092 571.342 188.364 572.429 188.909 573.196C189.46 573.964 190.222 574.348 191.194 574.348C192.179 574.348 192.935 573.973 193.462 573.223C193.995 572.473 194.262 571.377 194.262 569.936V569.268ZM205.389 572.704C205.389 572.142 205.189 571.708 204.791 571.403C204.398 571.099 203.687 570.791 202.655 570.48C201.624 570.17 200.804 569.824 200.194 569.443C199.028 568.711 198.445 567.756 198.445 566.578C198.445 565.547 198.864 564.697 199.702 564.029C200.546 563.361 201.639 563.027 202.98 563.027C203.871 563.027 204.665 563.191 205.362 563.52C206.06 563.848 206.607 564.316 207.006 564.926C207.404 565.529 207.604 566.2 207.604 566.938H205.389C205.389 566.271 205.178 565.749 204.756 565.374C204.34 564.993 203.742 564.803 202.963 564.803C202.236 564.803 201.671 564.958 201.267 565.269C200.868 565.579 200.669 566.013 200.669 566.569C200.669 567.038 200.886 567.431 201.319 567.747C201.753 568.058 202.468 568.362 203.464 568.661C204.46 568.954 205.26 569.291 205.863 569.672C206.467 570.047 206.909 570.48 207.19 570.973C207.472 571.459 207.612 572.03 207.612 572.687C207.612 573.753 207.202 574.603 206.382 575.235C205.567 575.862 204.46 576.176 203.06 576.176C202.134 576.176 201.281 576.006 200.502 575.666C199.729 575.32 199.125 574.846 198.691 574.242C198.264 573.639 198.05 572.936 198.05 572.133H200.273C200.273 572.859 200.514 573.422 200.994 573.82C201.475 574.219 202.163 574.418 203.06 574.418C203.833 574.418 204.413 574.263 204.8 573.952C205.192 573.636 205.389 573.22 205.389 572.704ZM291.662 572.66C291.662 572.162 291.504 571.752 291.188 571.43C290.871 571.102 290.344 570.809 289.605 570.551C288.867 570.287 288.293 570.044 287.883 569.821C286.518 569.089 285.835 568.005 285.835 566.569C285.835 565.597 286.131 564.797 286.723 564.17C287.314 563.543 288.117 563.171 289.131 563.054V561.138H290.537V563.071C291.557 563.218 292.345 563.651 292.901 564.372C293.458 565.087 293.736 566.019 293.736 567.167H291.609C291.609 566.429 291.442 565.849 291.108 565.427C290.78 564.999 290.332 564.785 289.764 564.785C289.201 564.785 288.762 564.938 288.445 565.242C288.129 565.547 287.971 565.983 287.971 566.552C287.971 567.062 288.126 567.472 288.437 567.782C288.753 568.087 289.286 568.377 290.036 568.652C290.786 568.928 291.375 569.183 291.803 569.417C292.23 569.651 292.591 569.921 292.884 570.226C293.177 570.524 293.402 570.87 293.561 571.263C293.719 571.655 293.798 572.115 293.798 572.643C293.798 573.633 293.493 574.436 292.884 575.051C292.28 575.666 291.437 576.029 290.353 576.141V577.854H288.955V576.149C287.795 576.021 286.901 575.604 286.274 574.901C285.653 574.198 285.343 573.267 285.343 572.106H287.479C287.479 572.845 287.663 573.416 288.032 573.82C288.407 574.225 288.935 574.427 289.614 574.427C290.282 574.427 290.789 574.266 291.135 573.943C291.486 573.621 291.662 573.193 291.662 572.66ZM301.436 576H299.309V565.726L296.171 566.798V564.996L301.163 563.159H301.436V576ZM307.351 573.75C307.749 573.75 308.057 573.864 308.273 574.093C308.49 574.315 308.599 574.597 308.599 574.937C308.599 575.271 308.49 575.549 308.273 575.771C308.057 575.988 307.749 576.097 307.351 576.097C306.97 576.097 306.668 575.988 306.445 575.771C306.223 575.555 306.111 575.276 306.111 574.937C306.111 574.597 306.22 574.315 306.437 574.093C306.653 573.864 306.958 573.75 307.351 573.75ZM316.966 570.647C316.251 571.403 315.416 571.781 314.461 571.781C313.336 571.781 312.439 571.389 311.771 570.604C311.104 569.812 310.77 568.775 310.77 567.492C310.77 566.648 310.939 565.884 311.279 565.198C311.619 564.513 312.103 563.979 312.729 563.599C313.356 563.218 314.083 563.027 314.909 563.027C316.198 563.027 317.221 563.508 317.977 564.469C318.732 565.43 319.11 566.716 319.11 568.327V568.925C319.11 571.233 318.589 572.994 317.546 574.207C316.503 575.42 314.947 576.035 312.879 576.053H312.624V574.286H312.932C314.191 574.269 315.158 573.967 315.832 573.381C316.506 572.789 316.884 571.878 316.966 570.647ZM314.909 570.111C315.337 570.111 315.738 569.988 316.113 569.742C316.488 569.496 316.778 569.156 316.983 568.723V567.888C316.983 566.944 316.79 566.186 316.403 565.611C316.017 565.037 315.516 564.75 314.9 564.75C314.285 564.75 313.793 565.005 313.424 565.515C313.061 566.019 312.879 566.657 312.879 567.431C312.879 568.233 313.063 568.881 313.433 569.373C313.802 569.865 314.294 570.111 314.909 570.111ZM329.2 566.578C329.2 567.205 329.039 567.765 328.717 568.257C328.395 568.743 327.955 569.127 327.398 569.408C328.066 569.719 328.579 570.144 328.937 570.683C329.3 571.222 329.481 571.831 329.481 572.511C329.481 573.636 329.101 574.529 328.339 575.191C327.577 575.848 326.563 576.176 325.298 576.176C324.026 576.176 323.007 575.845 322.239 575.183C321.478 574.521 321.097 573.63 321.097 572.511C321.097 571.825 321.278 571.21 321.642 570.665C322.005 570.12 322.515 569.701 323.171 569.408C322.62 569.127 322.184 568.743 321.861 568.257C321.545 567.765 321.387 567.205 321.387 566.578C321.387 565.488 321.738 564.624 322.441 563.985C323.145 563.347 324.094 563.027 325.289 563.027C326.49 563.027 327.442 563.347 328.146 563.985C328.849 564.624 329.2 565.488 329.2 566.578ZM327.346 572.405C327.346 571.772 327.155 571.263 326.774 570.876C326.399 570.483 325.901 570.287 325.28 570.287C324.659 570.287 324.161 570.48 323.786 570.867C323.417 571.254 323.232 571.767 323.232 572.405C323.232 573.032 323.414 573.533 323.777 573.908C324.146 574.283 324.653 574.471 325.298 574.471C325.942 574.471 326.443 574.289 326.801 573.926C327.164 573.562 327.346 573.056 327.346 572.405ZM327.073 566.657C327.073 566.101 326.912 565.644 326.59 565.286C326.268 564.923 325.834 564.741 325.289 564.741C324.744 564.741 324.313 564.914 323.997 565.26C323.681 565.6 323.522 566.065 323.522 566.657C323.522 567.243 323.681 567.709 323.997 568.055C324.319 568.4 324.753 568.573 325.298 568.573C325.843 568.573 326.273 568.4 326.59 568.055C326.912 567.709 327.073 567.243 327.073 566.657Z" fill="white"/>
<rect width="405" height="751" fill="black" fill-opacity="0"/>
<rect width="405" height="751" fill="black" fill-opacity="0"/>
<path d="M380.997 637.129H23.9758V58.6816H380.997V637.129ZM174.704 695.864C174.704 679.961 187.482 667.06 203.247 667.06C219.017 667.06 231.789 679.961 231.789 695.864C231.789 711.762 219.017 724.685 203.247 724.685C187.482 724.664 174.704 711.762 174.704 695.864ZM404.951 722.007H405V28.7831V28.7777V28.6375H404.989C404.914 12.8098 392.066 0 376.204 0C376.091 0 375.999 0.0107782 375.897 0.0107782V0H311.216H122.515H28.7688C12.9287 0.0107782 0.0916516 12.8206 0.00538848 28.6375H0V722.001H0.043149C0.0323661 722.303 0 722.6 0 722.912C0 738.422 13.0419 751 29.1354 751C29.3726 751 29.6044 750.968 29.8416 750.962V751H376.598C392.255 751 404.995 738.427 404.995 722.912C405 722.605 404.962 722.303 404.951 722.007Z" fill="#161515"/>
<rect width="30.5115" height="24.717" fill="black" fill-opacity="0" transform="translate(141 425)"/>
<path d="M167.818 441.14L171.425 430.344C171.606 429.825 171.469 429.513 171.323 429.307C170.949 428.78 170.18 428.775 170.031 428.775L149.646 428.771L149.102 426.19C148.955 425.581 148.521 425 147.646 425H141.917C141.323 425 141 425.278 141 425.833V427.323C141 427.86 141.322 428 141.938 428H146.775L150.477 443.717C149.889 444.34 149.569 445.248 149.569 446.095C149.569 447.959 151.053 449.677 152.949 449.677C154.739 449.677 156.081 448 156.299 447H163.509C163.727 448 164.814 449.717 166.858 449.717C168.721 449.717 170.236 448.103 170.236 446.242C170.236 444.391 169.111 442.75 166.877 442.75C165.948 442.75 164.846 443.25 164.334 444H155.475C154.832 443 153.954 442.69 153.066 442.655L152.943 442H166.422C167.438 442 167.638 441.63 167.818 441.14ZM166.883 444.931C167.584 444.931 168.153 445.5 168.153 446.201C168.153 446.902 167.584 447.471 166.883 447.471C166.182 447.471 165.612 446.903 165.612 446.201C165.613 445.5 166.182 444.931 166.883 444.931ZM154.205 446.201C154.205 446.91 153.629 447.487 152.922 447.487C152.213 447.485 151.636 446.91 151.636 446.201C151.636 445.492 152.213 444.915 152.922 444.915C153.629 444.915 154.205 445.492 154.205 446.201Z" fill="#9AFE81"/>
<g filter="url(#filter4_d)">
<rect x="24" y="59" width="357" height="80" fill="#73B176"/>
</g>
<path d="M168.84 99.3711C168.697 100.888 168.137 102.073 167.16 102.926C166.184 103.772 164.885 104.195 163.264 104.195C162.131 104.195 161.132 103.928 160.266 103.395C159.406 102.854 158.742 102.089 158.273 101.1C157.805 100.11 157.561 98.9609 157.541 97.6523V96.3242C157.541 94.9831 157.779 93.8014 158.254 92.7793C158.729 91.7572 159.41 90.9694 160.295 90.416C161.187 89.8626 162.215 89.5859 163.381 89.5859C164.95 89.5859 166.213 90.0124 167.17 90.8652C168.127 91.7181 168.684 92.9225 168.84 94.4785H166.379C166.262 93.4564 165.962 92.7207 165.48 92.2715C165.005 91.8158 164.305 91.5879 163.381 91.5879C162.307 91.5879 161.48 91.9818 160.9 92.7695C160.327 93.5508 160.035 94.6999 160.021 96.2168V97.4766C160.021 99.013 160.295 100.185 160.842 100.992C161.395 101.799 162.202 102.203 163.264 102.203C164.234 102.203 164.963 101.985 165.451 101.549C165.939 101.113 166.249 100.387 166.379 99.3711H168.84ZM177.141 104C177.036 103.798 176.945 103.469 176.867 103.014C176.112 103.801 175.188 104.195 174.094 104.195C173.033 104.195 172.167 103.893 171.496 103.287C170.826 102.682 170.49 101.933 170.49 101.041C170.49 99.9147 170.907 99.0521 171.74 98.4531C172.58 97.8477 173.778 97.5449 175.334 97.5449H176.789V96.8516C176.789 96.3047 176.636 95.8685 176.33 95.543C176.024 95.2109 175.559 95.0449 174.934 95.0449C174.393 95.0449 173.951 95.1816 173.605 95.4551C173.26 95.722 173.088 96.0638 173.088 96.4805H170.715C170.715 95.901 170.907 95.3607 171.291 94.8594C171.675 94.3516 172.196 93.9544 172.854 93.668C173.518 93.3815 174.257 93.2383 175.07 93.2383C176.307 93.2383 177.294 93.5508 178.029 94.1758C178.765 94.7943 179.143 95.6667 179.162 96.793V101.559C179.162 102.509 179.296 103.268 179.562 103.834V104H177.141ZM174.533 102.291C175.002 102.291 175.441 102.177 175.852 101.949C176.268 101.721 176.581 101.415 176.789 101.031V99.0391H175.51C174.631 99.0391 173.97 99.1921 173.527 99.498C173.085 99.804 172.863 100.237 172.863 100.797C172.863 101.253 173.013 101.617 173.312 101.891C173.618 102.158 174.025 102.291 174.533 102.291ZM187.18 95.6016C186.867 95.5495 186.545 95.5234 186.213 95.5234C185.126 95.5234 184.393 95.9401 184.016 96.7734V104H181.643V93.4336H183.908L183.967 94.6152C184.54 93.6973 185.334 93.2383 186.35 93.2383C186.688 93.2383 186.968 93.2839 187.189 93.375L187.18 95.6016ZM192.141 90.8652V93.4336H194.006V95.1914H192.141V101.09C192.141 101.493 192.219 101.786 192.375 101.969C192.538 102.145 192.824 102.232 193.234 102.232C193.508 102.232 193.785 102.2 194.064 102.135V103.971C193.524 104.12 193.003 104.195 192.502 104.195C190.679 104.195 189.768 103.189 189.768 101.178V95.1914H188.029V93.4336H189.768V90.8652H192.141ZM195.09 98.6191C195.09 97.584 195.295 96.653 195.705 95.8262C196.115 94.9928 196.691 94.3548 197.434 93.9121C198.176 93.4629 199.029 93.2383 199.992 93.2383C201.418 93.2383 202.574 93.6973 203.459 94.6152C204.351 95.5332 204.833 96.7507 204.904 98.2676L204.914 98.8242C204.914 99.8659 204.712 100.797 204.309 101.617C203.911 102.438 203.339 103.072 202.59 103.521C201.848 103.971 200.988 104.195 200.012 104.195C198.521 104.195 197.326 103.701 196.428 102.711C195.536 101.715 195.09 100.39 195.09 98.7363V98.6191ZM197.463 98.8242C197.463 99.9115 197.688 100.764 198.137 101.383C198.586 101.995 199.211 102.301 200.012 102.301C200.812 102.301 201.434 101.988 201.877 101.363C202.326 100.738 202.551 99.8236 202.551 98.6191C202.551 97.5514 202.32 96.7051 201.857 96.0801C201.402 95.4551 200.78 95.1426 199.992 95.1426C199.217 95.1426 198.602 95.4518 198.146 96.0703C197.691 96.6823 197.463 97.6003 197.463 98.8242ZM218.439 104H215.979V97.6816H209.621V104H207.15V89.7812H209.621V95.6992H215.979V89.7812H218.439V104ZM220.695 98.6191C220.695 97.584 220.9 96.653 221.311 95.8262C221.721 94.9928 222.297 94.3548 223.039 93.9121C223.781 93.4629 224.634 93.2383 225.598 93.2383C227.023 93.2383 228.179 93.6973 229.064 94.6152C229.956 95.5332 230.438 96.7507 230.51 98.2676L230.52 98.8242C230.52 99.8659 230.318 100.797 229.914 101.617C229.517 102.438 228.944 103.072 228.195 103.521C227.453 103.971 226.594 104.195 225.617 104.195C224.126 104.195 222.932 103.701 222.033 102.711C221.141 101.715 220.695 100.39 220.695 98.7363V98.6191ZM223.068 98.8242C223.068 99.9115 223.293 100.764 223.742 101.383C224.191 101.995 224.816 102.301 225.617 102.301C226.418 102.301 227.04 101.988 227.482 101.363C227.932 100.738 228.156 99.8236 228.156 98.6191C228.156 97.5514 227.925 96.7051 227.463 96.0801C227.007 95.4551 226.385 95.1426 225.598 95.1426C224.823 95.1426 224.208 95.4518 223.752 96.0703C223.296 96.6823 223.068 97.6003 223.068 98.8242ZM234.758 93.4336L234.826 94.5371C235.568 93.6712 236.584 93.2383 237.873 93.2383C239.286 93.2383 240.253 93.7786 240.773 94.8594C241.542 93.7786 242.622 93.2383 244.016 93.2383C245.181 93.2383 246.047 93.5605 246.613 94.2051C247.186 94.8496 247.479 95.8001 247.492 97.0566V104H245.119V97.125C245.119 96.4544 244.973 95.9629 244.68 95.6504C244.387 95.3379 243.902 95.1816 243.225 95.1816C242.684 95.1816 242.242 95.3281 241.896 95.6211C241.558 95.9076 241.32 96.2852 241.184 96.7539L241.193 104H238.82V97.0469C238.788 95.8034 238.153 95.1816 236.916 95.1816C235.965 95.1816 235.292 95.569 234.895 96.3438V104H232.521V93.4336H234.758ZM254.582 104.195C253.078 104.195 251.857 103.723 250.92 102.779C249.989 101.829 249.523 100.566 249.523 98.9902V98.6973C249.523 97.6426 249.725 96.7018 250.129 95.875C250.539 95.0417 251.112 94.3939 251.848 93.9316C252.583 93.4694 253.404 93.2383 254.309 93.2383C255.747 93.2383 256.857 93.6973 257.639 94.6152C258.426 95.5332 258.82 96.832 258.82 98.5117V99.4688H251.916C251.988 100.341 252.277 101.031 252.785 101.539C253.299 102.047 253.944 102.301 254.719 102.301C255.806 102.301 256.691 101.861 257.375 100.982L258.654 102.203C258.231 102.835 257.665 103.326 256.955 103.678C256.252 104.023 255.461 104.195 254.582 104.195ZM254.299 95.1426C253.648 95.1426 253.12 95.3704 252.717 95.8262C252.32 96.2819 252.066 96.9167 251.955 97.7305H256.477V97.5547C256.424 96.7604 256.213 96.1615 255.842 95.7578C255.471 95.3477 254.956 95.1426 254.299 95.1426Z" fill="white"/>
<g filter="url(#filter5_d)">
<rect width="93" height="93" fill="black" fill-opacity="0" transform="translate(220 204)"/>
<circle cx="266.5" cy="250.5" r="46.5" fill="#EEE9E9"/>
<rect width="52" height="37" fill="black" fill-opacity="0" transform="translate(240 233)"/>
<path fill-rule="evenodd" clip-rule="evenodd" d="M287.478 270H244.522C242.025 270 240 267.929 240 265.375V237.625C240 235.071 242.025 233 244.522 233H287.478C289.975 233 292 235.071 292 237.625V265.375C292 267.929 289.975 270 287.478 270ZM242.261 248.031H289.739V243.406H242.261V248.031ZM289.739 237.625C289.739 236.349 288.726 235.312 287.478 235.312H244.522C243.274 235.312 242.261 236.349 242.261 237.625V241.094H289.739V237.625ZM289.739 250.344H242.261V265.375C242.261 266.651 243.274 267.688 244.522 267.688H287.478C288.726 267.688 289.739 266.651 289.739 265.375V250.344ZM268.261 257.281H263.739C263.114 257.281 262.609 256.764 262.609 256.125C262.609 255.487 263.114 254.969 263.739 254.969H268.261C268.886 254.969 269.391 255.487 269.391 256.125C269.391 256.764 268.886 257.281 268.261 257.281ZM258.087 257.281H247.913C247.288 257.281 246.783 256.764 246.783 256.125C246.783 255.487 247.288 254.969 247.913 254.969H258.087C258.712 254.969 259.217 255.487 259.217 256.125C259.217 256.764 258.712 257.281 258.087 257.281ZM247.913 260.75H254.696C255.321 260.75 255.826 261.268 255.826 261.906C255.826 262.546 255.321 263.062 254.696 263.062H247.913C247.288 263.062 246.783 262.546 246.783 261.906C246.783 261.268 247.288 260.75 247.913 260.75Z" fill="black"/>
</g>
<rect width="21" height="21" fill="black" fill-opacity="0" transform="translate(336 88)"/>
<path d="M351.34 100.797C352.16 99.5062 352.641 97.975 352.641 96.3289C352.641 91.7297 348.917 88 344.323 88C339.724 88 336 91.7297 336 96.3289C336 100.928 339.724 104.658 344.318 104.658C345.986 104.658 347.539 104.166 348.841 103.323L349.218 103.061L355.157 109L357 107.124L351.066 101.185L351.34 100.797ZM348.983 91.675C350.224 92.9164 350.908 94.568 350.908 96.3234C350.908 98.0789 350.224 99.7305 348.983 100.972C347.741 102.213 346.09 102.897 344.334 102.897C342.579 102.897 340.927 102.213 339.686 100.972C338.445 99.7305 337.761 98.0789 337.761 96.3234C337.761 94.568 338.445 92.9164 339.686 91.675C340.927 90.4336 342.579 89.75 344.334 89.75C346.09 89.75 347.741 90.4336 348.983 91.675Z" fill="white"/>
<line x1="96" y1="339" x2="189" y2="339" stroke="#9AFE81" stroke-width="4"/>
<rect width="44" height="44" fill="black" fill-opacity="0" transform="translate(33 77)"/>
<path d="M61.2608 107.406L52.855 99L61.2608 90.5942L58.6667 88L47.6667 99L58.6667 110L61.2608 107.406Z" fill="white"/>
<defs>
<filter id="filter0_d" x="90" y="204" width="101" height="101" filterUnits="userSpaceOnUse" color-interpolation-filters="sRGB">
<feFlood flood-opacity="0" result="BackgroundImageFix"/>
<feColorMatrix in="SourceAlpha" type="matrix" values="0 0 0 0 0 0 0 0 0 0 0 0 0 0 0 0 0 0 127 0"/>
<feOffset dy="4"/>
<feGaussianBlur stdDeviation="2"/>
<feColorMatrix type="matrix" values="0 0 0 0 0 0 0 0 0 0 0 0 0 0 0 0 0 0 0.25 0"/>
<feBlend mode="normal" in2="BackgroundImageFix" result="effect1_dropShadow"/>
<feBlend mode="normal" in="SourceGraphic" in2="effect1_dropShadow" result="shape"/>
</filter>
<filter id="filter1_d" x="51" y="469" width="304" height="60" filterUnits="userSpaceOnUse" color-interpolation-filters="sRGB">
<feFlood flood-opacity="0" result="BackgroundImageFix"/>
<feColorMatrix in="SourceAlpha" type="matrix" values="0 0 0 0 0 0 0 0 0 0 0 0 0 0 0 0 0 0 127 0"/>
<feOffset dy="4"/>
<feGaussianBlur stdDeviation="2"/>
<feColorMatrix type="matrix" values="0 0 0 0 0 0 0 0 0 0 0 0 0 0 0 0 0 0 0.25 0"/>
<feBlend mode="normal" in2="BackgroundImageFix" result="effect1_dropShadow"/>
<feBlend mode="normal" in="SourceGraphic" in2="effect1_dropShadow" result="shape"/>
</filter>
<filter id="filter2_d" x="51" y="617" width="304" height="48" filterUnits="userSpaceOnUse" color-interpolation-filters="sRGB">
<feFlood flood-opacity="0" result="BackgroundImageFix"/>
<feColorMatrix in="SourceAlpha" type="matrix" values="0 0 0 0 0 0 0 0 0 0 0 0 0 0 0 0 0 0 127 0"/>
<feOffset dy="4"/>
<feGaussianBlur stdDeviation="2"/>
<feColorMatrix type="matrix" values="0 0 0 0 0 0 0 0 0 0 0 0 0 0 0 0 0 0 0.25 0"/>
<feBlend mode="normal" in2="BackgroundImageFix" result="effect1_dropShadow"/>
<feBlend mode="normal" in="SourceGraphic" in2="effect1_dropShadow" result="shape"/>
</filter>
<filter id="filter3_d" x="51" y="543" width="304" height="60" filterUnits="userSpaceOnUse" color-interpolation-filters="sRGB">
<feFlood flood-opacity="0" result="BackgroundImageFix"/>
<feColorMatrix in="SourceAlpha" type="matrix" values="0 0 0 0 0 0 0 0 0 0 0 0 0 0 0 0 0 0 127 0"/>
<feOffset dy="4"/>
<feGaussianBlur stdDeviation="2"/>
<feColorMatrix type="matrix" values="0 0 0 0 0 0 0 0 0 0 0 0 0 0 0 0 0 0 0.25 0"/>
<feBlend mode="normal" in2="BackgroundImageFix" result="effect1_dropShadow"/>
<feBlend mode="normal" in="SourceGraphic" in2="effect1_dropShadow" result="shape"/>
</filter>
<filter id="filter4_d" x="18" y="57" width="369" height="92" filterUnits="userSpaceOnUse" color-interpolation-filters="sRGB">
<feFlood flood-opacity="0" result="BackgroundImageFix"/>
<feColorMatrix in="SourceAlpha" type="matrix" values="0 0 0 0 0 0 0 0 0 0 0 0 0 0 0 0 0 0 127 0"/>
<feOffset dy="4"/>
<feGaussianBlur stdDeviation="3"/>
<feColorMatrix type="matrix" values="0 0 0 0 0 0 0 0 0 0 0 0 0 0 0 0 0 0 0.1 0"/>
<feBlend mode="normal" in2="BackgroundImageFix" result="effect1_dropShadow"/>
<feBlend mode="normal" in="SourceGraphic" in2="effect1_dropShadow" result="shape"/>
</filter>
<filter id="filter5_d" x="216" y="204" width="101" height="101" filterUnits="userSpaceOnUse" color-interpolation-filters="sRGB">
<feFlood flood-opacity="0" result="BackgroundImageFix"/>
<feColorMatrix in="SourceAlpha" type="matrix" values="0 0 0 0 0 0 0 0 0 0 0 0 0 0 0 0 0 0 127 0"/>
<feOffset dy="4"/>
<feGaussianBlur stdDeviation="2"/>
<feColorMatrix type="matrix" values="0 0 0 0 0 0 0 0 0 0 0 0 0 0 0 0 0 0 0.25 0"/>
<feBlend mode="normal" in2="BackgroundImageFix" result="effect1_dropShadow"/>
<feBlend mode="normal" in="SourceGraphic" in2="effect1_dropShadow" result="shape"/>
</filter>
</defs>
</svg>
