<svg width="405" height="751" viewBox="0 0 405 751" fill="none" xmlns="http://www.w3.org/2000/svg">
<rect width="405" height="751" fill="black" fill-opacity="0"/>
<rect width="357" height="610" fill="black" fill-opacity="0" transform="translate(24 59)"/>
<rect x="24" y="59" width="357" height="584" fill="#5E9561"/>
<path d="M137.231 178.416C137.231 178.035 137.073 177.745 136.757 177.546C136.446 177.347 135.928 177.171 135.201 177.019C134.475 176.866 133.868 176.673 133.382 176.438C132.315 175.923 131.782 175.176 131.782 174.197C131.782 173.377 132.128 172.691 132.819 172.141C133.511 171.59 134.39 171.314 135.456 171.314C136.593 171.314 137.51 171.596 138.207 172.158C138.91 172.721 139.262 173.45 139.262 174.347H137.126C137.126 173.937 136.974 173.597 136.669 173.327C136.364 173.052 135.96 172.914 135.456 172.914C134.987 172.914 134.604 173.022 134.305 173.239C134.012 173.456 133.865 173.746 133.865 174.109C133.865 174.438 134.003 174.692 134.278 174.874C134.554 175.056 135.11 175.24 135.948 175.428C136.786 175.609 137.442 175.829 137.917 176.087C138.397 176.339 138.752 176.644 138.98 177.001C139.215 177.358 139.332 177.792 139.332 178.302C139.332 179.157 138.978 179.852 138.269 180.385C137.56 180.912 136.631 181.176 135.482 181.176C134.703 181.176 134.009 181.035 133.399 180.754C132.79 180.473 132.315 180.086 131.976 179.594C131.636 179.102 131.466 178.571 131.466 178.003H133.54C133.569 178.507 133.76 178.896 134.111 179.172C134.463 179.441 134.929 179.576 135.509 179.576C136.071 179.576 136.499 179.471 136.792 179.26C137.085 179.043 137.231 178.762 137.231 178.416ZM145.106 179.471C145.64 179.471 146.082 179.315 146.434 179.005C146.785 178.694 146.973 178.311 146.996 177.854H149.009C148.985 178.445 148.801 178.999 148.455 179.515C148.109 180.024 147.641 180.429 147.049 180.728C146.457 181.026 145.818 181.176 145.133 181.176C143.803 181.176 142.748 180.745 141.969 179.884C141.189 179.022 140.8 177.833 140.8 176.315V176.096C140.8 174.648 141.187 173.491 141.96 172.624C142.733 171.751 143.788 171.314 145.124 171.314C146.255 171.314 147.175 171.646 147.884 172.308C148.599 172.964 148.974 173.828 149.009 174.9H146.996C146.973 174.355 146.785 173.907 146.434 173.556C146.088 173.204 145.646 173.028 145.106 173.028C144.415 173.028 143.882 173.28 143.507 173.784C143.132 174.282 142.941 175.041 142.936 176.061V176.403C142.936 177.435 143.12 178.205 143.489 178.715C143.864 179.219 144.403 179.471 145.106 179.471ZM156.304 181C156.21 180.818 156.128 180.522 156.058 180.112C155.378 180.821 154.546 181.176 153.562 181.176C152.606 181.176 151.827 180.903 151.224 180.358C150.62 179.813 150.318 179.14 150.318 178.337C150.318 177.323 150.693 176.547 151.443 176.008C152.199 175.463 153.277 175.19 154.678 175.19H155.987V174.566C155.987 174.074 155.85 173.682 155.574 173.389C155.299 173.09 154.88 172.94 154.317 172.94C153.831 172.94 153.433 173.063 153.122 173.31C152.812 173.55 152.656 173.857 152.656 174.232H150.521C150.521 173.711 150.693 173.225 151.039 172.773C151.385 172.316 151.854 171.959 152.445 171.701C153.043 171.443 153.708 171.314 154.44 171.314C155.554 171.314 156.441 171.596 157.104 172.158C157.766 172.715 158.105 173.5 158.123 174.514V178.803C158.123 179.658 158.243 180.341 158.483 180.851V181H156.304ZM153.957 179.462C154.379 179.462 154.774 179.359 155.144 179.154C155.519 178.949 155.8 178.674 155.987 178.328V176.535H154.836C154.045 176.535 153.45 176.673 153.052 176.948C152.653 177.224 152.454 177.613 152.454 178.117C152.454 178.527 152.589 178.855 152.858 179.102C153.134 179.342 153.5 179.462 153.957 179.462ZM162.342 171.49L162.403 172.589C163.106 171.739 164.029 171.314 165.172 171.314C167.152 171.314 168.16 172.448 168.195 174.716V181H166.06V174.839C166.06 174.235 165.928 173.79 165.664 173.503C165.406 173.21 164.981 173.063 164.39 173.063C163.528 173.063 162.887 173.453 162.465 174.232V181H160.329V171.49H162.342ZM177.134 181H174.998V171.49H177.134V181ZM174.866 169.021C174.866 168.692 174.969 168.42 175.174 168.203C175.385 167.986 175.684 167.878 176.07 167.878C176.457 167.878 176.756 167.986 176.967 168.203C177.178 168.42 177.283 168.692 177.283 169.021C177.283 169.343 177.178 169.612 176.967 169.829C176.756 170.04 176.457 170.146 176.07 170.146C175.684 170.146 175.385 170.04 175.174 169.829C174.969 169.612 174.866 169.343 174.866 169.021ZM182.144 169.179V171.49H183.822V173.072H182.144V178.381C182.144 178.744 182.214 179.008 182.354 179.172C182.501 179.33 182.759 179.409 183.128 179.409C183.374 179.409 183.623 179.38 183.875 179.321V180.974C183.389 181.108 182.92 181.176 182.469 181.176C180.828 181.176 180.008 180.271 180.008 178.46V173.072H178.443V171.49H180.008V169.179H182.144ZM189.649 181.176C188.296 181.176 187.197 180.751 186.354 179.901C185.516 179.046 185.097 177.909 185.097 176.491V176.228C185.097 175.278 185.278 174.432 185.642 173.688C186.011 172.938 186.526 172.354 187.188 171.938C187.851 171.522 188.589 171.314 189.403 171.314C190.698 171.314 191.697 171.728 192.4 172.554C193.109 173.38 193.464 174.549 193.464 176.061V176.922H187.25C187.314 177.707 187.575 178.328 188.032 178.785C188.495 179.242 189.075 179.471 189.772 179.471C190.751 179.471 191.548 179.075 192.163 178.284L193.314 179.383C192.934 179.951 192.424 180.394 191.785 180.71C191.152 181.021 190.44 181.176 189.649 181.176ZM189.395 173.028C188.809 173.028 188.334 173.233 187.971 173.644C187.613 174.054 187.385 174.625 187.285 175.357H191.354V175.199C191.308 174.484 191.117 173.945 190.783 173.582C190.449 173.213 189.986 173.028 189.395 173.028ZM197.138 171.49L197.199 172.483C197.867 171.704 198.781 171.314 199.941 171.314C201.213 171.314 202.083 171.801 202.552 172.773C203.243 171.801 204.216 171.314 205.47 171.314C206.519 171.314 207.298 171.604 207.808 172.185C208.323 172.765 208.587 173.62 208.599 174.751V181H206.463V174.812C206.463 174.209 206.331 173.767 206.067 173.485C205.804 173.204 205.367 173.063 204.758 173.063C204.271 173.063 203.873 173.195 203.562 173.459C203.258 173.717 203.044 174.057 202.921 174.479L202.93 181H200.794V174.742C200.765 173.623 200.193 173.063 199.08 173.063C198.225 173.063 197.618 173.412 197.261 174.109V181H195.125V171.49H197.138ZM223.619 176.342C223.619 177.818 223.288 178.993 222.626 179.866C221.97 180.739 221.064 181.176 219.91 181.176C218.797 181.176 217.93 180.774 217.309 179.972L217.203 181H215.27V167.5H217.405V172.404C218.021 171.678 218.85 171.314 219.893 171.314C221.053 171.314 221.964 171.745 222.626 172.606C223.288 173.468 223.619 174.672 223.619 176.219V176.342ZM221.483 176.157C221.483 175.126 221.302 174.353 220.938 173.837C220.575 173.321 220.048 173.063 219.356 173.063C218.431 173.063 217.78 173.468 217.405 174.276V178.196C217.786 179.022 218.442 179.436 219.374 179.436C220.042 179.436 220.558 179.187 220.921 178.688C221.284 178.19 221.472 177.438 221.483 176.43V176.157ZM231.099 181C231.005 180.818 230.923 180.522 230.853 180.112C230.173 180.821 229.341 181.176 228.356 181.176C227.401 181.176 226.622 180.903 226.019 180.358C225.415 179.813 225.113 179.14 225.113 178.337C225.113 177.323 225.488 176.547 226.238 176.008C226.994 175.463 228.072 175.19 229.473 175.19H230.782V174.566C230.782 174.074 230.645 173.682 230.369 173.389C230.094 173.09 229.675 172.94 229.112 172.94C228.626 172.94 228.228 173.063 227.917 173.31C227.606 173.55 227.451 173.857 227.451 174.232H225.315C225.315 173.711 225.488 173.225 225.834 172.773C226.18 172.316 226.648 171.959 227.24 171.701C227.838 171.443 228.503 171.314 229.235 171.314C230.349 171.314 231.236 171.596 231.898 172.158C232.561 172.715 232.9 173.5 232.918 174.514V178.803C232.918 179.658 233.038 180.341 233.278 180.851V181H231.099ZM228.752 179.462C229.174 179.462 229.569 179.359 229.938 179.154C230.313 178.949 230.595 178.674 230.782 178.328V176.535H229.631C228.84 176.535 228.245 176.673 227.847 176.948C227.448 177.224 227.249 177.613 227.249 178.117C227.249 178.527 227.384 178.855 227.653 179.102C227.929 179.342 228.295 179.462 228.752 179.462ZM240.134 173.441C239.853 173.395 239.562 173.371 239.264 173.371C238.285 173.371 237.626 173.746 237.286 174.496V181H235.15V171.49H237.189L237.242 172.554C237.758 171.728 238.473 171.314 239.387 171.314C239.691 171.314 239.943 171.355 240.143 171.438L240.134 173.441ZM245.214 179.471C245.747 179.471 246.189 179.315 246.541 179.005C246.893 178.694 247.08 178.311 247.104 177.854H249.116C249.093 178.445 248.908 178.999 248.562 179.515C248.217 180.024 247.748 180.429 247.156 180.728C246.564 181.026 245.926 181.176 245.24 181.176C243.91 181.176 242.855 180.745 242.076 179.884C241.297 179.022 240.907 177.833 240.907 176.315V176.096C240.907 174.648 241.294 173.491 242.067 172.624C242.841 171.751 243.896 171.314 245.231 171.314C246.362 171.314 247.282 171.646 247.991 172.308C248.706 172.964 249.081 173.828 249.116 174.9H247.104C247.08 174.355 246.893 173.907 246.541 173.556C246.195 173.204 245.753 173.028 245.214 173.028C244.522 173.028 243.989 173.28 243.614 173.784C243.239 174.282 243.049 175.041 243.043 176.061V176.403C243.043 177.435 243.228 178.205 243.597 178.715C243.972 179.219 244.511 179.471 245.214 179.471ZM250.329 176.157C250.329 175.226 250.514 174.388 250.883 173.644C251.252 172.894 251.771 172.319 252.438 171.921C253.106 171.517 253.874 171.314 254.741 171.314C256.024 171.314 257.064 171.728 257.861 172.554C258.664 173.38 259.098 174.476 259.162 175.841L259.171 176.342C259.171 177.279 258.989 178.117 258.626 178.855C258.269 179.594 257.753 180.165 257.079 180.569C256.411 180.974 255.638 181.176 254.759 181.176C253.417 181.176 252.342 180.73 251.533 179.84C250.73 178.943 250.329 177.751 250.329 176.263V176.157ZM252.465 176.342C252.465 177.32 252.667 178.088 253.071 178.645C253.476 179.195 254.038 179.471 254.759 179.471C255.479 179.471 256.039 179.189 256.438 178.627C256.842 178.064 257.044 177.241 257.044 176.157C257.044 175.196 256.836 174.435 256.42 173.872C256.01 173.31 255.45 173.028 254.741 173.028C254.044 173.028 253.49 173.307 253.08 173.863C252.67 174.414 252.465 175.24 252.465 176.342ZM260.577 176.175C260.577 174.71 260.917 173.535 261.597 172.65C262.276 171.76 263.188 171.314 264.33 171.314C265.338 171.314 266.152 171.666 266.773 172.369V167.5H268.909V181H266.976L266.87 180.016C266.231 180.789 265.379 181.176 264.312 181.176C263.199 181.176 262.297 180.728 261.605 179.831C260.92 178.935 260.577 177.716 260.577 176.175ZM262.713 176.359C262.713 177.326 262.897 178.082 263.267 178.627C263.642 179.166 264.172 179.436 264.857 179.436C265.73 179.436 266.369 179.046 266.773 178.267V174.206C266.381 173.444 265.748 173.063 264.875 173.063C264.184 173.063 263.65 173.339 263.275 173.89C262.9 174.435 262.713 175.258 262.713 176.359ZM275.325 181.176C273.972 181.176 272.873 180.751 272.029 179.901C271.191 179.046 270.772 177.909 270.772 176.491V176.228C270.772 175.278 270.954 174.432 271.317 173.688C271.687 172.938 272.202 172.354 272.864 171.938C273.526 171.522 274.265 171.314 275.079 171.314C276.374 171.314 277.373 171.728 278.076 172.554C278.785 173.38 279.14 174.549 279.14 176.061V176.922H272.926C272.99 177.707 273.251 178.328 273.708 178.785C274.171 179.242 274.751 179.471 275.448 179.471C276.427 179.471 277.224 179.075 277.839 178.284L278.99 179.383C278.609 179.951 278.1 180.394 277.461 180.71C276.828 181.021 276.116 181.176 275.325 181.176ZM275.07 173.028C274.484 173.028 274.01 173.233 273.646 173.644C273.289 174.054 273.061 174.625 272.961 175.357H277.03V175.199C276.983 174.484 276.793 173.945 276.459 173.582C276.125 173.213 275.662 173.028 275.07 173.028ZM157.578 190.179V192.49H159.257V194.072H157.578V199.381C157.578 199.744 157.648 200.008 157.789 200.172C157.936 200.33 158.193 200.409 158.562 200.409C158.809 200.409 159.058 200.38 159.31 200.321V201.974C158.823 202.108 158.354 202.176 157.903 202.176C156.263 202.176 155.442 201.271 155.442 199.46V194.072H153.878V192.49H155.442V190.179H157.578ZM160.232 197.157C160.232 196.226 160.417 195.388 160.786 194.644C161.155 193.894 161.674 193.319 162.342 192.921C163.01 192.517 163.777 192.314 164.645 192.314C165.928 192.314 166.968 192.728 167.765 193.554C168.567 194.38 169.001 195.476 169.065 196.841L169.074 197.342C169.074 198.279 168.893 199.117 168.529 199.855C168.172 200.594 167.656 201.165 166.982 201.569C166.314 201.974 165.541 202.176 164.662 202.176C163.32 202.176 162.245 201.73 161.437 200.84C160.634 199.943 160.232 198.751 160.232 197.263V197.157ZM162.368 197.342C162.368 198.32 162.57 199.088 162.975 199.645C163.379 200.195 163.941 200.471 164.662 200.471C165.383 200.471 165.942 200.189 166.341 199.627C166.745 199.064 166.947 198.241 166.947 197.157C166.947 196.196 166.739 195.435 166.323 194.872C165.913 194.31 165.354 194.028 164.645 194.028C163.947 194.028 163.394 194.307 162.983 194.863C162.573 195.414 162.368 196.24 162.368 197.342ZM181.045 202C180.951 201.818 180.869 201.522 180.799 201.112C180.119 201.821 179.287 202.176 178.303 202.176C177.348 202.176 176.568 201.903 175.965 201.358C175.361 200.813 175.06 200.14 175.06 199.337C175.06 198.323 175.435 197.547 176.185 197.008C176.94 196.463 178.019 196.19 179.419 196.19H180.729V195.566C180.729 195.074 180.591 194.682 180.315 194.389C180.04 194.09 179.621 193.94 179.059 193.94C178.572 193.94 178.174 194.063 177.863 194.31C177.553 194.55 177.397 194.857 177.397 195.232H175.262C175.262 194.711 175.435 194.225 175.78 193.773C176.126 193.316 176.595 192.959 177.187 192.701C177.784 192.443 178.449 192.314 179.182 192.314C180.295 192.314 181.183 192.596 181.845 193.158C182.507 193.715 182.847 194.5 182.864 195.514V199.803C182.864 200.658 182.984 201.341 183.225 201.851V202H181.045ZM178.698 200.462C179.12 200.462 179.516 200.359 179.885 200.154C180.26 199.949 180.541 199.674 180.729 199.328V197.535H179.577C178.786 197.535 178.191 197.673 177.793 197.948C177.395 198.224 177.195 198.613 177.195 199.117C177.195 199.527 177.33 199.855 177.6 200.102C177.875 200.342 178.241 200.462 178.698 200.462ZM184.701 197.175C184.701 195.71 185.041 194.535 185.721 193.65C186.4 192.76 187.312 192.314 188.454 192.314C189.462 192.314 190.276 192.666 190.897 193.369V188.5H193.033V202H191.1L190.994 201.016C190.355 201.789 189.503 202.176 188.437 202.176C187.323 202.176 186.421 201.728 185.729 200.831C185.044 199.935 184.701 198.716 184.701 197.175ZM186.837 197.359C186.837 198.326 187.021 199.082 187.391 199.627C187.766 200.166 188.296 200.436 188.981 200.436C189.854 200.436 190.493 200.046 190.897 199.267V195.206C190.505 194.444 189.872 194.063 188.999 194.063C188.308 194.063 187.774 194.339 187.399 194.89C187.024 195.435 186.837 196.258 186.837 197.359ZM194.861 197.175C194.861 195.71 195.201 194.535 195.881 193.65C196.561 192.76 197.472 192.314 198.614 192.314C199.622 192.314 200.437 192.666 201.058 193.369V188.5H203.193V202H201.26L201.154 201.016C200.516 201.789 199.663 202.176 198.597 202.176C197.483 202.176 196.581 201.728 195.89 200.831C195.204 199.935 194.861 198.716 194.861 197.175ZM196.997 197.359C196.997 198.326 197.182 199.082 197.551 199.627C197.926 200.166 198.456 200.436 199.142 200.436C200.015 200.436 200.653 200.046 201.058 199.267V195.206C200.665 194.444 200.032 194.063 199.159 194.063C198.468 194.063 197.935 194.339 197.56 194.89C197.185 195.435 196.997 196.258 196.997 197.359ZM212.58 190.179V192.49H214.259V194.072H212.58V199.381C212.58 199.744 212.65 200.008 212.791 200.172C212.938 200.33 213.195 200.409 213.564 200.409C213.811 200.409 214.06 200.38 214.312 200.321V201.974C213.825 202.108 213.356 202.176 212.905 202.176C211.265 202.176 210.444 201.271 210.444 199.46V194.072H208.88V192.49H210.444V190.179H212.58ZM215.234 197.157C215.234 196.226 215.419 195.388 215.788 194.644C216.157 193.894 216.676 193.319 217.344 192.921C218.012 192.517 218.779 192.314 219.646 192.314C220.93 192.314 221.97 192.728 222.767 193.554C223.569 194.38 224.003 195.476 224.067 196.841L224.076 197.342C224.076 198.279 223.895 199.117 223.531 199.855C223.174 200.594 222.658 201.165 221.984 201.569C221.316 201.974 220.543 202.176 219.664 202.176C218.322 202.176 217.247 201.73 216.438 200.84C215.636 199.943 215.234 198.751 215.234 197.263V197.157ZM217.37 197.342C217.37 198.32 217.572 199.088 217.977 199.645C218.381 200.195 218.943 200.471 219.664 200.471C220.385 200.471 220.944 200.189 221.343 199.627C221.747 199.064 221.949 198.241 221.949 197.157C221.949 196.196 221.741 195.435 221.325 194.872C220.915 194.31 220.355 194.028 219.646 194.028C218.949 194.028 218.396 194.307 217.985 194.863C217.575 195.414 217.37 196.24 217.37 197.342ZM234.271 200.471C234.805 200.471 235.247 200.315 235.599 200.005C235.95 199.694 236.138 199.311 236.161 198.854H238.174C238.15 199.445 237.966 199.999 237.62 200.515C237.274 201.024 236.806 201.429 236.214 201.728C235.622 202.026 234.983 202.176 234.298 202.176C232.968 202.176 231.913 201.745 231.134 200.884C230.354 200.022 229.965 198.833 229.965 197.315V197.096C229.965 195.648 230.352 194.491 231.125 193.624C231.898 192.751 232.953 192.314 234.289 192.314C235.42 192.314 236.34 192.646 237.049 193.308C237.764 193.964 238.139 194.828 238.174 195.9H236.161C236.138 195.355 235.95 194.907 235.599 194.556C235.253 194.204 234.811 194.028 234.271 194.028C233.58 194.028 233.047 194.28 232.672 194.784C232.297 195.282 232.106 196.041 232.101 197.061V197.403C232.101 198.435 232.285 199.205 232.654 199.715C233.029 200.219 233.568 200.471 234.271 200.471ZM245.469 202C245.375 201.818 245.293 201.522 245.223 201.112C244.543 201.821 243.711 202.176 242.727 202.176C241.771 202.176 240.992 201.903 240.389 201.358C239.785 200.813 239.483 200.14 239.483 199.337C239.483 198.323 239.858 197.547 240.608 197.008C241.364 196.463 242.442 196.19 243.843 196.19H245.152V195.566C245.152 195.074 245.015 194.682 244.739 194.389C244.464 194.09 244.045 193.94 243.482 193.94C242.996 193.94 242.598 194.063 242.287 194.31C241.977 194.55 241.821 194.857 241.821 195.232H239.686C239.686 194.711 239.858 194.225 240.204 193.773C240.55 193.316 241.019 192.959 241.61 192.701C242.208 192.443 242.873 192.314 243.605 192.314C244.719 192.314 245.606 192.596 246.269 193.158C246.931 193.715 247.271 194.5 247.288 195.514V199.803C247.288 200.658 247.408 201.341 247.648 201.851V202H245.469ZM243.122 200.462C243.544 200.462 243.939 200.359 244.309 200.154C244.684 199.949 244.965 199.674 245.152 199.328V197.535H244.001C243.21 197.535 242.615 197.673 242.217 197.948C241.818 198.224 241.619 198.613 241.619 199.117C241.619 199.527 241.754 199.855 242.023 200.102C242.299 200.342 242.665 200.462 243.122 200.462ZM254.504 194.441C254.223 194.395 253.933 194.371 253.634 194.371C252.655 194.371 251.996 194.746 251.656 195.496V202H249.521V192.49H251.56L251.612 193.554C252.128 192.728 252.843 192.314 253.757 192.314C254.062 192.314 254.313 192.355 254.513 192.438L254.504 194.441ZM258.969 190.179V192.49H260.647V194.072H258.969V199.381C258.969 199.744 259.039 200.008 259.18 200.172C259.326 200.33 259.584 200.409 259.953 200.409C260.199 200.409 260.448 200.38 260.7 200.321V201.974C260.214 202.108 259.745 202.176 259.294 202.176C257.653 202.176 256.833 201.271 256.833 199.46V194.072H255.269V192.49H256.833V190.179H258.969Z" fill="black"/>
<rect width="40" height="29" fill="black" fill-opacity="0" transform="translate(55 94)"/>
<line x1="55" y1="91.5" x2="95" y2="92.5" stroke="black" stroke-width="5"/>
<line x1="55" y1="105.5" x2="95" y2="106.5" stroke="black" stroke-width="5"/>
<line x1="55" y1="119.5" x2="95" y2="120.5" stroke="black" stroke-width="5"/>
<g filter="url(#filter0_d)">
<rect width="127" height="127" fill="black" fill-opacity="0" transform="translate(139 225)"/>
<circle cx="202.5" cy="288.5" r="63.5" fill="#EEE9E9"/>
<rect width="66" height="49" fill="black" fill-opacity="0" transform="translate(170 264)"/>
<path fill-rule="evenodd" clip-rule="evenodd" d="M230.261 313H175.739C172.57 313 170 310.419 170 307.235V275.529C170 272.346 172.57 269.765 175.739 269.765H177.174C177.174 268.174 178.459 266.882 180.043 266.882H182.913C184.497 266.882 185.783 268.174 185.783 269.765H188.652C188.652 269.765 190.266 269.585 191.522 268.324L194.391 265.441C194.391 265.441 195.512 264 197.261 264H208.739C210.622 264 211.609 265.441 211.609 265.441L214.478 268.324C215.734 269.585 217.348 269.765 217.348 269.765H230.261C233.43 269.765 236 272.346 236 275.529V307.235C236 310.419 233.43 313 230.261 313ZM233.13 275.529C233.13 273.938 231.845 272.647 230.261 272.647L217.031 272.628C216.593 272.581 214.32 272.241 212.449 270.361L209.393 267.292L209.244 267.074C209.243 267.073 209.02 266.882 208.739 266.882H197.261C197.041 266.882 196.723 267.139 196.653 267.215L196.545 267.354L193.551 270.36C191.678 272.241 189.405 272.579 188.969 272.627L183.013 272.636C182.979 272.638 182.946 272.647 182.913 272.647H180.043C180.023 272.647 180.006 272.641 179.986 272.641L175.739 272.647C174.155 272.647 172.87 273.938 172.87 275.529V307.235C172.87 308.826 174.155 310.118 175.739 310.118H230.261C231.845 310.118 233.13 308.826 233.13 307.235V275.529ZM203 307.235C194.284 307.235 187.217 300.137 187.217 291.382C187.217 282.627 194.284 275.529 203 275.529C211.716 275.529 218.783 282.627 218.783 291.382C218.783 300.137 211.716 307.235 203 307.235ZM203 278.412C195.868 278.412 190.087 284.218 190.087 291.382C190.087 298.546 195.868 304.353 203 304.353C210.132 304.353 215.913 298.546 215.913 291.382C215.913 284.218 210.132 278.412 203 278.412ZM203 298.588C199.037 298.588 195.826 295.363 195.826 291.382C195.826 287.402 199.037 284.176 203 284.176C206.963 284.176 210.174 287.402 210.174 291.382C210.174 295.363 206.963 298.588 203 298.588ZM203 287.059C200.624 287.059 198.696 288.996 198.696 291.382C198.696 293.77 200.624 295.706 203 295.706C205.377 295.706 207.304 293.77 207.304 291.382C207.304 288.996 205.377 287.059 203 287.059ZM182.913 281.294H177.174C176.38 281.294 175.739 280.65 175.739 279.853V276.971C175.739 276.175 176.38 275.529 177.174 275.529H182.913C183.706 275.529 184.348 276.175 184.348 276.971V279.853C184.348 280.65 183.706 281.294 182.913 281.294Z" fill="black"/>
</g>
<g filter="url(#filter1_d)">
<rect x="55" y="469" width="296" height="52" fill="#99BA89"/>
</g>
<g filter="url(#filter2_d)">
<rect x="55" y="617" width="296" height="52" fill="#99BA89"/>
</g>
<g filter="url(#filter3_d)">
<rect x="55" y="543" width="296" height="52" fill="#99BA89"/>
</g>
<path d="M108.613 430.938L113.535 444.016L118.445 430.938H122.277V448H119.324V442.375L119.617 434.852L114.578 448H112.457L107.43 434.863L107.723 442.375V448H104.77V430.938H108.613ZM131.031 439.023L134.957 430.938H138.238L132.52 441.719V448H129.543V441.719L123.812 430.938H127.105L131.031 439.023ZM159.086 442.445C158.914 444.266 158.242 445.688 157.07 446.711C155.898 447.727 154.34 448.234 152.395 448.234C151.035 448.234 149.836 447.914 148.797 447.273C147.766 446.625 146.969 445.707 146.406 444.52C145.844 443.332 145.551 441.953 145.527 440.383V438.789C145.527 437.18 145.812 435.762 146.383 434.535C146.953 433.309 147.77 432.363 148.832 431.699C149.902 431.035 151.137 430.703 152.535 430.703C154.418 430.703 155.934 431.215 157.082 432.238C158.23 433.262 158.898 434.707 159.086 436.574H156.133C155.992 435.348 155.633 434.465 155.055 433.926C154.484 433.379 153.645 433.105 152.535 433.105C151.246 433.105 150.254 433.578 149.559 434.523C148.871 435.461 148.52 436.84 148.504 438.66V440.172C148.504 442.016 148.832 443.422 149.488 444.391C150.152 445.359 151.121 445.844 152.395 445.844C153.559 445.844 154.434 445.582 155.02 445.059C155.605 444.535 155.977 443.664 156.133 442.445H159.086ZM171.297 444.027H164.688L163.305 448H160.223L166.668 430.938H169.328L175.785 448H172.691L171.297 444.027ZM165.52 441.637H170.465L167.992 434.559L165.52 441.637ZM184 441.426H180.695V448H177.73V430.938H183.73C185.699 430.938 187.219 431.379 188.289 432.262C189.359 433.145 189.895 434.422 189.895 436.094C189.895 437.234 189.617 438.191 189.062 438.965C188.516 439.73 187.75 440.32 186.766 440.734L190.598 447.848V448H187.422L184 441.426ZM180.695 439.047H183.742C184.742 439.047 185.523 438.797 186.086 438.297C186.648 437.789 186.93 437.098 186.93 436.223C186.93 435.309 186.668 434.602 186.145 434.102C185.629 433.602 184.855 433.344 183.824 433.328H180.695V439.047ZM204.449 433.328H199.129V448H196.188V433.328H190.914V430.938H204.449V433.328Z" fill="black"/>
<path d="M231.645 443.547C231.645 442.883 231.434 442.336 231.012 441.906C230.59 441.469 229.887 441.078 228.902 440.734C227.918 440.383 227.152 440.059 226.605 439.762C224.785 438.785 223.875 437.34 223.875 435.426C223.875 434.129 224.27 433.062 225.059 432.227C225.848 431.391 226.918 430.895 228.27 430.738V428.184H230.145V430.762C231.504 430.957 232.555 431.535 233.297 432.496C234.039 433.449 234.41 434.691 234.41 436.223H231.574C231.574 435.238 231.352 434.465 230.906 433.902C230.469 433.332 229.871 433.047 229.113 433.047C228.363 433.047 227.777 433.25 227.355 433.656C226.934 434.062 226.723 434.645 226.723 435.402C226.723 436.082 226.93 436.629 227.344 437.043C227.766 437.449 228.477 437.836 229.477 438.203C230.477 438.57 231.262 438.91 231.832 439.223C232.402 439.535 232.883 439.895 233.273 440.301C233.664 440.699 233.965 441.16 234.176 441.684C234.387 442.207 234.492 442.82 234.492 443.523C234.492 444.844 234.086 445.914 233.273 446.734C232.469 447.555 231.344 448.039 229.898 448.188V450.473H228.035V448.199C226.488 448.027 225.297 447.473 224.461 446.535C223.633 445.598 223.219 444.355 223.219 442.809H226.066C226.066 443.793 226.312 444.555 226.805 445.094C227.305 445.633 228.008 445.902 228.914 445.902C229.805 445.902 230.48 445.688 230.941 445.258C231.41 444.828 231.645 444.258 231.645 443.547ZM248.438 448H236.965V446.043L242.648 439.844C243.469 438.93 244.051 438.168 244.395 437.559C244.746 436.941 244.922 436.324 244.922 435.707C244.922 434.895 244.691 434.238 244.23 433.738C243.777 433.238 243.164 432.988 242.391 432.988C241.469 432.988 240.754 433.27 240.246 433.832C239.738 434.395 239.484 435.164 239.484 436.141H236.637C236.637 435.102 236.871 434.168 237.34 433.34C237.816 432.504 238.492 431.855 239.367 431.395C240.25 430.934 241.266 430.703 242.414 430.703C244.07 430.703 245.375 431.121 246.328 431.957C247.289 432.785 247.77 433.934 247.77 435.402C247.77 436.254 247.527 437.148 247.043 438.086C246.566 439.016 245.781 440.074 244.688 441.262L240.516 445.727H248.438V448ZM253.898 438.168H255.633C256.508 438.16 257.199 437.934 257.707 437.488C258.223 437.043 258.48 436.398 258.48 435.555C258.48 434.742 258.266 434.113 257.836 433.668C257.414 433.215 256.766 432.988 255.891 432.988C255.125 432.988 254.496 433.211 254.004 433.656C253.512 434.094 253.266 434.668 253.266 435.379H250.418C250.418 434.504 250.648 433.707 251.109 432.988C251.578 432.27 252.227 431.711 253.055 431.312C253.891 430.906 254.824 430.703 255.855 430.703C257.559 430.703 258.895 431.133 259.863 431.992C260.84 432.844 261.328 434.031 261.328 435.555C261.328 436.32 261.082 437.043 260.59 437.723C260.105 438.395 259.477 438.902 258.703 439.246C259.641 439.566 260.352 440.07 260.836 440.758C261.328 441.445 261.574 442.266 261.574 443.219C261.574 444.75 261.047 445.969 259.992 446.875C258.945 447.781 257.566 448.234 255.855 448.234C254.215 448.234 252.871 447.797 251.824 446.922C250.777 446.047 250.254 444.883 250.254 443.43H253.102C253.102 444.18 253.352 444.789 253.852 445.258C254.359 445.727 255.039 445.961 255.891 445.961C256.773 445.961 257.469 445.727 257.977 445.258C258.484 444.789 258.738 444.109 258.738 443.219C258.738 442.32 258.473 441.629 257.941 441.145C257.41 440.66 256.621 440.418 255.574 440.418H253.898V438.168ZM266.203 445C266.734 445 267.145 445.152 267.434 445.457C267.723 445.754 267.867 446.129 267.867 446.582C267.867 447.027 267.723 447.398 267.434 447.695C267.145 447.984 266.734 448.129 266.203 448.129C265.695 448.129 265.293 447.984 264.996 447.695C264.699 447.406 264.551 447.035 264.551 446.582C264.551 446.129 264.695 445.754 264.984 445.457C265.273 445.152 265.68 445 266.203 445ZM279.809 430.855V433.211H279.457C277.863 433.234 276.59 433.672 275.637 434.523C274.684 435.375 274.117 436.582 273.938 438.145C274.852 437.184 276.02 436.703 277.441 436.703C278.949 436.703 280.137 437.234 281.004 438.297C281.879 439.359 282.316 440.73 282.316 442.41C282.316 444.145 281.805 445.551 280.781 446.629C279.766 447.699 278.43 448.234 276.773 448.234C275.07 448.234 273.688 447.605 272.625 446.348C271.57 445.09 271.043 443.441 271.043 441.402V440.43C271.043 437.438 271.77 435.094 273.223 433.398C274.684 431.703 276.781 430.855 279.516 430.855H279.809ZM276.75 439C276.125 439 275.551 439.176 275.027 439.527C274.512 439.879 274.133 440.348 273.891 440.934V441.801C273.891 443.066 274.156 444.074 274.688 444.824C275.219 445.566 275.906 445.938 276.75 445.938C277.594 445.938 278.262 445.621 278.754 444.988C279.246 444.355 279.492 443.523 279.492 442.492C279.492 441.461 279.242 440.621 278.742 439.973C278.242 439.324 277.578 439 276.75 439ZM294.223 441.918H296.344V444.203H294.223V448H291.375V444.203H284.004L283.922 442.469L291.281 430.938H294.223V441.918ZM286.91 441.918H291.375V434.793L291.164 435.168L286.91 441.918Z" fill="#81F6FE"/>
<path d="M78.8174 502V489.203H83.2031C84.6504 489.203 85.752 489.493 86.5078 490.073C87.2637 490.653 87.6416 491.518 87.6416 492.666C87.6416 493.252 87.4834 493.779 87.167 494.248C86.8506 494.717 86.3877 495.08 85.7783 495.338C86.4697 495.525 87.0029 495.88 87.3779 496.401C87.7588 496.917 87.9492 497.538 87.9492 498.265C87.9492 499.466 87.5625 500.389 86.7891 501.033C86.0215 501.678 84.9199 502 83.4844 502H78.8174ZM81.041 496.226V500.225H83.5107C84.208 500.225 84.7529 500.052 85.1455 499.706C85.5381 499.36 85.7344 498.88 85.7344 498.265C85.7344 496.935 85.0547 496.255 83.6953 496.226H81.041ZM81.041 494.591H83.2207C83.9121 494.591 84.4512 494.436 84.8379 494.125C85.2305 493.809 85.4268 493.363 85.4268 492.789C85.4268 492.156 85.2451 491.699 84.8818 491.418C84.5244 491.137 83.9648 490.996 83.2031 490.996H81.041V494.591ZM90.5684 503.099H88.8896L93.9258 489.203H95.6045L90.5684 503.099ZM97.292 502V489.203H101.071C102.202 489.203 103.204 489.455 104.077 489.959C104.956 490.463 105.636 491.178 106.116 492.104C106.597 493.029 106.837 494.09 106.837 495.285V495.927C106.837 497.14 106.594 498.206 106.107 499.126C105.627 500.046 104.938 500.755 104.042 501.253C103.151 501.751 102.129 502 100.975 502H97.292ZM99.5156 490.996V500.225H100.966C102.132 500.225 103.025 499.861 103.646 499.135C104.273 498.402 104.593 497.354 104.604 495.988V495.276C104.604 493.888 104.303 492.827 103.699 492.095C103.096 491.362 102.22 490.996 101.071 490.996H99.5156ZM111.935 489.203L115.626 499.012L119.309 489.203H122.183V502H119.968V497.781L120.188 492.139L116.408 502H114.817L111.047 492.147L111.267 497.781V502H109.052V489.203H111.935ZM134.971 502H132.747L127.043 492.921V502H124.819V489.203H127.043L132.765 498.317V489.203H134.971V502ZM137.599 502V489.203H141.378C142.509 489.203 143.511 489.455 144.384 489.959C145.263 490.463 145.942 491.178 146.423 492.104C146.903 493.029 147.144 494.09 147.144 495.285V495.927C147.144 497.14 146.9 498.206 146.414 499.126C145.934 500.046 145.245 500.755 144.349 501.253C143.458 501.751 142.436 502 141.281 502H137.599ZM139.822 490.996V500.225H141.272C142.438 500.225 143.332 499.861 143.953 499.135C144.58 498.402 144.899 497.354 144.911 495.988V495.276C144.911 493.888 144.609 492.827 144.006 492.095C143.402 491.362 142.526 490.996 141.378 490.996H139.822ZM161.004 499.021H156.047L155.01 502H152.698L157.532 489.203H159.527L164.37 502H162.05L161.004 499.021ZM156.671 497.228H160.38L158.525 491.919L156.671 497.228ZM168.053 500.225H173.862V502H165.829V489.203H168.053V500.225ZM178.45 489.203L182.142 499.012L185.824 489.203H188.698V502H186.483V497.781L186.703 492.139L182.924 502H181.333L177.562 492.147L177.782 497.781V502H175.567V489.203H178.45ZM191.335 502V489.203H195.114C196.245 489.203 197.247 489.455 198.12 489.959C198.999 490.463 199.679 491.178 200.159 492.104C200.64 493.029 200.88 494.09 200.88 495.285V495.927C200.88 497.14 200.637 498.206 200.15 499.126C199.67 500.046 198.981 500.755 198.085 501.253C197.194 501.751 196.172 502 195.018 502H191.335ZM193.559 490.996V500.225H195.009C196.175 500.225 197.068 499.861 197.689 499.135C198.316 498.402 198.636 497.354 198.647 495.988V495.276C198.647 493.888 198.346 492.827 197.742 492.095C197.139 491.362 196.263 490.996 195.114 490.996H193.559ZM207.577 502V489.203H211.963C213.41 489.203 214.512 489.493 215.268 490.073C216.023 490.653 216.401 491.518 216.401 492.666C216.401 493.252 216.243 493.779 215.927 494.248C215.61 494.717 215.147 495.08 214.538 495.338C215.229 495.525 215.763 495.88 216.138 496.401C216.519 496.917 216.709 497.538 216.709 498.265C216.709 499.466 216.322 500.389 215.549 501.033C214.781 501.678 213.68 502 212.244 502H207.577ZM209.801 496.226V500.225H212.271C212.968 500.225 213.513 500.052 213.905 499.706C214.298 499.36 214.494 498.88 214.494 498.265C214.494 496.935 213.814 496.255 212.455 496.226H209.801ZM209.801 494.591H211.98C212.672 494.591 213.211 494.436 213.598 494.125C213.99 493.809 214.187 493.363 214.187 492.789C214.187 492.156 214.005 491.699 213.642 491.418C213.284 491.137 212.725 490.996 211.963 490.996H209.801V494.591ZM223.635 497.069H221.156V502H218.933V489.203H223.433C224.909 489.203 226.049 489.534 226.852 490.196C227.654 490.858 228.056 491.816 228.056 493.07C228.056 493.926 227.848 494.644 227.432 495.224C227.021 495.798 226.447 496.24 225.709 496.551L228.583 501.886V502H226.201L223.635 497.069ZM221.156 495.285H223.441C224.191 495.285 224.777 495.098 225.199 494.723C225.621 494.342 225.832 493.823 225.832 493.167C225.832 492.481 225.636 491.951 225.243 491.576C224.856 491.201 224.276 491.008 223.503 490.996H221.156V495.285ZM232.257 500.225H239.095V502H229.567V500.559L236.186 490.996H229.611V489.203H238.884V490.609L232.257 500.225ZM291.732 498.66C291.732 498.162 291.574 497.752 291.258 497.43C290.941 497.102 290.414 496.809 289.676 496.551C288.938 496.287 288.363 496.044 287.953 495.821C286.588 495.089 285.905 494.005 285.905 492.569C285.905 491.597 286.201 490.797 286.793 490.17C287.385 489.543 288.188 489.171 289.201 489.054V487.138H290.607V489.071C291.627 489.218 292.415 489.651 292.972 490.372C293.528 491.087 293.807 492.019 293.807 493.167H291.68C291.68 492.429 291.513 491.849 291.179 491.427C290.851 490.999 290.402 490.785 289.834 490.785C289.271 490.785 288.832 490.938 288.516 491.242C288.199 491.547 288.041 491.983 288.041 492.552C288.041 493.062 288.196 493.472 288.507 493.782C288.823 494.087 289.356 494.377 290.106 494.652C290.856 494.928 291.445 495.183 291.873 495.417C292.301 495.651 292.661 495.921 292.954 496.226C293.247 496.524 293.473 496.87 293.631 497.263C293.789 497.655 293.868 498.115 293.868 498.643C293.868 499.633 293.563 500.436 292.954 501.051C292.351 501.666 291.507 502.029 290.423 502.141V503.854H289.025V502.149C287.865 502.021 286.972 501.604 286.345 500.901C285.724 500.198 285.413 499.267 285.413 498.106H287.549C287.549 498.845 287.733 499.416 288.103 499.82C288.478 500.225 289.005 500.427 289.685 500.427C290.353 500.427 290.859 500.266 291.205 499.943C291.557 499.621 291.732 499.193 291.732 498.66ZM304.327 502H295.723V500.532L299.985 495.883C300.601 495.197 301.037 494.626 301.295 494.169C301.559 493.706 301.69 493.243 301.69 492.78C301.69 492.171 301.518 491.679 301.172 491.304C300.832 490.929 300.372 490.741 299.792 490.741C299.101 490.741 298.564 490.952 298.184 491.374C297.803 491.796 297.612 492.373 297.612 493.105H295.477C295.477 492.326 295.652 491.626 296.004 491.005C296.361 490.378 296.868 489.892 297.524 489.546C298.187 489.2 298.948 489.027 299.81 489.027C301.052 489.027 302.03 489.341 302.745 489.968C303.466 490.589 303.826 491.45 303.826 492.552C303.826 493.19 303.645 493.861 303.281 494.564C302.924 495.262 302.335 496.056 301.515 496.946L298.386 500.295H304.327V502ZM307.421 499.75C307.819 499.75 308.127 499.864 308.344 500.093C308.561 500.315 308.669 500.597 308.669 500.937C308.669 501.271 308.561 501.549 308.344 501.771C308.127 501.988 307.819 502.097 307.421 502.097C307.04 502.097 306.738 501.988 306.516 501.771C306.293 501.555 306.182 501.276 306.182 500.937C306.182 500.597 306.29 500.315 306.507 500.093C306.724 499.864 307.028 499.75 307.421 499.75ZM317.036 496.647C316.321 497.403 315.486 497.781 314.531 497.781C313.406 497.781 312.51 497.389 311.842 496.604C311.174 495.812 310.84 494.775 310.84 493.492C310.84 492.648 311.01 491.884 311.35 491.198C311.689 490.513 312.173 489.979 312.8 489.599C313.427 489.218 314.153 489.027 314.979 489.027C316.269 489.027 317.291 489.508 318.047 490.469C318.803 491.43 319.181 492.716 319.181 494.327V494.925C319.181 497.233 318.659 498.994 317.616 500.207C316.573 501.42 315.018 502.035 312.949 502.053H312.694V500.286H313.002C314.262 500.269 315.229 499.967 315.902 499.381C316.576 498.789 316.954 497.878 317.036 496.647ZM314.979 496.111C315.407 496.111 315.809 495.988 316.184 495.742C316.559 495.496 316.849 495.156 317.054 494.723V493.888C317.054 492.944 316.86 492.186 316.474 491.611C316.087 491.037 315.586 490.75 314.971 490.75C314.355 490.75 313.863 491.005 313.494 491.515C313.131 492.019 312.949 492.657 312.949 493.431C312.949 494.233 313.134 494.881 313.503 495.373C313.872 495.865 314.364 496.111 314.979 496.111ZM329.728 490.39L324.612 502H322.371L327.478 490.917H320.859V489.203H329.728V490.39Z" fill="white"/>
<path d="M85.7695 571.438H87.3604V573.152H85.7695V576H83.6338V573.152H78.1055L78.0439 571.852L83.5635 563.203H85.7695V571.438ZM80.2852 571.438H83.6338V566.095L83.4756 566.376L80.2852 571.438ZM98.8828 571.834C98.7539 573.199 98.25 574.266 97.3711 575.033C96.4922 575.795 95.3232 576.176 93.8643 576.176C92.8447 576.176 91.9453 575.936 91.166 575.455C90.3926 574.969 89.7949 574.28 89.373 573.39C88.9512 572.499 88.7314 571.465 88.7139 570.287V569.092C88.7139 567.885 88.9277 566.821 89.3555 565.901C89.7832 564.981 90.3955 564.272 91.1924 563.774C91.9951 563.276 92.9209 563.027 93.9697 563.027C95.3818 563.027 96.5186 563.411 97.3799 564.179C98.2412 564.946 98.7422 566.03 98.8828 567.431H96.668C96.5625 566.511 96.293 565.849 95.8594 565.444C95.4316 565.034 94.8018 564.829 93.9697 564.829C93.0029 564.829 92.2588 565.184 91.7373 565.893C91.2217 566.596 90.958 567.63 90.9463 568.995V570.129C90.9463 571.512 91.1924 572.566 91.6846 573.293C92.1826 574.02 92.9092 574.383 93.8643 574.383C94.7373 574.383 95.3936 574.187 95.833 573.794C96.2725 573.401 96.5508 572.748 96.668 571.834H98.8828ZM109.86 564.996H105.87V576H103.664V564.996H99.709V563.203H109.86V564.996ZM122.666 573.021H117.709L116.672 576H114.36L119.194 563.203H121.189L126.032 576H123.712L122.666 573.021ZM118.333 571.228H122.042L120.188 565.919L118.333 571.228ZM131.314 573.214L134.566 563.203H137.01L132.404 576H130.251L125.663 563.203H128.098L131.314 573.214ZM148.55 569.936C148.55 571.189 148.333 572.291 147.899 573.24C147.466 574.184 146.845 574.91 146.036 575.42C145.233 575.924 144.308 576.176 143.259 576.176C142.222 576.176 141.296 575.924 140.481 575.42C139.673 574.91 139.046 574.187 138.601 573.249C138.161 572.312 137.938 571.23 137.933 570.006V569.285C137.933 568.037 138.152 566.936 138.592 565.98C139.037 565.025 139.661 564.296 140.464 563.792C141.272 563.282 142.198 563.027 143.241 563.027C144.284 563.027 145.207 563.279 146.01 563.783C146.818 564.281 147.442 565.002 147.882 565.945C148.321 566.883 148.544 567.976 148.55 569.224V569.936ZM146.326 569.268C146.326 567.85 146.057 566.763 145.518 566.007C144.984 565.251 144.226 564.873 143.241 564.873C142.28 564.873 141.527 565.251 140.982 566.007C140.443 566.757 140.168 567.82 140.156 569.197V569.936C140.156 571.342 140.429 572.429 140.974 573.196C141.524 573.964 142.286 574.348 143.259 574.348C144.243 574.348 144.999 573.973 145.526 573.223C146.06 572.473 146.326 571.377 146.326 569.936V569.268ZM160.529 571.834C160.4 573.199 159.896 574.266 159.018 575.033C158.139 575.795 156.97 576.176 155.511 576.176C154.491 576.176 153.592 575.936 152.812 575.455C152.039 574.969 151.441 574.28 151.02 573.39C150.598 572.499 150.378 571.465 150.36 570.287V569.092C150.36 567.885 150.574 566.821 151.002 565.901C151.43 564.981 152.042 564.272 152.839 563.774C153.642 563.276 154.567 563.027 155.616 563.027C157.028 563.027 158.165 563.411 159.026 564.179C159.888 564.946 160.389 566.03 160.529 567.431H158.314C158.209 566.511 157.939 565.849 157.506 565.444C157.078 565.034 156.448 564.829 155.616 564.829C154.649 564.829 153.905 565.184 153.384 565.893C152.868 566.596 152.604 567.63 152.593 568.995V570.129C152.593 571.512 152.839 572.566 153.331 573.293C153.829 574.02 154.556 574.383 155.511 574.383C156.384 574.383 157.04 574.187 157.479 573.794C157.919 573.401 158.197 572.748 158.314 571.834H160.529ZM169.688 573.021H164.73L163.693 576H161.382L166.216 563.203H168.211L173.054 576H170.733L169.688 573.021ZM165.354 571.228H169.063L167.209 565.919L165.354 571.228ZM174.513 576V563.203H178.292C179.423 563.203 180.425 563.455 181.298 563.959C182.177 564.463 182.856 565.178 183.337 566.104C183.817 567.029 184.058 568.09 184.058 569.285V569.927C184.058 571.14 183.814 572.206 183.328 573.126C182.848 574.046 182.159 574.755 181.263 575.253C180.372 575.751 179.35 576 178.195 576H174.513ZM176.736 564.996V574.225H178.187C179.353 574.225 180.246 573.861 180.867 573.135C181.494 572.402 181.813 571.354 181.825 569.988V569.276C181.825 567.888 181.523 566.827 180.92 566.095C180.316 565.362 179.44 564.996 178.292 564.996H176.736ZM196.485 569.936C196.485 571.189 196.269 572.291 195.835 573.24C195.401 574.184 194.78 574.91 193.972 575.42C193.169 575.924 192.243 576.176 191.194 576.176C190.157 576.176 189.231 575.924 188.417 575.42C187.608 574.91 186.981 574.187 186.536 573.249C186.097 572.312 185.874 571.23 185.868 570.006V569.285C185.868 568.037 186.088 566.936 186.527 565.98C186.973 565.025 187.597 564.296 188.399 563.792C189.208 563.282 190.134 563.027 191.177 563.027C192.22 563.027 193.143 563.279 193.945 563.783C194.754 564.281 195.378 565.002 195.817 565.945C196.257 566.883 196.479 567.976 196.485 569.224V569.936ZM194.262 569.268C194.262 567.85 193.992 566.763 193.453 566.007C192.92 565.251 192.161 564.873 191.177 564.873C190.216 564.873 189.463 565.251 188.918 566.007C188.379 566.757 188.104 567.82 188.092 569.197V569.936C188.092 571.342 188.364 572.429 188.909 573.196C189.46 573.964 190.222 574.348 191.194 574.348C192.179 574.348 192.935 573.973 193.462 573.223C193.995 572.473 194.262 571.377 194.262 569.936V569.268ZM205.389 572.704C205.389 572.142 205.189 571.708 204.791 571.403C204.398 571.099 203.687 570.791 202.655 570.48C201.624 570.17 200.804 569.824 200.194 569.443C199.028 568.711 198.445 567.756 198.445 566.578C198.445 565.547 198.864 564.697 199.702 564.029C200.546 563.361 201.639 563.027 202.98 563.027C203.871 563.027 204.665 563.191 205.362 563.52C206.06 563.848 206.607 564.316 207.006 564.926C207.404 565.529 207.604 566.2 207.604 566.938H205.389C205.389 566.271 205.178 565.749 204.756 565.374C204.34 564.993 203.742 564.803 202.963 564.803C202.236 564.803 201.671 564.958 201.267 565.269C200.868 565.579 200.669 566.013 200.669 566.569C200.669 567.038 200.886 567.431 201.319 567.747C201.753 568.058 202.468 568.362 203.464 568.661C204.46 568.954 205.26 569.291 205.863 569.672C206.467 570.047 206.909 570.48 207.19 570.973C207.472 571.459 207.612 572.03 207.612 572.687C207.612 573.753 207.202 574.603 206.382 575.235C205.567 575.862 204.46 576.176 203.06 576.176C202.134 576.176 201.281 576.006 200.502 575.666C199.729 575.32 199.125 574.846 198.691 574.242C198.264 573.639 198.05 572.936 198.05 572.133H200.273C200.273 572.859 200.514 573.422 200.994 573.82C201.475 574.219 202.163 574.418 203.06 574.418C203.833 574.418 204.413 574.263 204.8 573.952C205.192 573.636 205.389 573.22 205.389 572.704ZM291.662 572.66C291.662 572.162 291.504 571.752 291.188 571.43C290.871 571.102 290.344 570.809 289.605 570.551C288.867 570.287 288.293 570.044 287.883 569.821C286.518 569.089 285.835 568.005 285.835 566.569C285.835 565.597 286.131 564.797 286.723 564.17C287.314 563.543 288.117 563.171 289.131 563.054V561.138H290.537V563.071C291.557 563.218 292.345 563.651 292.901 564.372C293.458 565.087 293.736 566.019 293.736 567.167H291.609C291.609 566.429 291.442 565.849 291.108 565.427C290.78 564.999 290.332 564.785 289.764 564.785C289.201 564.785 288.762 564.938 288.445 565.242C288.129 565.547 287.971 565.983 287.971 566.552C287.971 567.062 288.126 567.472 288.437 567.782C288.753 568.087 289.286 568.377 290.036 568.652C290.786 568.928 291.375 569.183 291.803 569.417C292.23 569.651 292.591 569.921 292.884 570.226C293.177 570.524 293.402 570.87 293.561 571.263C293.719 571.655 293.798 572.115 293.798 572.643C293.798 573.633 293.493 574.436 292.884 575.051C292.28 575.666 291.437 576.029 290.353 576.141V577.854H288.955V576.149C287.795 576.021 286.901 575.604 286.274 574.901C285.653 574.198 285.343 573.267 285.343 572.106H287.479C287.479 572.845 287.663 573.416 288.032 573.82C288.407 574.225 288.935 574.427 289.614 574.427C290.282 574.427 290.789 574.266 291.135 573.943C291.486 573.621 291.662 573.193 291.662 572.66ZM301.436 576H299.309V565.726L296.171 566.798V564.996L301.163 563.159H301.436V576ZM307.351 573.75C307.749 573.75 308.057 573.864 308.273 574.093C308.49 574.315 308.599 574.597 308.599 574.937C308.599 575.271 308.49 575.549 308.273 575.771C308.057 575.988 307.749 576.097 307.351 576.097C306.97 576.097 306.668 575.988 306.445 575.771C306.223 575.555 306.111 575.276 306.111 574.937C306.111 574.597 306.22 574.315 306.437 574.093C306.653 573.864 306.958 573.75 307.351 573.75ZM316.966 570.647C316.251 571.403 315.416 571.781 314.461 571.781C313.336 571.781 312.439 571.389 311.771 570.604C311.104 569.812 310.77 568.775 310.77 567.492C310.77 566.648 310.939 565.884 311.279 565.198C311.619 564.513 312.103 563.979 312.729 563.599C313.356 563.218 314.083 563.027 314.909 563.027C316.198 563.027 317.221 563.508 317.977 564.469C318.732 565.43 319.11 566.716 319.11 568.327V568.925C319.11 571.233 318.589 572.994 317.546 574.207C316.503 575.42 314.947 576.035 312.879 576.053H312.624V574.286H312.932C314.191 574.269 315.158 573.967 315.832 573.381C316.506 572.789 316.884 571.878 316.966 570.647ZM314.909 570.111C315.337 570.111 315.738 569.988 316.113 569.742C316.488 569.496 316.778 569.156 316.983 568.723V567.888C316.983 566.944 316.79 566.186 316.403 565.611C316.017 565.037 315.516 564.75 314.9 564.75C314.285 564.75 313.793 565.005 313.424 565.515C313.061 566.019 312.879 566.657 312.879 567.431C312.879 568.233 313.063 568.881 313.433 569.373C313.802 569.865 314.294 570.111 314.909 570.111ZM329.2 566.578C329.2 567.205 329.039 567.765 328.717 568.257C328.395 568.743 327.955 569.127 327.398 569.408C328.066 569.719 328.579 570.144 328.937 570.683C329.3 571.222 329.481 571.831 329.481 572.511C329.481 573.636 329.101 574.529 328.339 575.191C327.577 575.848 326.563 576.176 325.298 576.176C324.026 576.176 323.007 575.845 322.239 575.183C321.478 574.521 321.097 573.63 321.097 572.511C321.097 571.825 321.278 571.21 321.642 570.665C322.005 570.12 322.515 569.701 323.171 569.408C322.62 569.127 322.184 568.743 321.861 568.257C321.545 567.765 321.387 567.205 321.387 566.578C321.387 565.488 321.738 564.624 322.441 563.985C323.145 563.347 324.094 563.027 325.289 563.027C326.49 563.027 327.442 563.347 328.146 563.985C328.849 564.624 329.2 565.488 329.2 566.578ZM327.346 572.405C327.346 571.772 327.155 571.263 326.774 570.876C326.399 570.483 325.901 570.287 325.28 570.287C324.659 570.287 324.161 570.48 323.786 570.867C323.417 571.254 323.232 571.767 323.232 572.405C323.232 573.032 323.414 573.533 323.777 573.908C324.146 574.283 324.653 574.471 325.298 574.471C325.942 574.471 326.443 574.289 326.801 573.926C327.164 573.562 327.346 573.056 327.346 572.405ZM327.073 566.657C327.073 566.101 326.912 565.644 326.59 565.286C326.268 564.923 325.834 564.741 325.289 564.741C324.744 564.741 324.313 564.914 323.997 565.26C323.681 565.6 323.522 566.065 323.522 566.657C323.522 567.243 323.681 567.709 323.997 568.055C324.319 568.4 324.753 568.573 325.298 568.573C325.843 568.573 326.273 568.4 326.59 568.055C326.912 567.709 327.073 567.243 327.073 566.657Z" fill="white"/>
<rect width="405" height="751" fill="black" fill-opacity="0"/>
<rect width="405" height="751" fill="black" fill-opacity="0"/>
<path d="M380.997 637.129H23.9758V58.6816H380.997V637.129ZM174.704 695.864C174.704 679.961 187.482 667.06 203.247 667.06C219.017 667.06 231.789 679.961 231.789 695.864C231.789 711.762 219.017 724.685 203.247 724.685C187.482 724.664 174.704 711.762 174.704 695.864ZM404.951 722.007H405V28.7831V28.7777V28.6375H404.989C404.914 12.8098 392.066 0 376.204 0C376.091 0 375.999 0.0107782 375.897 0.0107782V0H311.216H122.515H28.7688C12.9287 0.0107782 0.0916516 12.8206 0.00538848 28.6375H0V722.001H0.043149C0.0323661 722.303 0 722.6 0 722.912C0 738.422 13.0419 751 29.1354 751C29.3726 751 29.6044 750.968 29.8416 750.962V751H376.598C392.255 751 404.995 738.427 404.995 722.912C405 722.605 404.962 722.303 404.951 722.007Z" fill="#161515"/>
<defs>
<filter id="filter0_d" x="135" y="225" width="135" height="135" filterUnits="userSpaceOnUse" color-interpolation-filters="sRGB">
<feFlood flood-opacity="0" result="BackgroundImageFix"/>
<feColorMatrix in="SourceAlpha" type="matrix" values="0 0 0 0 0 0 0 0 0 0 0 0 0 0 0 0 0 0 127 0"/>
<feOffset dy="4"/>
<feGaussianBlur stdDeviation="2"/>
<feColorMatrix type="matrix" values="0 0 0 0 0 0 0 0 0 0 0 0 0 0 0 0 0 0 0.25 0"/>
<feBlend mode="normal" in2="BackgroundImageFix" result="effect1_dropShadow"/>
<feBlend mode="normal" in="SourceGraphic" in2="effect1_dropShadow" result="shape"/>
</filter>
<filter id="filter1_d" x="51" y="469" width="304" height="60" filterUnits="userSpaceOnUse" color-interpolation-filters="sRGB">
<feFlood flood-opacity="0" result="BackgroundImageFix"/>
<feColorMatrix in="SourceAlpha" type="matrix" values="0 0 0 0 0 0 0 0 0 0 0 0 0 0 0 0 0 0 127 0"/>
<feOffset dy="4"/>
<feGaussianBlur stdDeviation="2"/>
<feColorMatrix type="matrix" values="0 0 0 0 0 0 0 0 0 0 0 0 0 0 0 0 0 0 0.25 0"/>
<feBlend mode="normal" in2="BackgroundImageFix" result="effect1_dropShadow"/>
<feBlend mode="normal" in="SourceGraphic" in2="effect1_dropShadow" result="shape"/>
</filter>
<filter id="filter2_d" x="51" y="617" width="304" height="60" filterUnits="userSpaceOnUse" color-interpolation-filters="sRGB">
<feFlood flood-opacity="0" result="BackgroundImageFix"/>
<feColorMatrix in="SourceAlpha" type="matrix" values="0 0 0 0 0 0 0 0 0 0 0 0 0 0 0 0 0 0 127 0"/>
<feOffset dy="4"/>
<feGaussianBlur stdDeviation="2"/>
<feColorMatrix type="matrix" values="0 0 0 0 0 0 0 0 0 0 0 0 0 0 0 0 0 0 0.25 0"/>
<feBlend mode="normal" in2="BackgroundImageFix" result="effect1_dropShadow"/>
<feBlend mode="normal" in="SourceGraphic" in2="effect1_dropShadow" result="shape"/>
</filter>
<filter id="filter3_d" x="51" y="543" width="304" height="60" filterUnits="userSpaceOnUse" color-interpolation-filters="sRGB">
<feFlood flood-opacity="0" result="BackgroundImageFix"/>
<feColorMatrix in="SourceAlpha" type="matrix" values="0 0 0 0 0 0 0 0 0 0 0 0 0 0 0 0 0 0 127 0"/>
<feOffset dy="4"/>
<feGaussianBlur stdDeviation="2"/>
<feColorMatrix type="matrix" values="0 0 0 0 0 0 0 0 0 0 0 0 0 0 0 0 0 0 0.25 0"/>
<feBlend mode="normal" in2="BackgroundImageFix" result="effect1_dropShadow"/>
<feBlend mode="normal" in="SourceGraphic" in2="effect1_dropShadow" result="shape"/>
</filter>
</defs>
</svg>
