<svg width="405" height="751" viewBox="0 0 405 751" fill="none" xmlns="http://www.w3.org/2000/svg">
<rect x="20" y="52.9177" width="361" height="600.082" fill="#413E3F"/>
<path d="M20 641.329V50H385V641.329H20Z" fill="url(#paint0_linear)"/>
<path d="M380.997 637.129H23.9758V58.6816H380.997V637.129ZM174.704 695.864C174.704 679.961 187.482 667.06 203.247 667.06C219.017 667.06 231.789 679.961 231.789 695.864C231.789 711.762 219.017 724.685 203.247 724.685C187.482 724.664 174.704 711.762 174.704 695.864ZM404.951 722.007H405V28.7831V28.7777V28.6375H404.989C404.914 12.8098 392.066 0 376.204 0C376.091 0 375.999 0.0107782 375.897 0.0107782V0H311.216H122.515H28.7688C12.9287 0.0107782 0.0916516 12.8206 0.00538848 28.6375H0V722.001H0.043149C0.0323661 722.303 0 722.6 0 722.912C0 738.422 13.0419 751 29.1354 751C29.3726 751 29.6044 750.968 29.8416 750.962V751H376.598C392.255 751 404.995 738.427 404.995 722.912C405 722.605 404.962 722.303 404.951 722.007Z" fill="#161515"/>
<circle cx="201" cy="288" r="105.5" fill="#8A3B3B" stroke="white" stroke-width="5"/>
<line x1="201.5" y1="288.981" x2="201.5" y2="342.019" stroke="white" stroke-width="5"/>
<line x1="200.996" y1="290.505" x2="247.996" y2="227.505" stroke="white" stroke-width="5"/>
<path d="M199.511 211H197.384V200.726L194.246 201.798V199.996L199.238 198.159H199.511V211ZM212.562 211H203.958V209.532L208.221 204.883C208.836 204.197 209.272 203.626 209.53 203.169C209.794 202.706 209.926 202.243 209.926 201.78C209.926 201.171 209.753 200.679 209.407 200.304C209.067 199.929 208.607 199.741 208.027 199.741C207.336 199.741 206.8 199.952 206.419 200.374C206.038 200.796 205.848 201.373 205.848 202.105H203.712C203.712 201.326 203.888 200.626 204.239 200.005C204.597 199.378 205.104 198.892 205.76 198.546C206.422 198.2 207.184 198.027 208.045 198.027C209.287 198.027 210.266 198.341 210.98 198.968C211.701 199.589 212.062 200.45 212.062 201.552C212.062 202.19 211.88 202.861 211.517 203.564C211.159 204.262 210.57 205.056 209.75 205.946L206.621 209.295H212.562V211Z" fill="black"/>
<path d="M118.898 293.647C118.184 294.403 117.349 294.781 116.394 294.781C115.269 294.781 114.372 294.389 113.704 293.604C113.036 292.812 112.702 291.775 112.702 290.492C112.702 289.648 112.872 288.884 113.212 288.198C113.552 287.513 114.035 286.979 114.662 286.599C115.289 286.218 116.016 286.027 116.842 286.027C118.131 286.027 119.153 286.508 119.909 287.469C120.665 288.43 121.043 289.716 121.043 291.327V291.925C121.043 294.233 120.521 295.994 119.479 297.207C118.436 298.42 116.88 299.035 114.812 299.053H114.557V297.286H114.864C116.124 297.269 117.091 296.967 117.765 296.381C118.438 295.789 118.816 294.878 118.898 293.647ZM116.842 293.111C117.27 293.111 117.671 292.988 118.046 292.742C118.421 292.496 118.711 292.156 118.916 291.723V290.888C118.916 289.944 118.723 289.186 118.336 288.611C117.949 288.037 117.448 287.75 116.833 287.75C116.218 287.75 115.726 288.005 115.356 288.515C114.993 289.019 114.812 289.657 114.812 290.431C114.812 291.233 114.996 291.881 115.365 292.373C115.734 292.865 116.227 293.111 116.842 293.111Z" fill="black"/>
<path d="M279.312 291.626H280.613C281.27 291.62 281.788 291.45 282.169 291.116C282.556 290.782 282.749 290.299 282.749 289.666C282.749 289.057 282.588 288.585 282.266 288.251C281.949 287.911 281.463 287.741 280.807 287.741C280.232 287.741 279.761 287.908 279.392 288.242C279.022 288.57 278.838 289.001 278.838 289.534H276.702C276.702 288.878 276.875 288.28 277.221 287.741C277.572 287.202 278.059 286.783 278.68 286.484C279.307 286.18 280.007 286.027 280.78 286.027C282.058 286.027 283.06 286.35 283.786 286.994C284.519 287.633 284.885 288.523 284.885 289.666C284.885 290.24 284.7 290.782 284.331 291.292C283.968 291.796 283.496 292.177 282.916 292.435C283.619 292.675 284.152 293.053 284.516 293.568C284.885 294.084 285.069 294.699 285.069 295.414C285.069 296.562 284.674 297.477 283.883 298.156C283.098 298.836 282.063 299.176 280.78 299.176C279.55 299.176 278.542 298.848 277.757 298.191C276.972 297.535 276.579 296.662 276.579 295.572H278.715C278.715 296.135 278.902 296.592 279.277 296.943C279.658 297.295 280.168 297.471 280.807 297.471C281.469 297.471 281.99 297.295 282.371 296.943C282.752 296.592 282.942 296.082 282.942 295.414C282.942 294.74 282.743 294.222 282.345 293.858C281.946 293.495 281.354 293.313 280.569 293.313H279.312V291.626Z" fill="black"/>
<path d="M203.487 366.142V367.908H203.224C202.028 367.926 201.073 368.254 200.358 368.893C199.644 369.531 199.219 370.437 199.084 371.608C199.77 370.888 200.646 370.527 201.712 370.527C202.843 370.527 203.733 370.926 204.384 371.723C205.04 372.52 205.368 373.548 205.368 374.808C205.368 376.108 204.984 377.163 204.217 377.972C203.455 378.774 202.453 379.176 201.211 379.176C199.934 379.176 198.896 378.704 198.1 377.761C197.309 376.817 196.913 375.581 196.913 374.052V373.322C196.913 371.078 197.458 369.32 198.548 368.049C199.644 366.777 201.217 366.142 203.268 366.142H203.487ZM201.193 372.25C200.725 372.25 200.294 372.382 199.901 372.646C199.515 372.909 199.23 373.261 199.049 373.7V374.351C199.049 375.3 199.248 376.056 199.646 376.618C200.045 377.175 200.561 377.453 201.193 377.453C201.826 377.453 202.327 377.216 202.696 376.741C203.065 376.267 203.25 375.643 203.25 374.869C203.25 374.096 203.062 373.466 202.688 372.979C202.312 372.493 201.814 372.25 201.193 372.25Z" fill="black"/>
<path d="M121.674 511.966H117.354V510.4H127.776V511.966H123.456V523H121.674V511.966ZM134.579 513.37C135.791 513.37 136.751 513.724 137.459 514.432C138.179 515.128 138.539 516.154 138.539 517.51V523H136.811V517.708C136.811 516.784 136.589 516.088 136.145 515.62C135.701 515.152 135.065 514.918 134.237 514.918C133.301 514.918 132.563 515.194 132.023 515.746C131.483 516.286 131.213 517.066 131.213 518.086V523H129.485V509.644H131.213V514.81C131.573 514.354 132.041 514 132.617 513.748C133.205 513.496 133.859 513.37 134.579 513.37ZM150.629 513.46V523H148.991V521.56C148.643 522.052 148.181 522.436 147.605 522.712C147.041 522.976 146.423 523.108 145.751 523.108C144.479 523.108 143.477 522.76 142.745 522.064C142.013 521.356 141.647 520.318 141.647 518.95V513.46H143.375V518.752C143.375 519.676 143.597 520.378 144.041 520.858C144.485 521.326 145.121 521.56 145.949 521.56C146.861 521.56 147.581 521.284 148.109 520.732C148.637 520.18 148.901 519.4 148.901 518.392V513.46H150.629ZM155.574 515.062C155.874 514.51 156.318 514.09 156.906 513.802C157.494 513.514 158.208 513.37 159.048 513.37V515.044C158.952 515.032 158.82 515.026 158.652 515.026C157.716 515.026 156.978 515.308 156.438 515.872C155.91 516.424 155.646 517.216 155.646 518.248V523H153.918V513.46H155.574V515.062ZM163.984 523.108C163.204 523.108 162.454 523.006 161.734 522.802C161.014 522.586 160.45 522.316 160.042 521.992L160.762 520.624C161.182 520.924 161.692 521.164 162.292 521.344C162.892 521.524 163.498 521.614 164.11 521.614C165.622 521.614 166.378 521.182 166.378 520.318C166.378 520.03 166.276 519.802 166.072 519.634C165.868 519.466 165.61 519.346 165.298 519.274C164.998 519.19 164.566 519.1 164.002 519.004C163.234 518.884 162.604 518.746 162.112 518.59C161.632 518.434 161.218 518.17 160.87 517.798C160.522 517.426 160.348 516.904 160.348 516.232C160.348 515.368 160.708 514.678 161.428 514.162C162.148 513.634 163.114 513.37 164.326 513.37C164.962 513.37 165.598 513.448 166.234 513.604C166.87 513.76 167.392 513.97 167.8 514.234L167.062 515.602C166.282 515.098 165.364 514.846 164.308 514.846C163.576 514.846 163.018 514.966 162.634 515.206C162.25 515.446 162.058 515.764 162.058 516.16C162.058 516.472 162.166 516.718 162.382 516.898C162.598 517.078 162.862 517.21 163.174 517.294C163.498 517.378 163.948 517.474 164.524 517.582C165.292 517.714 165.91 517.858 166.378 518.014C166.858 518.158 167.266 518.41 167.602 518.77C167.938 519.13 168.106 519.634 168.106 520.282C168.106 521.146 167.734 521.836 166.99 522.352C166.258 522.856 165.256 523.108 163.984 523.108ZM179.266 509.644V523H177.61V521.488C177.226 522.016 176.74 522.418 176.152 522.694C175.564 522.97 174.916 523.108 174.208 523.108C173.284 523.108 172.456 522.904 171.724 522.496C170.992 522.088 170.416 521.518 169.996 520.786C169.588 520.042 169.384 519.19 169.384 518.23C169.384 517.27 169.588 516.424 169.996 515.692C170.416 514.96 170.992 514.39 171.724 513.982C172.456 513.574 173.284 513.37 174.208 513.37C174.892 513.37 175.522 513.502 176.098 513.766C176.674 514.018 177.154 514.396 177.538 514.9V509.644H179.266ZM174.352 521.596C174.952 521.596 175.498 521.458 175.99 521.182C176.482 520.894 176.866 520.498 177.142 519.994C177.418 519.478 177.556 518.89 177.556 518.23C177.556 517.57 177.418 516.988 177.142 516.484C176.866 515.968 176.482 515.572 175.99 515.296C175.498 515.02 174.952 514.882 174.352 514.882C173.74 514.882 173.188 515.02 172.696 515.296C172.216 515.572 171.832 515.968 171.544 516.484C171.268 516.988 171.13 517.57 171.13 518.23C171.13 518.89 171.268 519.478 171.544 519.994C171.832 520.498 172.216 520.894 172.696 521.182C173.188 521.458 173.74 521.596 174.352 521.596ZM186.009 513.37C187.329 513.37 188.337 513.694 189.033 514.342C189.741 514.99 190.095 515.956 190.095 517.24V523H188.457V521.74C188.169 522.184 187.755 522.526 187.215 522.766C186.687 522.994 186.057 523.108 185.325 523.108C184.257 523.108 183.399 522.85 182.751 522.334C182.115 521.818 181.797 521.14 181.797 520.3C181.797 519.46 182.103 518.788 182.715 518.284C183.327 517.768 184.299 517.51 185.631 517.51H188.367V517.168C188.367 516.424 188.151 515.854 187.719 515.458C187.287 515.062 186.651 514.864 185.811 514.864C185.247 514.864 184.695 514.96 184.155 515.152C183.615 515.332 183.159 515.578 182.787 515.89L182.067 514.594C182.559 514.198 183.147 513.898 183.831 513.694C184.515 513.478 185.241 513.37 186.009 513.37ZM185.613 521.776C186.273 521.776 186.843 521.632 187.323 521.344C187.803 521.044 188.151 520.624 188.367 520.084V518.752H185.703C184.239 518.752 183.507 519.244 183.507 520.228C183.507 520.708 183.693 521.086 184.065 521.362C184.437 521.638 184.953 521.776 185.613 521.776ZM201.559 513.46L196.933 523.954C196.525 524.926 196.045 525.61 195.493 526.006C194.953 526.402 194.299 526.6 193.531 526.6C193.063 526.6 192.607 526.522 192.163 526.366C191.731 526.222 191.371 526.006 191.083 525.718L191.821 524.422C192.313 524.89 192.883 525.124 193.531 525.124C193.951 525.124 194.299 525.01 194.575 524.782C194.863 524.566 195.121 524.188 195.349 523.648L195.655 522.982L191.443 513.46H193.243L196.573 521.092L199.867 513.46H201.559ZM216.286 519.85H209.59L208.204 523H206.35L212.056 510.4H213.838L219.562 523H217.672L216.286 519.85ZM215.656 518.41L212.938 512.236L210.22 518.41H215.656ZM229.906 513.46V523H228.268V521.56C227.92 522.052 227.458 522.436 226.882 522.712C226.318 522.976 225.7 523.108 225.028 523.108C223.756 523.108 222.754 522.76 222.022 522.064C221.29 521.356 220.924 520.318 220.924 518.95V513.46H222.652V518.752C222.652 519.676 222.874 520.378 223.318 520.858C223.762 521.326 224.398 521.56 225.226 521.56C226.138 521.56 226.858 521.284 227.386 520.732C227.914 520.18 228.178 519.4 228.178 518.392V513.46H229.906ZM242.322 513.46V521.704C242.322 523.372 241.908 524.602 241.08 525.394C240.252 526.198 239.016 526.6 237.372 526.6C236.472 526.6 235.614 526.474 234.798 526.222C233.982 525.982 233.322 525.634 232.818 525.178L233.646 523.846C234.09 524.23 234.636 524.53 235.284 524.746C235.944 524.974 236.622 525.088 237.318 525.088C238.434 525.088 239.256 524.824 239.784 524.296C240.324 523.768 240.594 522.964 240.594 521.884V521.128C240.186 521.62 239.682 521.992 239.082 522.244C238.494 522.484 237.852 522.604 237.156 522.604C236.244 522.604 235.416 522.412 234.672 522.028C233.94 521.632 233.364 521.086 232.944 520.39C232.524 519.682 232.314 518.878 232.314 517.978C232.314 517.078 232.524 516.28 232.944 515.584C233.364 514.876 233.94 514.33 234.672 513.946C235.416 513.562 236.244 513.37 237.156 513.37C237.876 513.37 238.542 513.502 239.154 513.766C239.778 514.03 240.288 514.42 240.684 514.936V513.46H242.322ZM237.354 521.092C237.978 521.092 238.536 520.96 239.028 520.696C239.532 520.432 239.922 520.066 240.198 519.598C240.486 519.118 240.63 518.578 240.63 517.978C240.63 517.054 240.324 516.31 239.712 515.746C239.1 515.17 238.314 514.882 237.354 514.882C236.382 514.882 235.59 515.17 234.978 515.746C234.366 516.31 234.06 517.054 234.06 517.978C234.06 518.578 234.198 519.118 234.474 519.598C234.762 520.066 235.152 520.432 235.644 520.696C236.148 520.96 236.718 521.092 237.354 521.092ZM254.515 513.46V523H252.877V521.56C252.529 522.052 252.067 522.436 251.491 522.712C250.927 522.976 250.309 523.108 249.637 523.108C248.365 523.108 247.363 522.76 246.631 522.064C245.899 521.356 245.533 520.318 245.533 518.95V513.46H247.261V518.752C247.261 519.676 247.483 520.378 247.927 520.858C248.371 521.326 249.007 521.56 249.835 521.56C250.747 521.56 251.467 521.284 251.995 520.732C252.523 520.18 252.787 519.4 252.787 518.392V513.46H254.515ZM260.541 523.108C259.761 523.108 259.011 523.006 258.291 522.802C257.571 522.586 257.007 522.316 256.599 521.992L257.319 520.624C257.739 520.924 258.249 521.164 258.849 521.344C259.449 521.524 260.055 521.614 260.667 521.614C262.179 521.614 262.935 521.182 262.935 520.318C262.935 520.03 262.833 519.802 262.629 519.634C262.425 519.466 262.167 519.346 261.855 519.274C261.555 519.19 261.123 519.1 260.559 519.004C259.791 518.884 259.161 518.746 258.669 518.59C258.189 518.434 257.775 518.17 257.427 517.798C257.079 517.426 256.905 516.904 256.905 516.232C256.905 515.368 257.265 514.678 257.985 514.162C258.705 513.634 259.671 513.37 260.883 513.37C261.519 513.37 262.155 513.448 262.791 513.604C263.427 513.76 263.949 513.97 264.357 514.234L263.619 515.602C262.839 515.098 261.921 514.846 260.865 514.846C260.133 514.846 259.575 514.966 259.191 515.206C258.807 515.446 258.615 515.764 258.615 516.16C258.615 516.472 258.723 516.718 258.939 516.898C259.155 517.078 259.419 517.21 259.731 517.294C260.055 517.378 260.505 517.474 261.081 517.582C261.849 517.714 262.467 517.858 262.935 518.014C263.415 518.158 263.823 518.41 264.159 518.77C264.495 519.13 264.663 519.634 264.663 520.282C264.663 521.146 264.291 521.836 263.547 522.352C262.815 522.856 261.813 523.108 260.541 523.108ZM272.187 522.442C271.935 522.658 271.623 522.826 271.251 522.946C270.879 523.054 270.495 523.108 270.099 523.108C269.139 523.108 268.395 522.85 267.867 522.334C267.339 521.818 267.075 521.08 267.075 520.12V514.882H265.455V513.46H267.075V511.372H268.803V513.46H271.539V514.882H268.803V520.048C268.803 520.564 268.929 520.96 269.181 521.236C269.445 521.512 269.817 521.65 270.297 521.65C270.825 521.65 271.275 521.5 271.647 521.2L272.187 522.442ZM282.242 510.4V523H280.46V511.966H277.616V510.4H282.242ZM292.702 516.394C293.422 516.67 293.974 517.066 294.358 517.582C294.742 518.098 294.934 518.716 294.934 519.436C294.934 520.192 294.73 520.852 294.322 521.416C293.914 521.968 293.332 522.394 292.576 522.694C291.82 522.994 290.932 523.144 289.912 523.144C288.904 523.144 288.022 522.994 287.266 522.694C286.522 522.394 285.946 521.968 285.538 521.416C285.13 520.852 284.926 520.192 284.926 519.436C284.926 518.716 285.112 518.098 285.484 517.582C285.868 517.066 286.42 516.67 287.14 516.394C286.564 516.118 286.126 515.752 285.826 515.296C285.526 514.84 285.376 514.3 285.376 513.676C285.376 512.98 285.562 512.374 285.934 511.858C286.318 511.342 286.852 510.946 287.536 510.67C288.22 510.394 289.012 510.256 289.912 510.256C290.824 510.256 291.622 510.394 292.306 510.67C293.002 510.946 293.536 511.342 293.908 511.858C294.292 512.374 294.484 512.98 294.484 513.676C294.484 514.288 294.328 514.828 294.016 515.296C293.716 515.752 293.278 516.118 292.702 516.394ZM289.912 511.714C289.06 511.714 288.388 511.9 287.896 512.272C287.404 512.632 287.158 513.124 287.158 513.748C287.158 514.372 287.398 514.864 287.878 515.224C288.37 515.584 289.048 515.764 289.912 515.764C290.788 515.764 291.472 515.584 291.964 515.224C292.468 514.864 292.72 514.372 292.72 513.748C292.72 513.124 292.462 512.632 291.946 512.272C291.442 511.9 290.764 511.714 289.912 511.714ZM289.912 521.686C290.908 521.686 291.694 521.482 292.27 521.074C292.846 520.654 293.134 520.09 293.134 519.382C293.134 518.686 292.846 518.14 292.27 517.744C291.694 517.336 290.908 517.132 289.912 517.132C288.916 517.132 288.136 517.336 287.572 517.744C287.008 518.14 286.726 518.686 286.726 519.382C286.726 520.09 287.008 520.654 287.572 521.074C288.136 521.482 288.916 521.686 289.912 521.686Z" fill="#C2FBFB"/>
<path d="M142.625 449.48V497H137.081V455.672L124.841 463.736L122.321 459.56L137.441 449.48H142.625ZM162.466 451.856C165.49 449.744 169.642 448.688 174.922 448.688C180.202 448.688 184.378 449.744 187.45 451.856C190.57 453.92 192.13 456.992 192.13 461.072C192.13 464.048 191.53 466.328 190.33 467.912C189.13 469.448 187.09 470.864 184.21 472.16C187.09 473.456 189.25 474.992 190.69 476.768C192.13 478.496 192.85 480.944 192.85 484.112C192.85 493.184 186.898 497.72 174.994 497.72C163.138 497.72 157.21 493.448 157.21 484.904C157.21 481.496 157.858 478.904 159.154 477.128C160.498 475.352 162.586 473.696 165.418 472.16C162.826 470.864 160.93 469.4 159.73 467.768C158.578 466.088 158.002 463.832 158.002 461C158.002 456.968 159.49 453.92 162.466 451.856ZM163.114 483.968C163.114 489.776 167.074 492.68 174.994 492.68C182.962 492.68 186.946 489.632 186.946 483.536C186.946 480.992 186.226 479.12 184.786 477.92C183.394 476.672 181.306 475.64 178.522 474.824H170.962C168.322 475.544 166.354 476.624 165.058 478.064C163.762 479.456 163.114 481.424 163.114 483.968ZM186.226 461.72C186.226 456.392 182.506 453.728 175.066 453.728C167.626 453.728 163.906 456.368 163.906 461.648C163.906 463.76 164.482 465.464 165.634 466.76C166.786 468.056 168.562 469.136 170.962 470H178.522C181.114 469.184 183.034 468.128 184.282 466.832C185.578 465.536 186.226 463.832 186.226 461.72ZM200.019 473.816V465.608H205.923V473.816H200.019ZM200.019 497V488.792H205.923V497H200.019ZM230.893 448.688C234.829 448.688 238.021 449.432 240.469 450.92C245.653 453.992 248.245 461.672 248.245 473.96C248.245 482.648 246.805 488.792 243.925 492.392C241.045 495.944 236.725 497.72 230.965 497.72C225.205 497.72 220.861 495.968 217.933 492.464C215.053 488.912 213.613 482.624 213.613 473.6C213.613 464.528 215.029 458.12 217.861 454.376C220.741 450.584 225.085 448.688 230.893 448.688ZM230.965 453.656C228.229 453.656 226.069 454.232 224.485 455.384C221.077 457.736 219.373 463.952 219.373 474.032C219.373 481.136 220.309 486.056 222.181 488.792C224.053 491.48 226.981 492.824 230.965 492.824C234.949 492.824 237.877 491.456 239.749 488.72C241.621 485.984 242.557 480.92 242.557 473.528C242.557 466.088 241.645 460.928 239.821 458.048C238.045 455.12 235.093 453.656 230.965 453.656ZM256.638 454.52V449.48H286.158V456.752L267.87 497.72L262.614 496.064L280.542 456.392V454.52H256.638Z" fill="#C2FBFB"/>
<defs>
<linearGradient id="paint0_linear" x1="202.5" y1="50" x2="202.5" y2="641.329" gradientUnits="userSpaceOnUse">
<stop stop-color="#315E56"/>
<stop offset="1" stop-color="#3FB39E" stop-opacity="0"/>
</linearGradient>
</defs>
</svg>
