<svg width="405" height="751" viewBox="0 0 405 751" fill="none" xmlns="http://www.w3.org/2000/svg">
<rect width="405" height="751" fill="black" fill-opacity="0"/>
<rect width="405" height="751" fill="black" fill-opacity="0"/>
<path d="M380.997 637.129H23.9758V58.6816H380.997V637.129ZM174.704 695.864C174.704 679.961 187.482 667.06 203.247 667.06C219.017 667.06 231.789 679.961 231.789 695.864C231.789 711.762 219.017 724.685 203.247 724.685C187.482 724.664 174.704 711.762 174.704 695.864ZM404.951 722.007H405V28.7831V28.7777V28.6375H404.989C404.914 12.8098 392.066 0 376.204 0C376.091 0 375.999 0.0107782 375.897 0.0107782V0H311.216H122.515H28.7688C12.9287 0.0107782 0.0916516 12.8206 0.00538848 28.6375H0V722.001H0.043149C0.0323661 722.303 0 722.6 0 722.912C0 738.422 13.0419 751 29.1354 751C29.3726 751 29.6044 750.968 29.8416 750.962V751H376.598C392.255 751 404.995 738.427 404.995 722.912C405 722.605 404.962 722.303 404.951 722.007Z" fill="#161515"/>
<rect width="360" height="584" fill="black" fill-opacity="0" transform="translate(23 55)"/>
<g clip-path="url(#clip0)">
<rect width="360" height="584" fill="#352A2A" transform="translate(23 55)"/>
<g filter="url(#filter0_d)">
<rect x="23" y="55" width="360" height="83" fill="#584734"/>
</g>
<path d="M101.942 210V194.359H107.056C108.753 194.359 110.028 194.71 110.88 195.412C111.739 196.114 112.169 197.152 112.169 198.527C112.169 199.258 111.961 199.906 111.546 200.472C111.131 201.03 110.565 201.464 109.849 201.771C110.694 202.008 111.36 202.459 111.847 203.125C112.341 203.784 112.588 204.572 112.588 205.488C112.588 206.892 112.133 207.995 111.224 208.797C110.314 209.599 109.029 210 107.367 210H101.942ZM104.005 202.685V208.313H107.41C108.37 208.313 109.125 208.066 109.677 207.572C110.235 207.071 110.515 206.383 110.515 205.51C110.515 203.626 109.491 202.685 107.442 202.685H104.005ZM104.005 201.03H107.12C108.022 201.03 108.742 200.805 109.279 200.354C109.824 199.902 110.096 199.29 110.096 198.517C110.096 197.657 109.845 197.034 109.344 196.647C108.842 196.254 108.08 196.057 107.056 196.057H104.005V201.03ZM122.514 208.851C121.74 209.76 120.605 210.215 119.108 210.215C117.869 210.215 116.924 209.857 116.272 209.141C115.628 208.417 115.302 207.35 115.295 205.939V198.377H117.282V205.886C117.282 207.647 117.998 208.528 119.431 208.528C120.949 208.528 121.959 207.963 122.46 206.831V198.377H124.447V210H122.557L122.514 208.851ZM131.279 207.089L133.986 198.377H136.113L131.44 211.794C130.717 213.728 129.568 214.694 127.992 214.694L127.616 214.662L126.875 214.522V212.911L127.412 212.954C128.085 212.954 128.608 212.818 128.98 212.546C129.36 212.274 129.672 211.776 129.915 211.053L130.355 209.871L126.209 198.377H128.379L131.279 207.089ZM144.062 202.158L144.857 194.359H152.871V196.196H146.544L146.071 200.461C146.838 200.01 147.708 199.784 148.682 199.784C150.107 199.784 151.238 200.257 152.076 201.202C152.914 202.14 153.333 203.411 153.333 205.016C153.333 206.627 152.896 207.898 152.022 208.829C151.156 209.753 149.942 210.215 148.381 210.215C146.999 210.215 145.871 209.832 144.997 209.065C144.123 208.299 143.626 207.239 143.504 205.886H145.384C145.506 206.781 145.824 207.458 146.34 207.916C146.855 208.367 147.536 208.593 148.381 208.593C149.305 208.593 150.028 208.278 150.551 207.647C151.081 207.017 151.346 206.147 151.346 205.037C151.346 203.992 151.059 203.154 150.486 202.523C149.921 201.886 149.165 201.567 148.22 201.567C147.353 201.567 146.673 201.757 146.179 202.137L145.652 202.566L144.062 202.158ZM165.826 208.593C166.535 208.593 167.155 208.378 167.685 207.948C168.215 207.519 168.508 206.981 168.565 206.337H170.445C170.41 207.003 170.18 207.637 169.758 208.238C169.335 208.84 168.77 209.32 168.061 209.678C167.359 210.036 166.614 210.215 165.826 210.215C164.243 210.215 162.983 209.688 162.045 208.636C161.114 207.576 160.648 206.129 160.648 204.296V203.963C160.648 202.831 160.856 201.825 161.271 200.944C161.687 200.063 162.281 199.38 163.055 198.893C163.835 198.406 164.756 198.162 165.815 198.162C167.119 198.162 168.2 198.552 169.06 199.333C169.926 200.114 170.388 201.127 170.445 202.373H168.565C168.508 201.621 168.222 201.005 167.706 200.525C167.198 200.038 166.567 199.795 165.815 199.795C164.806 199.795 164.021 200.16 163.463 200.891C162.911 201.614 162.636 202.663 162.636 204.038V204.414C162.636 205.753 162.911 206.785 163.463 207.508C164.014 208.231 164.802 208.593 165.826 208.593ZM179.855 208.851C179.082 209.76 177.947 210.215 176.45 210.215C175.211 210.215 174.266 209.857 173.614 209.141C172.97 208.417 172.644 207.35 172.637 205.939V198.377H174.624V205.886C174.624 207.647 175.34 208.528 176.772 208.528C178.291 208.528 179.3 207.963 179.802 206.831V198.377H181.789V210H179.898L179.855 208.851ZM194.637 204.317C194.637 206.086 194.232 207.511 193.423 208.593C192.614 209.674 191.518 210.215 190.136 210.215C188.725 210.215 187.615 209.767 186.806 208.872V214.469H184.818V198.377H186.634L186.73 199.666C187.54 198.663 188.664 198.162 190.104 198.162C191.5 198.162 192.603 198.688 193.412 199.741C194.229 200.794 194.637 202.258 194.637 204.135V204.317ZM192.649 204.092C192.649 202.781 192.37 201.746 191.812 200.987C191.253 200.228 190.487 199.849 189.513 199.849C188.31 199.849 187.407 200.382 186.806 201.449V207.003C187.4 208.063 188.31 208.593 189.534 208.593C190.487 208.593 191.242 208.217 191.801 207.465C192.367 206.706 192.649 205.581 192.649 204.092ZM203.939 206.917C203.939 206.38 203.735 205.965 203.327 205.671C202.926 205.37 202.221 205.112 201.211 204.897C200.208 204.683 199.41 204.425 198.815 204.124C198.228 203.823 197.791 203.465 197.505 203.05C197.226 202.634 197.086 202.14 197.086 201.567C197.086 200.615 197.487 199.809 198.289 199.15C199.098 198.492 200.13 198.162 201.383 198.162C202.701 198.162 203.768 198.502 204.584 199.183C205.408 199.863 205.819 200.733 205.819 201.793H203.821C203.821 201.249 203.589 200.78 203.123 200.386C202.665 199.992 202.085 199.795 201.383 199.795C200.66 199.795 200.094 199.952 199.686 200.268C199.277 200.583 199.073 200.994 199.073 201.503C199.073 201.983 199.263 202.344 199.643 202.588C200.022 202.831 200.706 203.064 201.694 203.286C202.69 203.508 203.495 203.773 204.111 204.081C204.727 204.389 205.182 204.761 205.476 205.198C205.776 205.628 205.927 206.154 205.927 206.777C205.927 207.816 205.511 208.65 204.681 209.28C203.85 209.903 202.772 210.215 201.447 210.215C200.516 210.215 199.693 210.05 198.977 209.721C198.26 209.391 197.698 208.933 197.29 208.346C196.889 207.751 196.688 207.11 196.688 206.423H198.676C198.712 207.089 198.977 207.619 199.471 208.013C199.972 208.399 200.631 208.593 201.447 208.593C202.199 208.593 202.801 208.442 203.252 208.142C203.71 207.834 203.939 207.425 203.939 206.917ZM213.446 204.081C213.446 202.942 213.668 201.918 214.112 201.009C214.563 200.099 215.187 199.397 215.981 198.903C216.784 198.409 217.697 198.162 218.721 198.162C220.303 198.162 221.582 198.71 222.556 199.806C223.537 200.901 224.027 202.359 224.027 204.178V204.317C224.027 205.449 223.809 206.466 223.372 207.368C222.942 208.263 222.323 208.962 221.514 209.463C220.712 209.964 219.788 210.215 218.742 210.215C217.167 210.215 215.888 209.667 214.907 208.571C213.933 207.476 213.446 206.025 213.446 204.221V204.081ZM215.444 204.317C215.444 205.606 215.742 206.641 216.336 207.422C216.938 208.202 217.74 208.593 218.742 208.593C219.752 208.593 220.554 208.199 221.148 207.411C221.743 206.616 222.04 205.506 222.04 204.081C222.04 202.806 221.736 201.775 221.127 200.987C220.525 200.192 219.723 199.795 218.721 199.795C217.74 199.795 216.948 200.185 216.347 200.966C215.745 201.746 215.444 202.864 215.444 204.317ZM227.497 210V199.913H225.66V198.377H227.497V197.185C227.497 195.938 227.83 194.975 228.496 194.295C229.162 193.615 230.104 193.274 231.321 193.274C231.78 193.274 232.234 193.335 232.686 193.457L232.578 195.068C232.242 195.004 231.883 194.972 231.504 194.972C230.859 194.972 230.362 195.161 230.011 195.541C229.66 195.913 229.484 196.451 229.484 197.152V198.377H231.966V199.913H229.484V210H227.497ZM244.287 208.593C244.996 208.593 245.616 208.378 246.146 207.948C246.675 207.519 246.969 206.981 247.026 206.337H248.906C248.87 207.003 248.641 207.637 248.219 208.238C247.796 208.84 247.23 209.32 246.521 209.678C245.82 210.036 245.075 210.215 244.287 210.215C242.704 210.215 241.444 209.688 240.506 208.636C239.575 207.576 239.109 206.129 239.109 204.296V203.963C239.109 202.831 239.317 201.825 239.732 200.944C240.148 200.063 240.742 199.38 241.516 198.893C242.296 198.406 243.216 198.162 244.276 198.162C245.58 198.162 246.661 198.552 247.521 199.333C248.387 200.114 248.849 201.127 248.906 202.373H247.026C246.969 201.621 246.683 201.005 246.167 200.525C245.659 200.038 245.028 199.795 244.276 199.795C243.267 199.795 242.482 200.16 241.924 200.891C241.372 201.614 241.097 202.663 241.097 204.038V204.414C241.097 205.753 241.372 206.785 241.924 207.508C242.475 208.231 243.263 208.593 244.287 208.593ZM250.614 204.081C250.614 202.942 250.836 201.918 251.28 201.009C251.731 200.099 252.354 199.397 253.149 198.903C253.951 198.409 254.865 198.162 255.889 198.162C257.471 198.162 258.75 198.71 259.724 199.806C260.705 200.901 261.195 202.359 261.195 204.178V204.317C261.195 205.449 260.977 206.466 260.54 207.368C260.11 208.263 259.491 208.962 258.682 209.463C257.88 209.964 256.956 210.215 255.91 210.215C254.335 210.215 253.056 209.667 252.075 208.571C251.101 207.476 250.614 206.025 250.614 204.221V204.081ZM252.612 204.317C252.612 205.606 252.91 206.641 253.504 207.422C254.105 208.202 254.908 208.593 255.91 208.593C256.92 208.593 257.722 208.199 258.316 207.411C258.911 206.616 259.208 205.506 259.208 204.081C259.208 202.806 258.904 201.775 258.295 200.987C257.693 200.192 256.891 199.795 255.889 199.795C254.908 199.795 254.116 200.185 253.515 200.966C252.913 201.746 252.612 202.864 252.612 204.317ZM264.665 210V199.913H262.828V198.377H264.665V197.185C264.665 195.938 264.998 194.975 265.664 194.295C266.33 193.615 267.272 193.274 268.489 193.274C268.948 193.274 269.402 193.335 269.854 193.457L269.746 195.068C269.41 195.004 269.051 194.972 268.672 194.972C268.027 194.972 267.53 195.161 267.179 195.541C266.828 195.913 266.652 196.451 266.652 197.152V198.377H269.134V199.913H266.652V210H264.665ZM272.313 210V199.913H270.477V198.377H272.313V197.185C272.313 195.938 272.646 194.975 273.312 194.295C273.979 193.615 274.92 193.274 276.138 193.274C276.596 193.274 277.051 193.335 277.502 193.457L277.395 195.068C277.058 195.004 276.7 194.972 276.32 194.972C275.676 194.972 275.178 195.161 274.827 195.541C274.476 195.913 274.301 196.451 274.301 197.152V198.377H276.782V199.913H274.301V210H272.313ZM283.55 210.215C281.974 210.215 280.692 209.699 279.704 208.668C278.716 207.63 278.222 206.244 278.222 204.511V204.146C278.222 202.993 278.44 201.965 278.877 201.062C279.321 200.153 279.937 199.444 280.725 198.936C281.52 198.42 282.379 198.162 283.303 198.162C284.814 198.162 285.988 198.66 286.826 199.655C287.664 200.651 288.083 202.076 288.083 203.931V204.758H280.209C280.238 205.904 280.571 206.831 281.208 207.54C281.853 208.242 282.669 208.593 283.657 208.593C284.359 208.593 284.953 208.45 285.44 208.163C285.927 207.877 286.354 207.497 286.719 207.024L287.933 207.97C286.959 209.466 285.498 210.215 283.55 210.215ZM283.303 199.795C282.501 199.795 281.827 200.089 281.283 200.676C280.739 201.256 280.402 202.072 280.273 203.125H286.096V202.975C286.038 201.965 285.766 201.184 285.279 200.633C284.792 200.074 284.133 199.795 283.303 199.795ZM295.216 210.215C293.64 210.215 292.358 209.699 291.37 208.668C290.382 207.63 289.888 206.244 289.888 204.511V204.146C289.888 202.993 290.106 201.965 290.543 201.062C290.987 200.153 291.603 199.444 292.391 198.936C293.186 198.42 294.045 198.162 294.969 198.162C296.48 198.162 297.654 198.66 298.492 199.655C299.33 200.651 299.749 202.076 299.749 203.931V204.758H291.875C291.904 205.904 292.237 206.831 292.874 207.54C293.519 208.242 294.335 208.593 295.323 208.593C296.025 208.593 296.619 208.45 297.106 208.163C297.593 207.877 298.02 207.497 298.385 207.024L299.599 207.97C298.625 209.466 297.164 210.215 295.216 210.215ZM294.969 199.795C294.167 199.795 293.493 200.089 292.949 200.676C292.405 201.256 292.068 202.072 291.939 203.125H297.762V202.975C297.704 201.965 297.432 201.184 296.945 200.633C296.458 200.074 295.799 199.795 294.969 199.795ZM301.994 213.115L300.866 212.342C301.539 211.404 301.89 210.437 301.919 209.441V207.647H303.863V209.205C303.863 209.928 303.684 210.652 303.326 211.375C302.975 212.098 302.531 212.678 301.994 213.115ZM105.67 230.092C105.67 228.28 106.089 226.84 106.927 225.773C107.765 224.699 108.875 224.162 110.257 224.162C111.675 224.162 112.781 224.663 113.576 225.666L113.673 224.377H115.488V235.721C115.488 237.225 115.041 238.41 114.146 239.276C113.257 240.143 112.062 240.576 110.558 240.576C109.72 240.576 108.9 240.397 108.098 240.039C107.296 239.681 106.683 239.19 106.261 238.567L107.292 237.375C108.144 238.428 109.186 238.954 110.418 238.954C111.385 238.954 112.137 238.682 112.674 238.138C113.218 237.593 113.49 236.827 113.49 235.839V234.84C112.695 235.757 111.61 236.215 110.235 236.215C108.875 236.215 107.772 235.667 106.927 234.571C106.089 233.476 105.67 231.982 105.67 230.092ZM107.668 230.317C107.668 231.628 107.937 232.659 108.474 233.411C109.011 234.156 109.763 234.528 110.729 234.528C111.983 234.528 112.903 233.959 113.49 232.82V227.514C112.882 226.404 111.968 225.849 110.751 225.849C109.784 225.849 109.029 226.225 108.484 226.977C107.94 227.729 107.668 228.842 107.668 230.317ZM123.319 236.215C121.744 236.215 120.462 235.699 119.474 234.668C118.485 233.63 117.991 232.244 117.991 230.511V230.146C117.991 228.993 118.21 227.965 118.646 227.062C119.09 226.153 119.706 225.444 120.494 224.936C121.289 224.42 122.148 224.162 123.072 224.162C124.583 224.162 125.758 224.66 126.596 225.655C127.434 226.651 127.853 228.076 127.853 229.931V230.758H119.979C120.007 231.904 120.34 232.831 120.978 233.54C121.622 234.242 122.438 234.593 123.427 234.593C124.129 234.593 124.723 234.45 125.21 234.163C125.697 233.877 126.123 233.497 126.488 233.024L127.702 233.97C126.728 235.466 125.267 236.215 123.319 236.215ZM123.072 225.795C122.27 225.795 121.597 226.089 121.053 226.676C120.508 227.256 120.172 228.072 120.043 229.125H125.865V228.975C125.808 227.965 125.536 227.184 125.049 226.633C124.562 226.074 123.903 225.795 123.072 225.795ZM132.858 221.562V224.377H135.028V225.913H132.858V233.121C132.858 233.587 132.955 233.938 133.148 234.174C133.342 234.403 133.671 234.518 134.137 234.518C134.366 234.518 134.681 234.475 135.082 234.389V236C134.559 236.143 134.051 236.215 133.557 236.215C132.669 236.215 131.999 235.946 131.548 235.409C131.097 234.872 130.871 234.109 130.871 233.121V225.913H128.755V224.377H130.871V221.562H132.858ZM145.513 221.562V224.377H147.683V225.913H145.513V233.121C145.513 233.587 145.609 233.938 145.803 234.174C145.996 234.403 146.326 234.518 146.791 234.518C147.02 234.518 147.335 234.475 147.736 234.389V236C147.214 236.143 146.705 236.215 146.211 236.215C145.323 236.215 144.653 235.946 144.202 235.409C143.751 234.872 143.525 234.109 143.525 233.121V225.913H141.409V224.377H143.525V221.562H145.513ZM152.001 225.784C152.882 224.703 154.028 224.162 155.438 224.162C157.895 224.162 159.134 225.548 159.155 228.319V236H157.168V228.309C157.161 227.471 156.967 226.851 156.588 226.45C156.215 226.049 155.632 225.849 154.837 225.849C154.192 225.849 153.627 226.021 153.14 226.364C152.653 226.708 152.273 227.159 152.001 227.718V236H150.014V219.5H152.001V225.784ZM166.954 236.215C165.379 236.215 164.097 235.699 163.108 234.668C162.12 233.63 161.626 232.244 161.626 230.511V230.146C161.626 228.993 161.844 227.965 162.281 227.062C162.725 226.153 163.341 225.444 164.129 224.936C164.924 224.42 165.783 224.162 166.707 224.162C168.218 224.162 169.393 224.66 170.23 225.655C171.068 226.651 171.487 228.076 171.487 229.931V230.758H163.613C163.642 231.904 163.975 232.831 164.612 233.54C165.257 234.242 166.073 234.593 167.062 234.593C167.763 234.593 168.358 234.45 168.845 234.163C169.332 233.877 169.758 233.497 170.123 233.024L171.337 233.97C170.363 235.466 168.902 236.215 166.954 236.215ZM166.707 225.795C165.905 225.795 165.232 226.089 164.688 226.676C164.143 227.256 163.807 228.072 163.678 229.125H169.5V228.975C169.443 227.965 169.171 227.184 168.684 226.633C168.197 226.074 167.538 225.795 166.707 225.795ZM186.849 220.349V222.035H186.483C184.937 222.064 183.705 222.522 182.788 223.41C181.871 224.298 181.341 225.548 181.198 227.159C182.022 226.214 183.146 225.741 184.571 225.741C185.932 225.741 187.017 226.221 187.826 227.181C188.643 228.14 189.051 229.379 189.051 230.897C189.051 232.509 188.61 233.798 187.729 234.765C186.856 235.731 185.681 236.215 184.206 236.215C182.709 236.215 181.495 235.642 180.564 234.496C179.633 233.343 179.168 231.861 179.168 230.049V229.286C179.168 226.407 179.78 224.209 181.005 222.69C182.237 221.165 184.066 220.384 186.494 220.349H186.849ZM184.238 227.396C183.558 227.396 182.931 227.6 182.358 228.008C181.785 228.416 181.388 228.928 181.166 229.544V230.274C181.166 231.563 181.456 232.602 182.036 233.39C182.616 234.177 183.34 234.571 184.206 234.571C185.101 234.571 185.803 234.242 186.312 233.583C186.827 232.924 187.085 232.061 187.085 230.994C187.085 229.92 186.824 229.053 186.301 228.395C185.785 227.729 185.098 227.396 184.238 227.396ZM194.304 221.562V224.377H196.474V225.913H194.304V233.121C194.304 233.587 194.4 233.938 194.594 234.174C194.787 234.403 195.117 234.518 195.582 234.518C195.811 234.518 196.126 234.475 196.527 234.389V236C196.005 236.143 195.496 236.215 195.002 236.215C194.114 236.215 193.444 235.946 192.993 235.409C192.542 234.872 192.316 234.109 192.316 233.121V225.913H190.2V224.377H192.316V221.562H194.304ZM200.792 225.784C201.673 224.703 202.819 224.162 204.229 224.162C206.686 224.162 207.925 225.548 207.946 228.319V236H205.959V228.309C205.952 227.471 205.758 226.851 205.379 226.45C205.007 226.049 204.423 225.849 203.628 225.849C202.983 225.849 202.418 226.021 201.931 226.364C201.444 226.708 201.064 227.159 200.792 227.718V236H198.805V219.5H200.792V225.784ZM221.041 234.593C221.75 234.593 222.369 234.378 222.899 233.948C223.429 233.519 223.723 232.981 223.78 232.337H225.66C225.624 233.003 225.395 233.637 224.973 234.238C224.55 234.84 223.984 235.32 223.275 235.678C222.574 236.036 221.829 236.215 221.041 236.215C219.458 236.215 218.198 235.688 217.26 234.636C216.329 233.576 215.863 232.129 215.863 230.296V229.963C215.863 228.831 216.071 227.825 216.486 226.944C216.902 226.063 217.496 225.38 218.27 224.893C219.05 224.406 219.97 224.162 221.03 224.162C222.334 224.162 223.415 224.552 224.274 225.333C225.141 226.114 225.603 227.127 225.66 228.373H223.78C223.723 227.621 223.437 227.005 222.921 226.525C222.412 226.038 221.782 225.795 221.03 225.795C220.021 225.795 219.236 226.16 218.678 226.891C218.126 227.614 217.851 228.663 217.851 230.038V230.414C217.851 231.753 218.126 232.785 218.678 233.508C219.229 234.231 220.017 234.593 221.041 234.593ZM235.07 234.851C234.297 235.76 233.162 236.215 231.665 236.215C230.426 236.215 229.481 235.857 228.829 235.141C228.185 234.417 227.859 233.35 227.852 231.939V224.377H229.839V231.886C229.839 233.647 230.555 234.528 231.987 234.528C233.506 234.528 234.515 233.963 235.017 232.831V224.377H237.004V236H235.113L235.07 234.851ZM249.852 230.317C249.852 232.086 249.447 233.511 248.638 234.593C247.828 235.674 246.733 236.215 245.351 236.215C243.94 236.215 242.83 235.767 242.021 234.872V240.469H240.033V224.377H241.849L241.945 225.666C242.755 224.663 243.879 224.162 245.318 224.162C246.715 224.162 247.818 224.688 248.627 225.741C249.443 226.794 249.852 228.258 249.852 230.135V230.317ZM247.864 230.092C247.864 228.781 247.585 227.746 247.026 226.987C246.468 226.228 245.701 225.849 244.728 225.849C243.524 225.849 242.622 226.382 242.021 227.449V233.003C242.615 234.063 243.524 234.593 244.749 234.593C245.701 234.593 246.457 234.217 247.016 233.465C247.581 232.706 247.864 231.581 247.864 230.092ZM258.821 236V225.913H256.984V224.377H258.821V223.185C258.821 221.938 259.154 220.975 259.82 220.295C260.486 219.615 261.428 219.274 262.646 219.274C263.104 219.274 263.559 219.335 264.01 219.457L263.902 221.068C263.566 221.004 263.208 220.972 262.828 220.972C262.184 220.972 261.686 221.161 261.335 221.541C260.984 221.913 260.809 222.451 260.809 223.152V224.377H263.29V225.913H260.809V236H258.821ZM271.11 226.16C270.81 226.11 270.484 226.085 270.133 226.085C268.829 226.085 267.945 226.64 267.479 227.75V236H265.492V224.377H267.426L267.458 225.72C268.11 224.681 269.034 224.162 270.229 224.162C270.616 224.162 270.91 224.212 271.11 224.312V226.16ZM277.556 236.215C275.98 236.215 274.698 235.699 273.71 234.668C272.722 233.63 272.228 232.244 272.228 230.511V230.146C272.228 228.993 272.446 227.965 272.883 227.062C273.327 226.153 273.943 225.444 274.73 224.936C275.525 224.42 276.385 224.162 277.309 224.162C278.82 224.162 279.994 224.66 280.832 225.655C281.67 226.651 282.089 228.076 282.089 229.931V230.758H274.215C274.243 231.904 274.576 232.831 275.214 233.54C275.858 234.242 276.675 234.593 277.663 234.593C278.365 234.593 278.959 234.45 279.446 234.163C279.933 233.877 280.359 233.497 280.725 233.024L281.938 233.97C280.965 235.466 279.504 236.215 277.556 236.215ZM277.309 225.795C276.507 225.795 275.833 226.089 275.289 226.676C274.745 227.256 274.408 228.072 274.279 229.125H280.102V228.975C280.044 227.965 279.772 227.184 279.285 226.633C278.798 226.074 278.139 225.795 277.309 225.795ZM289.222 236.215C287.646 236.215 286.364 235.699 285.376 234.668C284.388 233.63 283.894 232.244 283.894 230.511V230.146C283.894 228.993 284.112 227.965 284.549 227.062C284.993 226.153 285.609 225.444 286.396 224.936C287.191 224.42 288.051 224.162 288.975 224.162C290.486 224.162 291.66 224.66 292.498 225.655C293.336 226.651 293.755 228.076 293.755 229.931V230.758H285.881C285.91 231.904 286.243 232.831 286.88 233.54C287.524 234.242 288.341 234.593 289.329 234.593C290.031 234.593 290.625 234.45 291.112 234.163C291.599 233.877 292.025 233.497 292.391 233.024L293.604 233.97C292.631 235.466 291.17 236.215 289.222 236.215ZM288.975 225.795C288.173 225.795 287.499 226.089 286.955 226.676C286.411 227.256 286.074 228.072 285.945 229.125H291.768V228.975C291.71 227.965 291.438 227.184 290.951 226.633C290.464 226.074 289.805 225.795 288.975 225.795ZM296.107 234.958C296.107 234.614 296.208 234.328 296.408 234.099C296.616 233.869 296.924 233.755 297.332 233.755C297.74 233.755 298.048 233.869 298.256 234.099C298.471 234.328 298.578 234.614 298.578 234.958C298.578 235.287 298.471 235.563 298.256 235.785C298.048 236.007 297.74 236.118 297.332 236.118C296.924 236.118 296.616 236.007 296.408 235.785C296.208 235.563 296.107 235.287 296.107 234.958Z" fill="white"/>
<path d="M93.791 101.268C93.2637 102.346 92.707 103.318 92.1211 104.186C91.5469 105.053 90.9375 105.797 90.293 106.418C89.6602 107.039 88.998 107.52 88.3066 107.859C87.6152 108.188 86.9004 108.352 86.1621 108.352C85.8223 108.352 85.4766 108.246 85.125 108.035C84.7852 107.836 84.4746 107.549 84.1934 107.174C83.9238 106.787 83.707 106.33 83.543 105.803C83.3672 105.264 83.2793 104.666 83.2793 104.01C83.2793 103.412 83.3613 102.709 83.5254 101.9C83.6895 101.08 83.8945 100.225 84.1406 99.334C84.3984 98.4316 84.6738 97.5293 84.9668 96.627C85.2715 95.7246 85.5586 94.8926 85.8281 94.1309C86.1094 93.3691 86.3555 92.7188 86.5664 92.1797C86.7773 91.6289 86.918 91.2598 86.9883 91.0723C87.2695 90.3457 87.6387 89.6543 88.0957 88.998C88.5527 88.3418 89.0566 87.7324 89.6074 87.1699C90.1582 86.5957 90.7324 86.0801 91.3301 85.623C91.9395 85.166 92.5371 84.7793 93.123 84.4629C93.709 84.1348 94.2656 83.8828 94.793 83.707C95.332 83.5312 95.8008 83.4434 96.1992 83.4434C96.5156 83.4434 96.7734 83.5254 96.9727 83.6895C97.1836 83.8535 97.3477 84.0703 97.4648 84.3398C97.582 84.6094 97.6641 84.9199 97.7109 85.2715C97.7578 85.623 97.7812 85.9863 97.7812 86.3613C97.7812 86.8887 97.6289 87.3984 97.3242 87.8906C97.0195 88.3711 96.6621 88.8047 96.252 89.1914C95.8535 89.5664 95.4551 89.8828 95.0566 90.1406C94.6582 90.3867 94.3711 90.5449 94.1953 90.6152L94.0723 90.3164C94.248 90.0938 94.4004 89.8418 94.5293 89.5605C94.6699 89.2793 94.7871 88.9863 94.8809 88.6816C94.9863 88.377 95.0625 88.0664 95.1094 87.75C95.168 87.4336 95.1973 87.1289 95.1973 86.8359C95.209 86.6367 95.1973 86.4434 95.1621 86.2559C95.1387 86.0684 95.0977 85.8984 95.0391 85.7461C94.9805 85.5938 94.8984 85.4766 94.793 85.3945C94.6992 85.3008 94.582 85.2539 94.4414 85.2539C94.0078 85.2539 93.5566 85.4941 93.0879 85.9746C92.6309 86.4434 92.1738 87.0762 91.7168 87.873C91.2715 88.6699 90.832 89.584 90.3984 90.6152C89.9648 91.6465 89.5547 92.7188 89.168 93.832C88.7812 94.9453 88.4238 96.0586 88.0957 97.1719C87.7676 98.2852 87.4805 99.3223 87.2344 100.283C87 101.244 86.8125 102.088 86.6719 102.814C86.5312 103.541 86.4551 104.068 86.4434 104.396C86.4434 104.596 86.4727 104.807 86.5312 105.029C86.5898 105.252 86.6719 105.463 86.7773 105.662C86.8828 105.85 87.0059 106.008 87.1465 106.137C87.2988 106.254 87.4629 106.312 87.6387 106.312C88.002 106.312 88.4004 106.201 88.834 105.979C89.2676 105.756 89.7188 105.422 90.1875 104.977C90.668 104.531 91.1543 103.969 91.6465 103.289C92.1387 102.609 92.625 101.818 93.1055 100.916L93.791 101.268ZM96.0234 98.8594C96.3047 98.1797 96.6504 97.5703 97.0605 97.0312C97.4707 96.4805 97.9219 96.0176 98.4141 95.6426C98.9062 95.2559 99.4277 94.9629 99.9785 94.7637C100.529 94.5645 101.086 94.4648 101.648 94.4648C101.895 94.4648 102.164 94.5352 102.457 94.6758C102.762 94.8047 103.043 94.9863 103.301 95.2207C103.559 95.4551 103.77 95.7422 103.934 96.082C104.109 96.4102 104.197 96.7734 104.197 97.1719C104.197 97.5117 104.156 97.9043 104.074 98.3496C103.992 98.7832 103.887 99.2344 103.758 99.7031C103.629 100.16 103.488 100.617 103.336 101.074C103.184 101.531 103.037 101.953 102.896 102.34C102.756 102.715 102.627 103.037 102.51 103.307C102.404 103.576 102.328 103.758 102.281 103.852C102 104.543 101.654 105.158 101.244 105.697C100.834 106.236 100.383 106.699 99.8906 107.086C99.3984 107.461 98.877 107.748 98.3262 107.947C97.7871 108.146 97.2363 108.246 96.6738 108.246C96.4277 108.246 96.1582 108.182 95.8652 108.053C95.5605 107.924 95.2793 107.742 95.0215 107.508C94.7637 107.262 94.5527 106.975 94.3887 106.646C94.2129 106.318 94.125 105.955 94.125 105.557C94.125 105.205 94.166 104.812 94.248 104.379C94.3301 103.934 94.4355 103.482 94.5645 103.025C94.6934 102.557 94.834 102.094 94.9863 101.637C95.1387 101.18 95.2852 100.764 95.4258 100.389C95.5664 100.014 95.6895 99.6914 95.7949 99.4219C95.9004 99.1406 95.9766 98.9531 96.0234 98.8594ZM100.893 95.4316C100.623 95.4316 100.33 95.6719 100.014 96.1523C99.709 96.6211 99.3984 97.2246 99.082 97.9629C98.7773 98.7012 98.4785 99.5098 98.1855 100.389C97.9043 101.256 97.6523 102.094 97.4297 102.902C97.2188 103.711 97.043 104.426 96.9023 105.047C96.7734 105.656 96.709 106.066 96.709 106.277C96.709 106.617 96.7734 106.863 96.9023 107.016C97.0312 107.168 97.207 107.244 97.4297 107.244C97.6289 107.244 97.8398 107.109 98.0625 106.84C98.2852 106.559 98.5137 106.189 98.748 105.732C98.9824 105.275 99.2109 104.748 99.4336 104.15C99.668 103.553 99.8906 102.938 100.102 102.305C100.312 101.66 100.506 101.021 100.682 100.389C100.869 99.7559 101.027 99.1699 101.156 98.6309C101.297 98.0918 101.402 97.6289 101.473 97.2422C101.555 96.8438 101.596 96.5684 101.596 96.416C101.596 96.0762 101.531 95.8301 101.402 95.6777C101.273 95.5137 101.104 95.4316 100.893 95.4316ZM107.924 94.6055C108.264 93.5391 108.586 92.5312 108.891 91.582C109.207 90.6328 109.482 89.7949 109.717 89.0684C109.963 88.3418 110.168 87.7441 110.332 87.2754C110.496 86.7949 110.607 86.4902 110.666 86.3613C110.76 86.127 111 85.8691 111.387 85.5879C111.773 85.2949 112.201 85.0254 112.67 84.7793C113.139 84.5215 113.596 84.3105 114.041 84.1465C114.498 83.9707 114.844 83.8828 115.078 83.8828C115.324 83.8828 115.535 83.9707 115.711 84.1465C115.898 84.3105 116.045 84.5332 116.15 84.8145C116.256 85.084 116.314 85.3945 116.326 85.7461C116.35 86.0859 116.32 86.4375 116.238 86.8008C116.145 87.2109 115.957 87.5508 115.676 87.8203C115.406 88.0781 115.119 88.2832 114.814 88.4355C114.463 88.6113 114.076 88.7461 113.654 88.8398C113.9 88.3711 114.053 87.9727 114.111 87.6445C114.182 87.3164 114.217 87.0117 114.217 86.7305C114.217 86.6133 114.205 86.4727 114.182 86.3086C114.17 86.1445 114.146 85.9863 114.111 85.834C114.076 85.6816 114.023 85.5527 113.953 85.4473C113.895 85.3418 113.818 85.2891 113.725 85.2891C113.619 85.2891 113.502 85.4004 113.373 85.623C113.256 85.8457 113.133 86.1328 113.004 86.4844C112.887 86.8359 112.764 87.2285 112.635 87.6621C112.506 88.084 112.377 88.5059 112.248 88.9277L110.402 94.5352L113.004 94.4648L112.67 95.291L110.156 95.3262C109.277 98.1504 108.404 100.951 107.537 103.729C106.682 106.506 105.85 109.271 105.041 112.025C104.678 112.436 104.203 112.799 103.617 113.115C103.02 113.432 102.369 113.742 101.666 114.047L101.543 113.871C101.602 113.766 101.736 113.414 101.947 112.816C102.146 112.23 102.404 111.469 102.721 110.531C103.037 109.594 103.395 108.521 103.793 107.314C104.191 106.107 104.607 104.836 105.041 103.5C105.475 102.164 105.914 100.799 106.359 99.4043C106.816 98.0098 107.256 96.6621 107.678 95.3613L105.797 95.3965L106.078 94.6406L107.924 94.6055ZM113.795 94.6055C114.135 93.5391 114.457 92.5312 114.762 91.582C115.078 90.6328 115.354 89.7949 115.588 89.0684C115.834 88.3418 116.039 87.7441 116.203 87.2754C116.367 86.7949 116.479 86.4902 116.537 86.3613C116.631 86.127 116.871 85.8691 117.258 85.5879C117.645 85.2949 118.072 85.0254 118.541 84.7793C119.01 84.5215 119.467 84.3105 119.912 84.1465C120.369 83.9707 120.715 83.8828 120.949 83.8828C121.195 83.8828 121.406 83.9707 121.582 84.1465C121.77 84.3105 121.916 84.5332 122.021 84.8145C122.127 85.084 122.186 85.3945 122.197 85.7461C122.221 86.0859 122.191 86.4375 122.109 86.8008C122.016 87.2109 121.828 87.5508 121.547 87.8203C121.277 88.0781 120.99 88.2832 120.686 88.4355C120.334 88.6113 119.947 88.7461 119.525 88.8398C119.771 88.3711 119.924 87.9727 119.982 87.6445C120.053 87.3164 120.088 87.0117 120.088 86.7305C120.088 86.6133 120.076 86.4727 120.053 86.3086C120.041 86.1445 120.018 85.9863 119.982 85.834C119.947 85.6816 119.895 85.5527 119.824 85.4473C119.766 85.3418 119.689 85.2891 119.596 85.2891C119.49 85.2891 119.373 85.4004 119.244 85.623C119.127 85.8457 119.004 86.1328 118.875 86.4844C118.758 86.8359 118.635 87.2285 118.506 87.6621C118.377 88.084 118.248 88.5059 118.119 88.9277L116.273 94.5352L118.875 94.4648L118.541 95.291L116.027 95.3262C115.148 98.1504 114.275 100.951 113.408 103.729C112.553 106.506 111.721 109.271 110.912 112.025C110.549 112.436 110.074 112.799 109.488 113.115C108.891 113.432 108.24 113.742 107.537 114.047L107.414 113.871C107.473 113.766 107.607 113.414 107.818 112.816C108.018 112.23 108.275 111.469 108.592 110.531C108.908 109.594 109.266 108.521 109.664 107.314C110.062 106.107 110.479 104.836 110.912 103.5C111.346 102.164 111.785 100.799 112.23 99.4043C112.688 98.0098 113.127 96.6621 113.549 95.3613L111.668 95.3965L111.949 94.6406L113.795 94.6055ZM117.908 108.246C117.65 108.246 117.393 108.164 117.135 108C116.877 107.824 116.643 107.607 116.432 107.35C116.221 107.08 116.051 106.787 115.922 106.471C115.781 106.154 115.711 105.85 115.711 105.557C115.711 105.205 115.758 104.807 115.852 104.361C115.934 103.916 116.045 103.453 116.186 102.973C116.314 102.492 116.461 102.018 116.625 101.549C116.789 101.08 116.947 100.652 117.1 100.266C117.24 99.8672 117.369 99.5273 117.486 99.2461C117.592 98.9648 117.668 98.7773 117.715 98.6836C117.949 98.1211 118.312 97.5762 118.805 97.0488C119.309 96.5215 119.854 96.0527 120.439 95.6426C121.037 95.2324 121.635 94.9043 122.232 94.6582C122.842 94.4121 123.375 94.2891 123.832 94.2891C124.207 94.2891 124.512 94.4941 124.746 94.9043C124.98 95.3145 125.098 95.8301 125.098 96.4512C125.098 96.7676 125.021 97.0781 124.869 97.3828C124.729 97.6875 124.541 97.9746 124.307 98.2441C124.084 98.5137 123.838 98.7656 123.568 99C123.311 99.2344 123.064 99.4395 122.83 99.6152L119.156 102.428C118.945 103.225 118.77 103.934 118.629 104.555C118.5 105.164 118.436 105.58 118.436 105.803C118.436 106.143 118.482 106.4 118.576 106.576C118.67 106.752 118.863 106.84 119.156 106.84C119.777 106.84 120.422 106.535 121.09 105.926C121.758 105.305 122.408 104.314 123.041 102.955L123.551 103.289C123.234 104.027 122.865 104.701 122.443 105.311C122.033 105.92 121.588 106.441 121.107 106.875C120.627 107.309 120.111 107.648 119.561 107.895C119.021 108.129 118.471 108.246 117.908 108.246ZM122.549 95.291C122.314 95.291 122.062 95.4727 121.793 95.8359C121.523 96.1992 121.254 96.6738 120.984 97.2598C120.715 97.834 120.451 98.4902 120.193 99.2285C119.936 99.9551 119.701 100.682 119.49 101.408L122.479 99.0352C122.619 98.5312 122.748 98.0391 122.865 97.5586C122.982 97.0664 123.041 96.6973 123.041 96.4512C123.041 96.3223 123.029 96.1934 123.006 96.0645C122.994 95.9238 122.971 95.7949 122.936 95.6777C122.9 95.5605 122.848 95.4668 122.777 95.3965C122.719 95.3262 122.643 95.291 122.549 95.291ZM126.311 108.246C126.053 108.246 125.795 108.164 125.537 108C125.279 107.824 125.045 107.607 124.834 107.35C124.623 107.08 124.453 106.787 124.324 106.471C124.184 106.154 124.113 105.85 124.113 105.557C124.113 105.205 124.16 104.807 124.254 104.361C124.336 103.916 124.447 103.453 124.588 102.973C124.717 102.492 124.863 102.018 125.027 101.549C125.191 101.08 125.35 100.652 125.502 100.266C125.643 99.8672 125.771 99.5273 125.889 99.2461C125.994 98.9648 126.07 98.7773 126.117 98.6836C126.352 98.1211 126.715 97.5762 127.207 97.0488C127.711 96.5215 128.256 96.0527 128.842 95.6426C129.439 95.2324 130.037 94.9043 130.635 94.6582C131.244 94.4121 131.777 94.2891 132.234 94.2891C132.609 94.2891 132.914 94.4941 133.148 94.9043C133.383 95.3145 133.5 95.8301 133.5 96.4512C133.5 96.7676 133.424 97.0781 133.271 97.3828C133.131 97.6875 132.943 97.9746 132.709 98.2441C132.486 98.5137 132.24 98.7656 131.971 99C131.713 99.2344 131.467 99.4395 131.232 99.6152L127.559 102.428C127.348 103.225 127.172 103.934 127.031 104.555C126.902 105.164 126.838 105.58 126.838 105.803C126.838 106.143 126.885 106.4 126.979 106.576C127.072 106.752 127.266 106.84 127.559 106.84C128.18 106.84 128.824 106.535 129.492 105.926C130.16 105.305 130.811 104.314 131.443 102.955L131.953 103.289C131.637 104.027 131.268 104.701 130.846 105.311C130.436 105.92 129.99 106.441 129.51 106.875C129.029 107.309 128.514 107.648 127.963 107.895C127.424 108.129 126.873 108.246 126.311 108.246ZM130.951 95.291C130.717 95.291 130.465 95.4727 130.195 95.8359C129.926 96.1992 129.656 96.6738 129.387 97.2598C129.117 97.834 128.854 98.4902 128.596 99.2285C128.338 99.9551 128.104 100.682 127.893 101.408L130.881 99.0352C131.021 98.5312 131.15 98.0391 131.268 97.5586C131.385 97.0664 131.443 96.6973 131.443 96.4512C131.443 96.3223 131.432 96.1934 131.408 96.0645C131.396 95.9238 131.373 95.7949 131.338 95.6777C131.303 95.5605 131.25 95.4668 131.18 95.3965C131.121 95.3262 131.045 95.291 130.951 95.291ZM150.041 101.268C149.514 102.346 148.957 103.318 148.371 104.186C147.797 105.053 147.188 105.797 146.543 106.418C145.91 107.039 145.248 107.52 144.557 107.859C143.865 108.188 143.15 108.352 142.412 108.352C142.072 108.352 141.727 108.246 141.375 108.035C141.035 107.836 140.725 107.549 140.443 107.174C140.174 106.787 139.957 106.33 139.793 105.803C139.617 105.264 139.529 104.666 139.529 104.01C139.529 103.412 139.611 102.709 139.775 101.9C139.939 101.08 140.145 100.225 140.391 99.334C140.648 98.4316 140.924 97.5293 141.217 96.627C141.521 95.7246 141.809 94.8926 142.078 94.1309C142.359 93.3691 142.605 92.7188 142.816 92.1797C143.027 91.6289 143.168 91.2598 143.238 91.0723C143.52 90.3457 143.889 89.6543 144.346 88.998C144.803 88.3418 145.307 87.7324 145.857 87.1699C146.408 86.5957 146.982 86.0801 147.58 85.623C148.189 85.166 148.787 84.7793 149.373 84.4629C149.959 84.1348 150.516 83.8828 151.043 83.707C151.582 83.5312 152.051 83.4434 152.449 83.4434C152.766 83.4434 153.023 83.5254 153.223 83.6895C153.434 83.8535 153.598 84.0703 153.715 84.3398C153.832 84.6094 153.914 84.9199 153.961 85.2715C154.008 85.623 154.031 85.9863 154.031 86.3613C154.031 86.8887 153.879 87.3984 153.574 87.8906C153.27 88.3711 152.912 88.8047 152.502 89.1914C152.104 89.5664 151.705 89.8828 151.307 90.1406C150.908 90.3867 150.621 90.5449 150.445 90.6152L150.322 90.3164C150.498 90.0938 150.65 89.8418 150.779 89.5605C150.92 89.2793 151.037 88.9863 151.131 88.6816C151.236 88.377 151.312 88.0664 151.359 87.75C151.418 87.4336 151.447 87.1289 151.447 86.8359C151.459 86.6367 151.447 86.4434 151.412 86.2559C151.389 86.0684 151.348 85.8984 151.289 85.7461C151.23 85.5938 151.148 85.4766 151.043 85.3945C150.949 85.3008 150.832 85.2539 150.691 85.2539C150.258 85.2539 149.807 85.4941 149.338 85.9746C148.881 86.4434 148.424 87.0762 147.967 87.873C147.521 88.6699 147.082 89.584 146.648 90.6152C146.215 91.6465 145.805 92.7188 145.418 93.832C145.031 94.9453 144.674 96.0586 144.346 97.1719C144.018 98.2852 143.73 99.3223 143.484 100.283C143.25 101.244 143.062 102.088 142.922 102.814C142.781 103.541 142.705 104.068 142.693 104.396C142.693 104.596 142.723 104.807 142.781 105.029C142.84 105.252 142.922 105.463 143.027 105.662C143.133 105.85 143.256 106.008 143.396 106.137C143.549 106.254 143.713 106.312 143.889 106.312C144.252 106.312 144.65 106.201 145.084 105.979C145.518 105.756 145.969 105.422 146.438 104.977C146.918 104.531 147.404 103.969 147.896 103.289C148.389 102.609 148.875 101.818 149.355 100.916L150.041 101.268ZM162.064 103.359C161.549 103.98 160.992 104.584 160.395 105.17C159.809 105.744 159.229 106.254 158.654 106.699C158.092 107.145 157.564 107.502 157.072 107.771C156.58 108.041 156.17 108.176 155.842 108.176C155.771 108.176 155.684 108.141 155.578 108.07C155.473 108.012 155.402 107.953 155.367 107.895C155.238 107.66 155.145 107.367 155.086 107.016C155.039 106.652 155.016 106.318 155.016 106.014C155.016 105.92 155.027 105.791 155.051 105.627C155.086 105.451 155.121 105.27 155.156 105.082C154.77 105.492 154.365 105.891 153.943 106.277C153.533 106.652 153.135 106.986 152.748 107.279C152.373 107.572 152.039 107.807 151.746 107.982C151.441 108.158 151.219 108.246 151.078 108.246C150.984 108.246 150.908 108.211 150.85 108.141C150.779 108.07 150.721 107.977 150.674 107.859C150.615 107.742 150.574 107.619 150.551 107.49C150.516 107.361 150.492 107.232 150.48 107.104C150.445 106.693 150.463 106.248 150.533 105.768C150.592 105.275 150.68 104.777 150.797 104.273C150.914 103.77 151.049 103.277 151.201 102.797C151.342 102.305 151.482 101.859 151.623 101.461C151.764 101.051 151.887 100.705 151.992 100.424C152.098 100.143 152.168 99.9551 152.203 99.8613C152.25 99.7207 152.326 99.5566 152.432 99.3691C152.549 99.1699 152.678 98.9766 152.818 98.7891C152.959 98.5898 153.1 98.4023 153.24 98.2266C153.393 98.0391 153.539 97.875 153.68 97.7344C153.938 97.4883 154.271 97.2246 154.682 96.9434C155.092 96.6621 155.537 96.3867 156.018 96.1172C156.51 95.8477 157.014 95.584 157.529 95.3262C158.045 95.0684 158.531 94.8457 158.988 94.6582C159.457 94.4707 159.873 94.3184 160.236 94.2012C160.6 94.084 160.875 94.0254 161.062 94.0254C161.227 94.0254 161.367 94.0312 161.484 94.043C161.613 94.0547 161.713 94.0723 161.783 94.0957L161.818 94.1836C161.689 94.3477 161.531 94.6289 161.344 95.0273C161.156 95.4258 160.951 95.8887 160.729 96.416C160.506 96.9434 160.277 97.5234 160.043 98.1562C159.809 98.7891 159.574 99.4277 159.34 100.072C159.117 100.717 158.906 101.35 158.707 101.971C158.508 102.58 158.326 103.137 158.162 103.641C158.01 104.145 157.887 104.572 157.793 104.924C157.711 105.264 157.67 105.486 157.67 105.592C157.67 105.803 157.758 105.908 157.934 105.908C158.051 105.896 158.238 105.832 158.496 105.715C158.754 105.586 159.053 105.398 159.393 105.152C159.732 104.906 160.096 104.607 160.482 104.256C160.881 103.893 161.279 103.471 161.678 102.99L162.064 103.359ZM153.434 105.697C153.527 105.697 153.65 105.645 153.803 105.539C153.955 105.434 154.119 105.299 154.295 105.135C154.471 104.971 154.658 104.783 154.857 104.572C155.057 104.35 155.25 104.127 155.438 103.904C155.555 103.494 155.684 103.043 155.824 102.551C155.977 102.059 156.135 101.555 156.299 101.039C156.463 100.523 156.633 100.008 156.809 99.4922C156.984 98.9766 157.154 98.4902 157.318 98.0332C157.494 97.5645 157.658 97.1426 157.811 96.7676C157.963 96.3809 158.098 96.0586 158.215 95.8008C158.027 95.8594 157.781 95.9473 157.477 96.0645C157.172 96.1699 156.832 96.3691 156.457 96.6621C156.141 96.9082 155.842 97.2773 155.561 97.7695C155.279 98.2617 155.021 98.8184 154.787 99.4395C154.553 100.049 154.336 100.682 154.137 101.338C153.949 101.994 153.785 102.604 153.645 103.166C153.516 103.729 153.416 104.209 153.346 104.607C153.275 105.006 153.24 105.246 153.24 105.328C153.24 105.422 153.246 105.51 153.258 105.592C153.281 105.662 153.34 105.697 153.434 105.697ZM162.609 108C162.48 108.023 162.34 108.041 162.188 108.053C161.918 108.088 161.566 108.105 161.133 108.105C160.934 108.105 160.723 108.094 160.5 108.07C160.277 108.059 160.055 108.035 159.832 108L159.727 107.824C159.785 107.707 159.891 107.467 160.043 107.104C160.184 106.74 160.354 106.301 160.553 105.785C160.74 105.27 160.945 104.695 161.168 104.062C161.391 103.43 161.619 102.785 161.854 102.129C162.076 101.473 162.293 100.828 162.504 100.195C162.703 99.5625 162.885 98.9824 163.049 98.4551C163.213 97.9277 163.342 97.4824 163.436 97.1191C163.529 96.7441 163.576 96.4922 163.576 96.3633C163.576 96.2344 163.564 96.1348 163.541 96.0645C163.518 95.9941 163.494 95.9297 163.471 95.8711C163.436 95.8242 163.4 95.7773 163.365 95.7305V95.4668C163.635 95.3027 163.945 95.1562 164.297 95.0273C164.66 94.8984 165.012 94.793 165.352 94.7109C165.738 94.6172 166.143 94.5352 166.564 94.4648L166.652 94.5703C166.652 94.6758 166.623 94.8398 166.564 95.0625C166.518 95.2852 166.453 95.5371 166.371 95.8184C166.289 96.0879 166.201 96.3691 166.107 96.6621C166.014 96.9551 165.92 97.2305 165.826 97.4883C165.744 97.7461 165.668 97.9688 165.598 98.1562C165.539 98.3438 165.504 98.4668 165.492 98.5254C165.234 99.2168 164.982 99.9434 164.736 100.705C164.49 101.467 164.25 102.229 164.016 102.99C164.285 102.322 164.566 101.648 164.859 100.969C165.164 100.277 165.469 99.6152 165.773 98.9824C166.078 98.3379 166.389 97.7344 166.705 97.1719C167.033 96.5977 167.35 96.1055 167.654 95.6953C167.959 95.2734 168.258 94.9395 168.551 94.6934C168.855 94.4473 169.143 94.3242 169.412 94.3242C169.494 94.3242 169.617 94.3594 169.781 94.4297C169.945 94.4883 170.115 94.5762 170.291 94.6934C170.467 94.8105 170.637 94.957 170.801 95.1328C170.977 95.2969 171.117 95.4844 171.223 95.6953C171.27 95.7656 171.229 95.9648 171.1 96.293C170.971 96.6094 170.76 96.9902 170.467 97.4355C170.174 97.8691 169.805 98.332 169.359 98.8242C168.914 99.3047 168.393 99.75 167.795 100.16L167.355 99.9316C167.543 99.5449 167.689 99.2168 167.795 98.9473C167.912 98.666 168 98.4258 168.059 98.2266C168.117 98.0156 168.152 97.834 168.164 97.6816C168.188 97.5293 168.199 97.3828 168.199 97.2422C168.199 97.0664 168.146 96.9785 168.041 96.9785C167.877 96.9785 167.666 97.1426 167.408 97.4707C167.162 97.7871 166.887 98.2207 166.582 98.7715C166.289 99.3223 165.973 99.9668 165.633 100.705C165.305 101.432 164.965 102.205 164.613 103.025C164.273 103.834 163.928 104.666 163.576 105.521C163.236 106.377 162.914 107.203 162.609 108ZM180.188 86.2207C180.188 85.9629 180.117 85.7871 179.977 85.6934C179.848 85.5879 179.684 85.541 179.484 85.5527C179.285 85.5645 179.068 85.6113 178.834 85.6934C178.6 85.7637 178.383 85.8457 178.184 85.9395L177.955 85.4648C179.162 84.8789 180.141 84.4688 180.891 84.2344C181.652 84 182.174 83.8828 182.455 83.8828C182.537 83.8828 182.631 83.918 182.736 83.9883C182.854 84.0469 182.959 84.1348 183.053 84.252C183.146 84.3691 183.229 84.5039 183.299 84.6562C183.369 84.7969 183.404 84.9434 183.404 85.0957C183.404 85.1895 183.27 85.582 183 86.2734C182.73 86.9531 182.408 87.8496 182.033 88.9629C181.811 89.6191 181.564 90.3398 181.295 91.125C181.025 91.9102 180.738 92.7305 180.434 93.5859C180.141 94.4297 179.842 95.291 179.537 96.1699C179.244 97.0488 178.957 97.9043 178.676 98.7363C178.395 99.5684 178.125 100.365 177.867 101.127C177.621 101.877 177.404 102.551 177.217 103.148C177.041 103.746 176.9 104.256 176.795 104.678C176.689 105.088 176.637 105.369 176.637 105.521C176.637 105.732 176.719 105.838 176.883 105.838C177.012 105.826 177.205 105.762 177.463 105.645C177.721 105.516 178.014 105.328 178.342 105.082C178.682 104.836 179.045 104.537 179.432 104.186C179.83 103.822 180.229 103.4 180.627 102.92L181.014 103.289C180.498 103.91 179.947 104.514 179.361 105.1C178.775 105.674 178.195 106.184 177.621 106.629C177.059 107.074 176.525 107.432 176.021 107.701C175.529 107.971 175.119 108.105 174.791 108.105C174.627 108.105 174.492 108.035 174.387 107.895C174.281 107.742 174.193 107.555 174.123 107.332C174.064 107.109 174.023 106.875 174 106.629C173.977 106.383 173.965 106.154 173.965 105.943C173.965 105.85 173.977 105.744 174 105.627C174.035 105.498 174.07 105.34 174.105 105.152C173.719 105.562 173.297 105.955 172.84 106.33C172.395 106.693 171.961 107.016 171.539 107.297C171.129 107.566 170.76 107.783 170.432 107.947C170.092 108.1 169.852 108.176 169.711 108.176C169.582 108.176 169.482 108.117 169.412 108C169.33 107.895 169.271 107.766 169.236 107.613C169.189 107.449 169.16 107.285 169.148 107.121C169.125 106.945 169.113 106.793 169.113 106.664C169.113 106.254 169.16 105.785 169.254 105.258C169.348 104.73 169.465 104.186 169.605 103.623C169.734 103.061 169.887 102.51 170.062 101.971C170.227 101.42 170.385 100.922 170.537 100.477C170.689 100.02 170.824 99.6387 170.941 99.334C171.059 99.0176 171.141 98.8125 171.188 98.7188C171.398 98.2617 171.721 97.8047 172.154 97.3477C172.588 96.8906 173.098 96.4453 173.684 96.0117C174.27 95.5781 174.908 95.168 175.6 94.7812C176.303 94.3828 177.018 94.0254 177.744 93.709C178.072 92.748 178.383 91.8398 178.676 90.9844C178.98 90.1172 179.244 89.3496 179.467 88.6816C179.689 88.0137 179.865 87.4629 179.994 87.0293C180.123 86.5957 180.188 86.3262 180.188 86.2207ZM174.299 104.01C174.51 103.354 174.738 102.65 174.984 101.9C175.23 101.139 175.482 100.359 175.74 99.5625C176.01 98.7656 176.285 97.957 176.566 97.1367C176.848 96.3164 177.123 95.5078 177.393 94.7109C177.064 94.8047 176.736 94.9395 176.408 95.1152C176.092 95.2793 175.84 95.4316 175.652 95.5723C175.348 95.8066 175.037 96.2051 174.721 96.7676C174.416 97.3184 174.123 97.9453 173.842 98.6484C173.561 99.3398 173.297 100.061 173.051 100.811C172.816 101.561 172.611 102.264 172.436 102.92C172.26 103.564 172.119 104.115 172.014 104.572C171.92 105.018 171.873 105.281 171.873 105.363C171.873 105.457 171.879 105.545 171.891 105.627C171.914 105.697 171.973 105.732 172.066 105.732C172.16 105.732 172.295 105.686 172.471 105.592C172.646 105.498 172.834 105.375 173.033 105.223C173.244 105.059 173.461 104.871 173.684 104.66C173.906 104.449 174.111 104.232 174.299 104.01Z" fill="#FFFBFB"/>
<rect width="29" height="26" fill="black" fill-opacity="0" transform="translate(47 84)"/>
<g filter="url(#filter1_d)">
<path d="M52.5 84H76L74 110H54.5938L52.5 84Z" fill="#FFFDFD"/>
</g>
<path d="M62.7188 96.5C62.7188 100.013 59.7266 103 55.8594 103C51.9922 103 49 100.013 49 96.5C49 92.9874 51.9922 90 55.8594 90C59.7266 90 62.7188 92.9874 62.7188 96.5Z" stroke="white" stroke-width="4"/>
<path d="M177.573 304.965C113.529 292.964 47.8392 331.634 23 352.469V695H383V259.461C373.736 230.658 333.825 258.461 315.028 275.962C259.039 329.167 200.063 317.466 177.573 304.965Z" fill="#271F1F"/>
<g filter="url(#filter2_d)">
<rect width="241" height="151" fill="black" fill-opacity="0" transform="translate(82 386)"/>
<rect width="241" height="151" fill="black" fill-opacity="0" transform="translate(82 386)"/>
<g filter="url(#filter3_d)">
<rect x="82" y="386" width="65" height="65" rx="5" fill="#EFB577"/>
<rect x="82" y="386" width="65" height="65" rx="5" fill="#EFB577"/>
<rect x="82" y="386" width="65" height="65" rx="5" fill="#DB8E3A"/>
</g>
<g filter="url(#filter4_d)">
<rect x="170" y="386" width="65" height="65" rx="5" fill="#EFB577"/>
<rect x="170" y="386" width="65" height="65" rx="5" fill="#EFB577"/>
<rect x="170" y="386" width="65" height="65" rx="5" fill="#EFB577"/>
<rect x="170" y="386" width="65" height="65" rx="5" fill="#DB8E3A"/>
</g>
<g filter="url(#filter5_d)">
<rect x="258" y="386" width="65" height="65" rx="5" fill="#EFB577"/>
<rect x="258" y="386" width="65" height="65" rx="5" fill="#EFB577"/>
<rect x="258" y="386" width="65" height="65" rx="5" fill="#EFB577"/>
<rect x="258" y="386" width="65" height="65" rx="5" fill="#DB8E3A"/>
</g>
<g filter="url(#filter6_d)">
<rect x="82" y="472" width="65" height="65" rx="5" fill="#EFB577"/>
<rect x="82" y="472" width="65" height="65" rx="5" fill="#EFB577"/>
<rect x="82" y="472" width="65" height="65" rx="5" fill="#DB8E3A"/>
</g>
<g filter="url(#filter7_d)">
<rect x="170" y="472" width="65" height="65" rx="5" fill="#EFB577"/>
<rect x="170" y="472" width="65" height="65" rx="5" fill="#EFB577"/>
<rect x="170" y="472" width="65" height="65" rx="5" fill="#EFB577"/>
<rect x="170" y="472" width="65" height="65" rx="5" fill="#DB8E3A"/>
</g>
<g filter="url(#filter8_d)">
<rect x="258" y="472" width="65" height="65" rx="5" fill="#EFB577"/>
<rect x="258" y="472" width="65" height="65" rx="5" fill="#EFB577"/>
<rect x="258" y="472" width="65" height="65" rx="5" fill="#EFB577"/>
<rect x="258" y="472" width="65" height="65" rx="5" fill="#DB8E3A"/>
</g>
<path d="M281.505 503.604H277.328V508H276.016V498.047H282.182V499.127H277.328V502.531H281.505V503.604ZM287.404 503.974H285.066V508H283.747V498.047H287.042C288.163 498.047 289.024 498.302 289.626 498.812C290.232 499.323 290.535 500.066 290.535 501.041C290.535 501.661 290.367 502.201 290.029 502.661C289.697 503.121 289.232 503.465 288.635 503.693L290.973 507.918V508H289.564L287.404 503.974ZM285.066 502.9H287.083C287.735 502.9 288.252 502.732 288.635 502.395C289.022 502.057 289.216 501.606 289.216 501.041C289.216 500.426 289.031 499.954 288.662 499.626C288.298 499.298 287.769 499.132 287.076 499.127H285.066V502.9ZM298.007 503.399H293.693V506.927H298.704V508H292.381V498.047H298.636V499.127H293.693V502.326H298.007V503.399ZM305.964 503.399H301.65V506.927H306.661V508H300.338V498.047H306.593V499.127H301.65V502.326H305.964V503.399Z" fill="#242323"/>
<path d="M281.505 503.604V503.854H281.755V503.604H281.505ZM277.328 503.604V503.354H277.078V503.604H277.328ZM277.328 508V508.25H277.578V508H277.328ZM276.016 508H275.766V508.25H276.016V508ZM276.016 498.047V497.797H275.766V498.047H276.016ZM282.182 498.047H282.432V497.797H282.182V498.047ZM282.182 499.127V499.377H282.432V499.127H282.182ZM277.328 499.127V498.877H277.078V499.127H277.328ZM277.328 502.531H277.078V502.781H277.328V502.531ZM281.505 502.531H281.755V502.281H281.505V502.531ZM281.505 503.354H277.328V503.854H281.505V503.354ZM277.078 503.604V508H277.578V503.604H277.078ZM277.328 507.75H276.016V508.25H277.328V507.75ZM276.266 508V498.047H275.766V508H276.266ZM276.016 498.297H282.182V497.797H276.016V498.297ZM281.932 498.047V499.127H282.432V498.047H281.932ZM282.182 498.877H277.328V499.377H282.182V498.877ZM277.078 499.127V502.531H277.578V499.127H277.078ZM277.328 502.781H281.505V502.281H277.328V502.781ZM281.255 502.531V503.604H281.755V502.531H281.255ZM287.404 503.974L287.625 503.855L287.554 503.724H287.404V503.974ZM285.066 503.974V503.724H284.816V503.974H285.066ZM285.066 508V508.25H285.316V508H285.066ZM283.747 508H283.497V508.25H283.747V508ZM283.747 498.047V497.797H283.497V498.047H283.747ZM289.626 498.812L289.464 499.003L289.465 499.004L289.626 498.812ZM290.029 502.661L289.828 502.513L289.827 502.515L290.029 502.661ZM288.635 503.693L288.546 503.46L288.277 503.562L288.416 503.814L288.635 503.693ZM290.973 507.918H291.223V507.853L291.191 507.797L290.973 507.918ZM290.973 508V508.25H291.223V508H290.973ZM289.564 508L289.344 508.118L289.415 508.25H289.564V508ZM285.066 502.9H284.816V503.15H285.066V502.9ZM288.635 502.395L288.471 502.206L288.47 502.207L288.635 502.395ZM288.662 499.626L288.495 499.812L288.496 499.813L288.662 499.626ZM287.076 499.127L287.078 498.877H287.076V499.127ZM285.066 499.127V498.877H284.816V499.127H285.066ZM287.404 503.724H285.066V504.224H287.404V503.724ZM284.816 503.974V508H285.316V503.974H284.816ZM285.066 507.75H283.747V508.25H285.066V507.75ZM283.997 508V498.047H283.497V508H283.997ZM283.747 498.297H287.042V497.797H283.747V498.297ZM287.042 498.297C288.128 498.297 288.924 498.544 289.464 499.003L289.788 498.622C289.125 498.06 288.198 497.797 287.042 497.797V498.297ZM289.465 499.004C290.002 499.456 290.285 500.121 290.285 501.041H290.785C290.785 500.011 290.462 499.19 289.787 498.621L289.465 499.004ZM290.285 501.041C290.285 501.613 290.131 502.1 289.828 502.513L290.231 502.809C290.602 502.302 290.785 501.709 290.785 501.041H290.285ZM289.827 502.515C289.526 502.931 289.103 503.247 288.546 503.46L288.724 503.927C289.361 503.684 289.867 503.312 290.232 502.808L289.827 502.515ZM288.416 503.814L290.754 508.039L291.191 507.797L288.854 503.572L288.416 503.814ZM290.723 507.918V508H291.223V507.918H290.723ZM290.973 507.75H289.564V508.25H290.973V507.75ZM289.785 507.882L287.625 503.855L287.184 504.092L289.344 508.118L289.785 507.882ZM285.066 503.15H287.083V502.65H285.066V503.15ZM287.083 503.15C287.778 503.15 288.36 502.97 288.8 502.582L288.47 502.207C288.144 502.494 287.691 502.65 287.083 502.65V503.15ZM288.799 502.583C289.247 502.193 289.466 501.67 289.466 501.041H288.966C288.966 501.542 288.798 501.921 288.471 502.206L288.799 502.583ZM289.466 501.041C289.466 500.373 289.263 499.826 288.828 499.439L288.496 499.813C288.799 500.082 288.966 500.478 288.966 501.041H289.466ZM288.829 499.44C288.404 499.057 287.807 498.882 287.078 498.877L287.075 499.377C287.731 499.381 288.191 499.539 288.495 499.812L288.829 499.44ZM287.076 498.877H285.066V499.377H287.076V498.877ZM284.816 499.127V502.9H285.316V499.127H284.816ZM298.007 503.399V503.649H298.257V503.399H298.007ZM293.693 503.399V503.149H293.443V503.399H293.693ZM293.693 506.927H293.443V507.177H293.693V506.927ZM298.704 506.927H298.954V506.677H298.704V506.927ZM298.704 508V508.25H298.954V508H298.704ZM292.381 508H292.131V508.25H292.381V508ZM292.381 498.047V497.797H292.131V498.047H292.381ZM298.636 498.047H298.886V497.797H298.636V498.047ZM298.636 499.127V499.377H298.886V499.127H298.636ZM293.693 499.127V498.877H293.443V499.127H293.693ZM293.693 502.326H293.443V502.576H293.693V502.326ZM298.007 502.326H298.257V502.076H298.007V502.326ZM298.007 503.149H293.693V503.649H298.007V503.149ZM293.443 503.399V506.927H293.943V503.399H293.443ZM293.693 507.177H298.704V506.677H293.693V507.177ZM298.454 506.927V508H298.954V506.927H298.454ZM298.704 507.75H292.381V508.25H298.704V507.75ZM292.631 508V498.047H292.131V508H292.631ZM292.381 498.297H298.636V497.797H292.381V498.297ZM298.386 498.047V499.127H298.886V498.047H298.386ZM298.636 498.877H293.693V499.377H298.636V498.877ZM293.443 499.127V502.326H293.943V499.127H293.443ZM293.693 502.576H298.007V502.076H293.693V502.576ZM297.757 502.326V503.399H298.257V502.326H297.757ZM305.964 503.399V503.649H306.214V503.399H305.964ZM301.65 503.399V503.149H301.4V503.399H301.65ZM301.65 506.927H301.4V507.177H301.65V506.927ZM306.661 506.927H306.911V506.677H306.661V506.927ZM306.661 508V508.25H306.911V508H306.661ZM300.338 508H300.088V508.25H300.338V508ZM300.338 498.047V497.797H300.088V498.047H300.338ZM306.593 498.047H306.843V497.797H306.593V498.047ZM306.593 499.127V499.377H306.843V499.127H306.593ZM301.65 499.127V498.877H301.4V499.127H301.65ZM301.65 502.326H301.4V502.576H301.65V502.326ZM305.964 502.326H306.214V502.076H305.964V502.326ZM305.964 503.149H301.65V503.649H305.964V503.149ZM301.4 503.399V506.927H301.9V503.399H301.4ZM301.65 507.177H306.661V506.677H301.65V507.177ZM306.411 506.927V508H306.911V506.927H306.411ZM306.661 507.75H300.338V508.25H306.661V507.75ZM300.588 508V498.047H300.088V508H300.588ZM300.338 498.297H306.593V497.797H300.338V498.297ZM306.343 498.047V499.127H306.843V498.047H306.343ZM306.593 498.877H301.65V499.377H306.593V498.877ZM301.4 499.127V502.326H301.9V499.127H301.4ZM301.65 502.576H305.964V502.076H301.65V502.576ZM305.714 502.326V503.399H306.214V502.326H305.714Z" fill="black"/>
</g>
<path d="M102.57 354.127H99.3711V363H98.0654V354.127H94.873V353.047H102.57V354.127ZM107.636 363C107.563 362.854 107.504 362.594 107.458 362.221C106.87 362.831 106.168 363.137 105.353 363.137C104.623 363.137 104.024 362.932 103.555 362.521C103.09 362.107 102.857 361.583 102.857 360.949C102.857 360.179 103.149 359.582 103.732 359.158C104.32 358.73 105.145 358.516 106.207 358.516H107.438V357.935C107.438 357.493 107.305 357.142 107.041 356.882C106.777 356.618 106.387 356.485 105.872 356.485C105.421 356.485 105.043 356.599 104.737 356.827C104.432 357.055 104.279 357.331 104.279 357.654H103.008C103.008 357.285 103.138 356.93 103.397 356.588C103.662 356.242 104.017 355.968 104.464 355.768C104.915 355.567 105.41 355.467 105.947 355.467C106.799 355.467 107.467 355.681 107.95 356.109C108.433 356.533 108.684 357.119 108.702 357.866V361.271C108.702 361.95 108.789 362.49 108.962 362.891V363H107.636ZM105.537 362.036C105.934 362.036 106.31 361.934 106.665 361.729C107.021 361.523 107.278 361.257 107.438 360.929V359.411H106.446C104.897 359.411 104.122 359.865 104.122 360.771C104.122 361.168 104.254 361.478 104.519 361.701C104.783 361.924 105.122 362.036 105.537 362.036ZM116.933 359.384C116.933 360.509 116.675 361.416 116.16 362.104C115.645 362.793 114.948 363.137 114.068 363.137C113.171 363.137 112.464 362.852 111.949 362.282V365.844H110.685V355.604H111.84L111.901 356.424C112.416 355.786 113.132 355.467 114.048 355.467C114.937 355.467 115.638 355.802 116.153 356.472C116.673 357.142 116.933 358.074 116.933 359.268V359.384ZM115.668 359.24C115.668 358.406 115.49 357.748 115.135 357.265C114.779 356.782 114.292 356.54 113.672 356.54C112.906 356.54 112.332 356.88 111.949 357.559V361.093C112.327 361.767 112.906 362.104 113.686 362.104C114.292 362.104 114.772 361.865 115.128 361.387C115.488 360.904 115.668 360.188 115.668 359.24ZM123.734 353.812V355.604H125.115V356.581H123.734V361.168C123.734 361.464 123.796 361.688 123.919 361.838C124.042 361.984 124.252 362.057 124.548 362.057C124.694 362.057 124.894 362.029 125.149 361.975V363C124.817 363.091 124.493 363.137 124.179 363.137C123.614 363.137 123.188 362.966 122.9 362.624C122.613 362.282 122.47 361.797 122.47 361.168V356.581H121.123V355.604H122.47V353.812H123.734ZM126.127 359.233C126.127 358.509 126.268 357.857 126.551 357.278C126.838 356.7 127.234 356.253 127.74 355.938C128.251 355.624 128.832 355.467 129.483 355.467C130.491 355.467 131.304 355.815 131.924 356.513C132.548 357.21 132.86 358.137 132.86 359.295V359.384C132.86 360.104 132.721 360.751 132.443 361.325C132.17 361.895 131.776 362.339 131.261 362.658C130.75 362.977 130.162 363.137 129.497 363.137C128.494 363.137 127.681 362.788 127.057 362.091C126.437 361.394 126.127 360.471 126.127 359.322V359.233ZM127.398 359.384C127.398 360.204 127.588 360.863 127.966 361.359C128.349 361.856 128.859 362.104 129.497 362.104C130.14 362.104 130.65 361.854 131.028 361.353C131.407 360.847 131.596 360.14 131.596 359.233C131.596 358.422 131.402 357.766 131.015 357.265C130.632 356.759 130.121 356.506 129.483 356.506C128.859 356.506 128.355 356.754 127.973 357.251C127.59 357.748 127.398 358.459 127.398 359.384ZM142.226 361.038C142.226 360.696 142.096 360.432 141.836 360.245C141.581 360.054 141.132 359.89 140.489 359.753C139.851 359.616 139.343 359.452 138.965 359.261C138.591 359.069 138.313 358.841 138.131 358.577C137.953 358.313 137.864 357.998 137.864 357.634C137.864 357.028 138.119 356.515 138.63 356.096C139.145 355.676 139.801 355.467 140.599 355.467C141.437 355.467 142.116 355.683 142.636 356.116C143.16 356.549 143.422 357.103 143.422 357.777H142.15C142.15 357.431 142.002 357.132 141.706 356.882C141.414 356.631 141.045 356.506 140.599 356.506C140.138 356.506 139.778 356.606 139.519 356.807C139.259 357.007 139.129 357.269 139.129 357.593C139.129 357.898 139.25 358.128 139.491 358.283C139.733 358.438 140.168 358.586 140.797 358.728C141.43 358.869 141.943 359.037 142.335 359.233C142.727 359.429 143.016 359.666 143.203 359.944C143.395 360.218 143.49 360.553 143.49 360.949C143.49 361.61 143.226 362.141 142.697 362.542C142.169 362.938 141.483 363.137 140.64 363.137C140.047 363.137 139.523 363.032 139.067 362.822C138.612 362.613 138.254 362.321 137.994 361.947C137.739 361.569 137.611 361.161 137.611 360.724H138.876C138.899 361.147 139.067 361.485 139.382 361.735C139.701 361.981 140.12 362.104 140.64 362.104C141.118 362.104 141.501 362.009 141.788 361.817C142.08 361.621 142.226 361.362 142.226 361.038ZM148.104 362.104C148.556 362.104 148.95 361.968 149.287 361.694C149.624 361.421 149.811 361.079 149.848 360.669H151.044C151.021 361.093 150.875 361.496 150.606 361.879C150.338 362.262 149.978 362.567 149.526 362.795C149.08 363.023 148.606 363.137 148.104 363.137C147.097 363.137 146.295 362.802 145.698 362.132C145.106 361.457 144.81 360.537 144.81 359.37V359.158C144.81 358.438 144.942 357.798 145.206 357.237C145.47 356.677 145.849 356.242 146.341 355.932C146.838 355.622 147.423 355.467 148.098 355.467C148.927 355.467 149.615 355.715 150.162 356.212C150.714 356.709 151.007 357.354 151.044 358.146H149.848C149.811 357.668 149.629 357.276 149.301 356.971C148.977 356.661 148.576 356.506 148.098 356.506C147.455 356.506 146.956 356.738 146.601 357.203C146.25 357.663 146.074 358.331 146.074 359.206V359.445C146.074 360.298 146.25 360.954 146.601 361.414C146.951 361.874 147.453 362.104 148.104 362.104ZM157.032 363C156.959 362.854 156.9 362.594 156.854 362.221C156.267 362.831 155.565 363.137 154.749 363.137C154.02 363.137 153.421 362.932 152.951 362.521C152.486 362.107 152.254 361.583 152.254 360.949C152.254 360.179 152.546 359.582 153.129 359.158C153.717 358.73 154.542 358.516 155.604 358.516H156.834V357.935C156.834 357.493 156.702 357.142 156.438 356.882C156.173 356.618 155.784 356.485 155.269 356.485C154.817 356.485 154.439 356.599 154.134 356.827C153.828 357.055 153.676 357.331 153.676 357.654H152.404C152.404 357.285 152.534 356.93 152.794 356.588C153.058 356.242 153.414 355.968 153.86 355.768C154.312 355.567 154.806 355.467 155.344 355.467C156.196 355.467 156.864 355.681 157.347 356.109C157.83 356.533 158.08 357.119 158.099 357.866V361.271C158.099 361.95 158.185 362.49 158.358 362.891V363H157.032ZM154.934 362.036C155.33 362.036 155.706 361.934 156.062 361.729C156.417 361.523 156.674 361.257 156.834 360.929V359.411H155.843C154.293 359.411 153.519 359.865 153.519 360.771C153.519 361.168 153.651 361.478 153.915 361.701C154.179 361.924 154.519 362.036 154.934 362.036ZM161.277 355.604L161.318 356.533C161.883 355.822 162.622 355.467 163.533 355.467C165.096 355.467 165.885 356.349 165.898 358.112V363H164.634V358.105C164.629 357.572 164.506 357.178 164.265 356.923C164.028 356.668 163.656 356.54 163.15 356.54C162.74 356.54 162.38 356.649 162.07 356.868C161.76 357.087 161.519 357.374 161.346 357.729V363H160.081V355.604H161.277ZM173.698 361.147L175.421 355.604H176.774L173.801 364.142C173.34 365.372 172.609 365.987 171.606 365.987L171.367 365.967L170.896 365.878V364.853L171.237 364.88C171.666 364.88 171.998 364.793 172.235 364.62C172.477 364.447 172.675 364.13 172.83 363.67L173.11 362.918L170.472 355.604H171.853L173.698 361.147ZM177.465 359.233C177.465 358.509 177.606 357.857 177.889 357.278C178.176 356.7 178.572 356.253 179.078 355.938C179.589 355.624 180.17 355.467 180.821 355.467C181.828 355.467 182.642 355.815 183.262 356.513C183.886 357.21 184.198 358.137 184.198 359.295V359.384C184.198 360.104 184.059 360.751 183.781 361.325C183.508 361.895 183.114 362.339 182.599 362.658C182.088 362.977 181.5 363.137 180.835 363.137C179.832 363.137 179.019 362.788 178.395 362.091C177.775 361.394 177.465 360.471 177.465 359.322V359.233ZM178.736 359.384C178.736 360.204 178.925 360.863 179.304 361.359C179.687 361.856 180.197 362.104 180.835 362.104C181.478 362.104 181.988 361.854 182.366 361.353C182.744 360.847 182.934 360.14 182.934 359.233C182.934 358.422 182.74 357.766 182.353 357.265C181.97 356.759 181.459 356.506 180.821 356.506C180.197 356.506 179.693 356.754 179.311 357.251C178.928 357.748 178.736 358.459 178.736 359.384ZM190.351 362.269C189.858 362.847 189.136 363.137 188.184 363.137C187.395 363.137 186.794 362.909 186.379 362.453C185.969 361.993 185.761 361.314 185.757 360.416V355.604H187.021V360.382C187.021 361.503 187.477 362.063 188.389 362.063C189.355 362.063 189.997 361.703 190.316 360.983V355.604H191.581V363H190.378L190.351 362.269ZM197.084 356.738C196.893 356.706 196.685 356.69 196.462 356.69C195.632 356.69 195.07 357.044 194.773 357.75V363H193.509V355.604H194.739L194.76 356.458C195.174 355.797 195.762 355.467 196.523 355.467C196.77 355.467 196.956 355.499 197.084 355.562V356.738ZM204.692 362.104C205.144 362.104 205.538 361.968 205.875 361.694C206.212 361.421 206.399 361.079 206.436 360.669H207.632C207.609 361.093 207.463 361.496 207.194 361.879C206.925 362.262 206.565 362.567 206.114 362.795C205.668 363.023 205.194 363.137 204.692 363.137C203.685 363.137 202.883 362.802 202.286 362.132C201.694 361.457 201.397 360.537 201.397 359.37V359.158C201.397 358.438 201.53 357.798 201.794 357.237C202.058 356.677 202.437 356.242 202.929 355.932C203.425 355.622 204.011 355.467 204.686 355.467C205.515 355.467 206.203 355.715 206.75 356.212C207.301 356.709 207.595 357.354 207.632 358.146H206.436C206.399 357.668 206.217 357.276 205.889 356.971C205.565 356.661 205.164 356.506 204.686 356.506C204.043 356.506 203.544 356.738 203.188 357.203C202.838 357.663 202.662 358.331 202.662 359.206V359.445C202.662 360.298 202.838 360.954 203.188 361.414C203.539 361.874 204.041 362.104 204.692 362.104ZM208.719 359.233C208.719 358.509 208.86 357.857 209.143 357.278C209.43 356.7 209.826 356.253 210.332 355.938C210.842 355.624 211.424 355.467 212.075 355.467C213.082 355.467 213.896 355.815 214.516 356.513C215.14 357.21 215.452 358.137 215.452 359.295V359.384C215.452 360.104 215.313 360.751 215.035 361.325C214.762 361.895 214.368 362.339 213.853 362.658C213.342 362.977 212.754 363.137 212.089 363.137C211.086 363.137 210.273 362.788 209.648 362.091C209.029 361.394 208.719 360.471 208.719 359.322V359.233ZM209.99 359.384C209.99 360.204 210.179 360.863 210.558 361.359C210.94 361.856 211.451 362.104 212.089 362.104C212.731 362.104 213.242 361.854 213.62 361.353C213.998 360.847 214.188 360.14 214.188 359.233C214.188 358.422 213.994 357.766 213.606 357.265C213.224 356.759 212.713 356.506 212.075 356.506C211.451 356.506 210.947 356.754 210.564 357.251C210.182 357.748 209.99 358.459 209.99 359.384ZM217.66 363V356.581H216.491V355.604H217.66V354.845C217.66 354.052 217.872 353.439 218.296 353.006C218.72 352.573 219.319 352.356 220.094 352.356C220.385 352.356 220.675 352.395 220.962 352.473L220.894 353.498C220.679 353.457 220.451 353.437 220.21 353.437C219.8 353.437 219.483 353.557 219.26 353.799C219.036 354.036 218.925 354.378 218.925 354.824V355.604H220.504V356.581H218.925V363H217.66ZM222.527 363V356.581H221.358V355.604H222.527V354.845C222.527 354.052 222.739 353.439 223.163 353.006C223.587 352.573 224.186 352.356 224.961 352.356C225.253 352.356 225.542 352.395 225.829 352.473L225.761 353.498C225.547 353.457 225.319 353.437 225.077 353.437C224.667 353.437 224.35 353.557 224.127 353.799C223.904 354.036 223.792 354.378 223.792 354.824V355.604H225.371V356.581H223.792V363H222.527ZM229.678 363.137C228.675 363.137 227.859 362.809 227.23 362.152C226.602 361.492 226.287 360.61 226.287 359.507V359.274C226.287 358.541 226.426 357.887 226.704 357.312C226.987 356.734 227.379 356.283 227.88 355.959C228.386 355.631 228.933 355.467 229.521 355.467C230.482 355.467 231.229 355.784 231.763 356.417C232.296 357.05 232.562 357.957 232.562 359.138V359.664H227.552C227.57 360.393 227.782 360.983 228.188 361.435C228.598 361.881 229.117 362.104 229.746 362.104C230.193 362.104 230.571 362.013 230.881 361.831C231.191 361.649 231.462 361.407 231.694 361.106L232.467 361.708C231.847 362.66 230.917 363.137 229.678 363.137ZM229.521 356.506C229.01 356.506 228.582 356.693 228.235 357.066C227.889 357.436 227.675 357.955 227.593 358.625H231.298V358.529C231.261 357.887 231.088 357.39 230.778 357.039C230.468 356.684 230.049 356.506 229.521 356.506ZM237.102 363.137C236.099 363.137 235.283 362.809 234.654 362.152C234.025 361.492 233.711 360.61 233.711 359.507V359.274C233.711 358.541 233.85 357.887 234.128 357.312C234.41 356.734 234.802 356.283 235.304 355.959C235.81 355.631 236.356 355.467 236.944 355.467C237.906 355.467 238.653 355.784 239.187 356.417C239.72 357.05 239.986 357.957 239.986 359.138V359.664H234.976C234.994 360.393 235.206 360.983 235.611 361.435C236.021 361.881 236.541 362.104 237.17 362.104C237.617 362.104 237.995 362.013 238.305 361.831C238.615 361.649 238.886 361.407 239.118 361.106L239.891 361.708C239.271 362.66 238.341 363.137 237.102 363.137ZM236.944 356.506C236.434 356.506 236.006 356.693 235.659 357.066C235.313 357.436 235.099 357.955 235.017 358.625H238.722V358.529C238.685 357.887 238.512 357.39 238.202 357.039C237.892 356.684 237.473 356.506 236.944 356.506ZM251.177 359.384C251.177 360.509 250.919 361.416 250.404 362.104C249.889 362.793 249.192 363.137 248.312 363.137C247.415 363.137 246.708 362.852 246.193 362.282V365.844H244.929V355.604H246.084L246.146 356.424C246.66 355.786 247.376 355.467 248.292 355.467C249.181 355.467 249.882 355.802 250.397 356.472C250.917 357.142 251.177 358.074 251.177 359.268V359.384ZM249.912 359.24C249.912 358.406 249.734 357.748 249.379 357.265C249.023 356.782 248.536 356.54 247.916 356.54C247.15 356.54 246.576 356.88 246.193 357.559V361.093C246.572 361.767 247.15 362.104 247.93 362.104C248.536 362.104 249.017 361.865 249.372 361.387C249.732 360.904 249.912 360.188 249.912 359.24ZM257.356 362.269C256.864 362.847 256.142 363.137 255.189 363.137C254.401 363.137 253.799 362.909 253.385 362.453C252.975 361.993 252.767 361.314 252.763 360.416V355.604H254.027V360.382C254.027 361.503 254.483 362.063 255.395 362.063C256.361 362.063 257.003 361.703 257.322 360.983V355.604H258.587V363H257.384L257.356 362.269ZM264.09 356.738C263.898 356.706 263.691 356.69 263.468 356.69C262.638 356.69 262.076 357.044 261.779 357.75V363H260.515V355.604H261.745L261.766 356.458C262.18 355.797 262.768 355.467 263.529 355.467C263.775 355.467 263.962 355.499 264.09 355.562V356.738ZM268.089 362.104C268.54 362.104 268.934 361.968 269.271 361.694C269.609 361.421 269.796 361.079 269.832 360.669H271.028C271.006 361.093 270.86 361.496 270.591 361.879C270.322 362.262 269.962 362.567 269.511 362.795C269.064 363.023 268.59 363.137 268.089 363.137C267.082 363.137 266.28 362.802 265.683 362.132C265.09 361.457 264.794 360.537 264.794 359.37V359.158C264.794 358.438 264.926 357.798 265.19 357.237C265.455 356.677 265.833 356.242 266.325 355.932C266.822 355.622 267.408 355.467 268.082 355.467C268.911 355.467 269.6 355.715 270.146 356.212C270.698 356.709 270.992 357.354 271.028 358.146H269.832C269.796 357.668 269.613 357.276 269.285 356.971C268.962 356.661 268.561 356.506 268.082 356.506C267.439 356.506 266.94 356.738 266.585 357.203C266.234 357.663 266.059 358.331 266.059 359.206V359.445C266.059 360.298 266.234 360.954 266.585 361.414C266.936 361.874 267.437 362.104 268.089 362.104ZM273.715 356.499C274.275 355.811 275.005 355.467 275.902 355.467C277.465 355.467 278.254 356.349 278.268 358.112V363H277.003V358.105C276.998 357.572 276.875 357.178 276.634 356.923C276.397 356.668 276.025 356.54 275.52 356.54C275.109 356.54 274.749 356.649 274.439 356.868C274.13 357.087 273.888 357.374 273.715 357.729V363H272.45V352.5H273.715V356.499ZM284.728 363C284.655 362.854 284.595 362.594 284.55 362.221C283.962 362.831 283.26 363.137 282.444 363.137C281.715 363.137 281.116 362.932 280.646 362.521C280.182 362.107 279.949 361.583 279.949 360.949C279.949 360.179 280.241 359.582 280.824 359.158C281.412 358.73 282.237 358.516 283.299 358.516H284.529V357.935C284.529 357.493 284.397 357.142 284.133 356.882C283.868 356.618 283.479 356.485 282.964 356.485C282.513 356.485 282.134 356.599 281.829 356.827C281.524 357.055 281.371 357.331 281.371 357.654H280.1C280.1 357.285 280.229 356.93 280.489 356.588C280.754 356.242 281.109 355.968 281.556 355.768C282.007 355.567 282.501 355.467 283.039 355.467C283.891 355.467 284.559 355.681 285.042 356.109C285.525 356.533 285.776 357.119 285.794 357.866V361.271C285.794 361.95 285.881 362.49 286.054 362.891V363H284.728ZM282.629 362.036C283.025 362.036 283.401 361.934 283.757 361.729C284.112 361.523 284.37 361.257 284.529 360.929V359.411H283.538C281.989 359.411 281.214 359.865 281.214 360.771C281.214 361.168 281.346 361.478 281.61 361.701C281.875 361.924 282.214 362.036 282.629 362.036ZM292.083 361.038C292.083 360.696 291.953 360.432 291.693 360.245C291.438 360.054 290.989 359.89 290.347 359.753C289.709 359.616 289.201 359.452 288.822 359.261C288.449 359.069 288.171 358.841 287.988 358.577C287.811 358.313 287.722 357.998 287.722 357.634C287.722 357.028 287.977 356.515 288.487 356.096C289.002 355.676 289.659 355.467 290.456 355.467C291.295 355.467 291.974 355.683 292.493 356.116C293.017 356.549 293.279 357.103 293.279 357.777H292.008C292.008 357.431 291.86 357.132 291.563 356.882C291.272 356.631 290.903 356.506 290.456 356.506C289.996 356.506 289.636 356.606 289.376 356.807C289.116 357.007 288.986 357.269 288.986 357.593C288.986 357.898 289.107 358.128 289.349 358.283C289.59 358.438 290.025 358.586 290.654 358.728C291.288 358.869 291.8 359.037 292.192 359.233C292.584 359.429 292.874 359.666 293.061 359.944C293.252 360.218 293.348 360.553 293.348 360.949C293.348 361.61 293.083 362.141 292.555 362.542C292.026 362.938 291.34 363.137 290.497 363.137C289.905 363.137 289.381 363.032 288.925 362.822C288.469 362.613 288.111 362.321 287.852 361.947C287.596 361.569 287.469 361.161 287.469 360.724H288.733C288.756 361.147 288.925 361.485 289.239 361.735C289.558 361.981 289.978 362.104 290.497 362.104C290.976 362.104 291.358 362.009 291.646 361.817C291.937 361.621 292.083 361.362 292.083 361.038ZM298.064 363.137C297.062 363.137 296.246 362.809 295.617 362.152C294.988 361.492 294.674 360.61 294.674 359.507V359.274C294.674 358.541 294.813 357.887 295.091 357.312C295.373 356.734 295.765 356.283 296.267 355.959C296.772 355.631 297.319 355.467 297.907 355.467C298.869 355.467 299.616 355.784 300.149 356.417C300.683 357.05 300.949 357.957 300.949 359.138V359.664H295.938C295.957 360.393 296.169 360.983 296.574 361.435C296.984 361.881 297.504 362.104 298.133 362.104C298.579 362.104 298.958 362.013 299.268 361.831C299.577 361.649 299.849 361.407 300.081 361.106L300.854 361.708C300.234 362.66 299.304 363.137 298.064 363.137ZM297.907 356.506C297.397 356.506 296.968 356.693 296.622 357.066C296.276 357.436 296.062 357.955 295.979 358.625H299.685V358.529C299.648 357.887 299.475 357.39 299.165 357.039C298.855 356.684 298.436 356.506 297.907 356.506Z" fill="white"/>
</g>
<defs>
<filter id="filter0_d" x="14" y="52" width="378" height="101" filterUnits="userSpaceOnUse" color-interpolation-filters="sRGB">
<feFlood flood-opacity="0" result="BackgroundImageFix"/>
<feColorMatrix in="SourceAlpha" type="matrix" values="0 0 0 0 0 0 0 0 0 0 0 0 0 0 0 0 0 0 127 0"/>
<feOffset dy="6"/>
<feGaussianBlur stdDeviation="4.5"/>
<feColorMatrix type="matrix" values="0 0 0 0 0 0 0 0 0 0 0 0 0 0 0 0 0 0 0.25 0"/>
<feBlend mode="normal" in2="BackgroundImageFix" result="effect1_dropShadow"/>
<feBlend mode="normal" in="SourceGraphic" in2="effect1_dropShadow" result="shape"/>
</filter>
<filter id="filter1_d" x="48.5" y="84" width="31.5" height="34" filterUnits="userSpaceOnUse" color-interpolation-filters="sRGB">
<feFlood flood-opacity="0" result="BackgroundImageFix"/>
<feColorMatrix in="SourceAlpha" type="matrix" values="0 0 0 0 0 0 0 0 0 0 0 0 0 0 0 0 0 0 127 0"/>
<feOffset dy="4"/>
<feGaussianBlur stdDeviation="2"/>
<feColorMatrix type="matrix" values="0 0 0 0 0 0 0 0 0 0 0 0 0 0 0 0 0 0 0.25 0"/>
<feBlend mode="normal" in2="BackgroundImageFix" result="effect1_dropShadow"/>
<feBlend mode="normal" in="SourceGraphic" in2="effect1_dropShadow" result="shape"/>
</filter>
<filter id="filter2_d" x="77" y="385" width="251" height="161" filterUnits="userSpaceOnUse" color-interpolation-filters="sRGB">
<feFlood flood-opacity="0" result="BackgroundImageFix"/>
<feColorMatrix in="SourceAlpha" type="matrix" values="0 0 0 0 0 0 0 0 0 0 0 0 0 0 0 0 0 0 127 0"/>
<feOffset dy="4"/>
<feGaussianBlur stdDeviation="2.5"/>
<feColorMatrix type="matrix" values="0 0 0 0 0 0 0 0 0 0 0 0 0 0 0 0 0 0 0.25 0"/>
<feBlend mode="normal" in2="BackgroundImageFix" result="effect1_dropShadow"/>
<feBlend mode="normal" in="SourceGraphic" in2="effect1_dropShadow" result="shape"/>
</filter>
<filter id="filter3_d" x="78" y="386" width="73" height="73" filterUnits="userSpaceOnUse" color-interpolation-filters="sRGB">
<feFlood flood-opacity="0" result="BackgroundImageFix"/>
<feColorMatrix in="SourceAlpha" type="matrix" values="0 0 0 0 0 0 0 0 0 0 0 0 0 0 0 0 0 0 127 0"/>
<feOffset dy="4"/>
<feGaussianBlur stdDeviation="2"/>
<feColorMatrix type="matrix" values="0 0 0 0 0 0 0 0 0 0 0 0 0 0 0 0 0 0 0.25 0"/>
<feBlend mode="normal" in2="BackgroundImageFix" result="effect1_dropShadow"/>
<feBlend mode="normal" in="SourceGraphic" in2="effect1_dropShadow" result="shape"/>
</filter>
<filter id="filter4_d" x="166" y="386" width="73" height="73" filterUnits="userSpaceOnUse" color-interpolation-filters="sRGB">
<feFlood flood-opacity="0" result="BackgroundImageFix"/>
<feColorMatrix in="SourceAlpha" type="matrix" values="0 0 0 0 0 0 0 0 0 0 0 0 0 0 0 0 0 0 127 0"/>
<feOffset dy="4"/>
<feGaussianBlur stdDeviation="2"/>
<feColorMatrix type="matrix" values="0 0 0 0 0 0 0 0 0 0 0 0 0 0 0 0 0 0 0.25 0"/>
<feBlend mode="normal" in2="BackgroundImageFix" result="effect1_dropShadow"/>
<feBlend mode="normal" in="SourceGraphic" in2="effect1_dropShadow" result="shape"/>
</filter>
<filter id="filter5_d" x="254" y="386" width="73" height="73" filterUnits="userSpaceOnUse" color-interpolation-filters="sRGB">
<feFlood flood-opacity="0" result="BackgroundImageFix"/>
<feColorMatrix in="SourceAlpha" type="matrix" values="0 0 0 0 0 0 0 0 0 0 0 0 0 0 0 0 0 0 127 0"/>
<feOffset dy="4"/>
<feGaussianBlur stdDeviation="2"/>
<feColorMatrix type="matrix" values="0 0 0 0 0 0 0 0 0 0 0 0 0 0 0 0 0 0 0.25 0"/>
<feBlend mode="normal" in2="BackgroundImageFix" result="effect1_dropShadow"/>
<feBlend mode="normal" in="SourceGraphic" in2="effect1_dropShadow" result="shape"/>
</filter>
<filter id="filter6_d" x="78" y="472" width="73" height="73" filterUnits="userSpaceOnUse" color-interpolation-filters="sRGB">
<feFlood flood-opacity="0" result="BackgroundImageFix"/>
<feColorMatrix in="SourceAlpha" type="matrix" values="0 0 0 0 0 0 0 0 0 0 0 0 0 0 0 0 0 0 127 0"/>
<feOffset dy="4"/>
<feGaussianBlur stdDeviation="2"/>
<feColorMatrix type="matrix" values="0 0 0 0 0 0 0 0 0 0 0 0 0 0 0 0 0 0 0.25 0"/>
<feBlend mode="normal" in2="BackgroundImageFix" result="effect1_dropShadow"/>
<feBlend mode="normal" in="SourceGraphic" in2="effect1_dropShadow" result="shape"/>
</filter>
<filter id="filter7_d" x="166" y="472" width="73" height="73" filterUnits="userSpaceOnUse" color-interpolation-filters="sRGB">
<feFlood flood-opacity="0" result="BackgroundImageFix"/>
<feColorMatrix in="SourceAlpha" type="matrix" values="0 0 0 0 0 0 0 0 0 0 0 0 0 0 0 0 0 0 127 0"/>
<feOffset dy="4"/>
<feGaussianBlur stdDeviation="2"/>
<feColorMatrix type="matrix" values="0 0 0 0 0 0 0 0 0 0 0 0 0 0 0 0 0 0 0.25 0"/>
<feBlend mode="normal" in2="BackgroundImageFix" result="effect1_dropShadow"/>
<feBlend mode="normal" in="SourceGraphic" in2="effect1_dropShadow" result="shape"/>
</filter>
<filter id="filter8_d" x="254" y="472" width="73" height="73" filterUnits="userSpaceOnUse" color-interpolation-filters="sRGB">
<feFlood flood-opacity="0" result="BackgroundImageFix"/>
<feColorMatrix in="SourceAlpha" type="matrix" values="0 0 0 0 0 0 0 0 0 0 0 0 0 0 0 0 0 0 127 0"/>
<feOffset dy="4"/>
<feGaussianBlur stdDeviation="2"/>
<feColorMatrix type="matrix" values="0 0 0 0 0 0 0 0 0 0 0 0 0 0 0 0 0 0 0.25 0"/>
<feBlend mode="normal" in2="BackgroundImageFix" result="effect1_dropShadow"/>
<feBlend mode="normal" in="SourceGraphic" in2="effect1_dropShadow" result="shape"/>
</filter>
<clipPath id="clip0">
<rect width="360" height="584" fill="white" transform="translate(23 55)"/>
</clipPath>
</defs>
</svg>
